<?xml version="1.0" encoding="UTF-8" standalone="no"?>
<!-- Created with Inkscape (http://www.inkscape.org/) -->

<svg
   xmlns:osb="http://www.openswatchbook.org/uri/2009/osb"
   xmlns:dc="http://purl.org/dc/elements/1.1/"
   xmlns:cc="http://creativecommons.org/ns#"
   xmlns:rdf="http://www.w3.org/1999/02/22-rdf-syntax-ns#"
   xmlns:svg="http://www.w3.org/2000/svg"
   xmlns="http://www.w3.org/2000/svg"
   xmlns:sodipodi="http://sodipodi.sourceforge.net/DTD/sodipodi-0.dtd"
   xmlns:inkscape="http://www.inkscape.org/namespaces/inkscape"
   width="194.53145mm"
   height="275.82541mm"
   viewBox="0 0 194.53145 275.82541"
   version="1.1"
   id="svg6951"
   inkscape:version="0.92.4 (5da689c313, 2019-01-14)"
   sodipodi:docname="0.svg">
  <defs
     id="defs6945">
    <pattern
       inkscape:isstock="true"
       inkscape:stockid="Checkerboard white"
       id="Checkerboardwhite"
       patternTransform="translate(0,0) scale(10,10)"
       height="2"
       width="2"
       patternUnits="userSpaceOnUse"
       inkscape:collect="always">
      <rect
         id="rect1634"
         height="1"
         width="1"
         y="0"
         x="0"
         style="fill:white;stroke:none" />
      <rect
         id="rect1636"
         height="1"
         width="1"
         y="1"
         x="1"
         style="fill:white;stroke:none" />
    </pattern>
    <linearGradient
       id="linearGradient2901"
       osb:paint="solid">
      <stop
         style="stop-color:#c85454;stop-opacity:1;"
         offset="0"
         id="stop2899" />
    </linearGradient>
    <pattern
       inkscape:isstock="true"
       inkscape:stockid="Wavy white"
       id="Wavywhite"
       height="5.1805778"
       width="30.066020"
       patternUnits="userSpaceOnUse"
       inkscape:collect="always">
      <path
         id="path2185"
         d="M 7.597,0.061 C 5.079,-0.187 2.656,0.302 -0.01,1.788 L -0.01,3.061 C 2.773,1.431 5.173,1.052 7.472,1.280 C 9.770,1.508 11.969,2.361 14.253,3.218 C 18.820,4.931 23.804,6.676 30.066,3.061 L 30.062,1.788 C 23.622,5.497 19.246,3.770 14.691,2.061 C 12.413,1.207 10.115,0.311 7.597,0.061 z "
         style="fill:white;stroke:none;" />
    </pattern>
  </defs>
  <sodipodi:namedview
     id="base"
     pagecolor="#ffffff"
     bordercolor="#666666"
     borderopacity="1.0"
     inkscape:pageopacity="0.0"
     inkscape:pageshadow="2"
     inkscape:zoom="0.7"
     inkscape:cx="479.1307"
     inkscape:cy="482.06012"
     inkscape:document-units="mm"
     inkscape:current-layer="layer1"
     showgrid="false"
     inkscape:window-width="2560"
     inkscape:window-height="1017"
     inkscape:window-x="-8"
     inkscape:window-y="-8"
     inkscape:window-maximized="1" />
  <metadata
     id="metadata6948">
    <rdf:RDF>
      <cc:Work
         rdf:about="">
        <dc:format>image/svg+xml</dc:format>
        <dc:type
           rdf:resource="http://purl.org/dc/dcmitype/StillImage" />
        <dc:title></dc:title>
      </cc:Work>
    </rdf:RDF>
  </metadata>
  <g
     inkscape:label="Layer 1"
     inkscape:groupmode="layer"
     id="layer1"
     transform="translate(-7.9995619,-13.566454)">
    <g
       id="g3150"
       transform="matrix(1.2393696,0,0,-1.2393696,15.407274,13.566454)">
      <path
         d="m 0,0 h 145.008 l 2.304,-0.647 1.944,-1.874 1.223,-2.664 0.504,-3.383 v -205.489 l -0.504,-3.239 -1.223,-2.736 -1.944,-1.872 -2.304,-0.649 H 0 l -2.377,0.649 -1.871,1.872 -1.296,2.736 -0.433,3.239 V -8.568 l 0.433,3.383 1.296,2.664 1.871,1.874 z"
         style="fill:#000000;fill-opacity:1;fill-rule:nonzero;stroke:none"
         id="path3152"
         inkscape:connector-curvature="0" />
    </g>
    <g
       id="g3154"
       transform="matrix(1.2393696,0,0,-1.2393696,18.172917,17.939304)"
       style="fill:url(#Wavywhite);fill-opacity:1.0">
      <path
         d="m 0,0 h 140.472 l 2.304,-0.576 1.8,-1.8 1.296,-2.592 0.504,-3.24 v -199.151 l -0.504,-3.169 -1.296,-2.592 -1.8,-1.8 -2.304,-0.648 H 0 l -2.231,0.648 -1.873,1.8 -1.224,2.592 -0.432,3.169 V -8.208 l 0.432,3.24 1.224,2.592 1.873,1.8 z"
         style="fill-opacity:1.0;fill-rule:nonzero;stroke:none;fill:url(#Checkerboardwhite)"
         id="path3156"
         inkscape:connector-curvature="0" />
    </g>
  </g>
</svg>
