<?xml version="1.0" encoding="UTF-8" standalone="no"?>
<!-- Created with Inkscape (http://www.inkscape.org/) -->

<svg
   xmlns:dc="http://purl.org/dc/elements/1.1/"
   xmlns:cc="http://creativecommons.org/ns#"
   xmlns:rdf="http://www.w3.org/1999/02/22-rdf-syntax-ns#"
   xmlns:svg="http://www.w3.org/2000/svg"
   xmlns="http://www.w3.org/2000/svg"
   xmlns:sodipodi="http://sodipodi.sourceforge.net/DTD/sodipodi-0.dtd"
   xmlns:inkscape="http://www.inkscape.org/namespaces/inkscape"
   width="194.53145mm"
   height="275.82541mm"
   viewBox="0 0 194.53145 275.82541"
   version="1.1"
   id="svg6951"
   inkscape:version="0.92.3 (2405546, 2018-03-11)"
   sodipodi:docname="As.svg">
  <defs
     id="defs6945" />
  <sodipodi:namedview
     id="base"
     pagecolor="#ffffff"
     bordercolor="#666666"
     borderopacity="1.0"
     inkscape:pageopacity="0.0"
     inkscape:pageshadow="2"
     inkscape:zoom="0.35"
     inkscape:cx="369.76544"
     inkscape:cy="531.24489"
     inkscape:document-units="mm"
     inkscape:current-layer="layer1"
     showgrid="false"
     inkscape:window-width="1920"
     inkscape:window-height="1052"
     inkscape:window-x="0"
     inkscape:window-y="0"
     inkscape:window-maximized="1" />
  <metadata
     id="metadata6948">
    <rdf:RDF>
      <cc:Work
         rdf:about="">
        <dc:format>image/svg+xml</dc:format>
        <dc:type
           rdf:resource="http://purl.org/dc/dcmitype/StillImage" />
        <dc:title></dc:title>
      </cc:Work>
    </rdf:RDF>
  </metadata>
  <g
     inkscape:label="Layer 1"
     inkscape:groupmode="layer"
     id="layer1"
     transform="translate(-7.9995619,-13.566454)">
    <g
       id="g3150"
       transform="matrix(1.2393696,0,0,-1.2393696,15.407274,13.566454)">
      <path
         d="m 0,0 h 145.008 l 2.304,-0.647 1.944,-1.874 1.223,-2.664 0.504,-3.383 v -205.489 l -0.504,-3.239 -1.223,-2.736 -1.944,-1.872 -2.304,-0.649 H 0 l -2.377,0.649 -1.871,1.872 -1.296,2.736 -0.433,3.239 V -8.568 l 0.433,3.383 1.296,2.664 1.871,1.874 z"
         style="fill:#000000;fill-opacity:1;fill-rule:nonzero;stroke:none"
         id="path3152"
         inkscape:connector-curvature="0" />
    </g>
    <g
       id="g3154"
       transform="matrix(1.2393696,0,0,-1.2393696,18.172917,17.939304)">
      <path
         d="m 0,0 h 140.472 l 2.304,-0.576 1.8,-1.8 1.296,-2.592 0.504,-3.24 v -199.151 l -0.504,-3.169 -1.296,-2.592 -1.8,-1.8 -2.304,-0.648 H 0 l -2.231,0.648 -1.873,1.8 -1.224,2.592 -0.432,3.169 V -8.208 l 0.432,3.24 1.224,2.592 1.873,1.8 z"
         style="fill:#ffffff;fill-opacity:1;fill-rule:nonzero;stroke:none"
         id="path3156"
         inkscape:connector-curvature="0" />
    </g>
    <g
       id="g3158"
       transform="matrix(1.2393696,0,0,-1.2393696,31.468286,66.036324)">
      <path
         d="m 0,0 v -15.192 l -0.791,2.232 -2.664,4.031 -2.592,4.177 -1.297,3.815 0.288,1.584 0.865,1.225 1.152,0.792 1.367,0.36 1.368,-0.289 1.368,-0.719 0.792,-1.152 z m -7.991,6.624 6.696,22.752 H 0 v -4.32 L -2.808,15.911 H 0 V 13.176 H -3.239 L -5.256,6.624 Z m 66.095,-57.816 v 2.015 l -0.791,3.313 -1.944,2.664 -2.808,1.8 -3.313,0.648 -3.096,-0.72 -2.591,-1.944 -1.657,-2.808 -0.719,-3.456 0.719,-4.249 2.017,-4.535 2.735,-4.536 3.24,-4.608 3.241,-4.68 2.736,-4.464 2.088,-4.392 0.791,-3.96 0.793,3.96 2.088,4.392 2.807,4.464 3.168,4.68 3.241,4.608 2.807,4.536 1.945,4.535 0.864,4.249 -0.721,3.456 -1.727,2.808 -2.592,1.944 -3.168,0.72 -1.656,-0.216 -1.657,-0.432 -1.439,-0.792 -1.296,-1.008 -1.152,-1.153 -0.865,-1.511 -0.576,-1.584 -0.143,-1.729 v -2.015 l -0.649,-0.36 z M 0,-15.192 V 0 l 0.145,-0.648 v -0.936 l 0.36,-0.144 0.359,0.144 v 0.936 L 1.152,0.864 2.017,2.016 3.313,2.735 4.752,3.024 6.121,2.664 7.272,1.872 8.064,0.647 8.353,-0.937 7.129,-4.752 4.465,-8.929 1.801,-12.96 0.505,-16.632 Z m 119.736,-135.577 v -2.735 h -2.88 l 2.88,-9.072 v -4.32 h -1.367 l -6.625,22.824 h 2.664 l 2.017,-6.697 z m 0,30.169 v -14.544 l -0.288,-0.073 v -0.935 l -0.288,-1.512 -0.863,-1.152 -1.225,-0.792 -1.511,-0.216 -1.296,0.288 -1.153,0.863 -0.864,1.225 -0.287,1.511 1.296,3.817 2.592,4.103 2.735,4.033 z M 0,29.376 H 1.873 L 8.497,6.624 H 5.832 L 3.816,13.176 H 0 v 2.735 H 2.881 L 0.145,25.56 0,25.056 Z m 119.736,-164.52 v 14.544 l 0.073,0.287 1.295,-3.671 2.592,-4.033 2.664,-4.103 1.296,-3.817 -0.287,-1.511 -0.793,-1.225 -1.223,-0.863 -1.296,-0.288 -1.512,0.216 -1.225,0.792 -0.863,1.152 -0.36,1.512 v 0.935 l -0.288,0.145 z m 0,-31.752 v 4.32 l 0.145,-0.433 2.664,9.505 h -2.809 v 2.735 h 3.817 l 1.944,6.697 h 2.735 l -6.624,-22.824 z"
         style="fill:#ff0000;fill-opacity:1;fill-rule:nonzero;stroke:none"
         id="path3160"
         inkscape:connector-curvature="0" />
    </g>
  </g>
</svg>
