<?xml version="1.0" encoding="UTF-8" standalone="no"?>
<!-- Created with Inkscape (http://www.inkscape.org/) -->

<svg
   xmlns:dc="http://purl.org/dc/elements/1.1/"
   xmlns:cc="http://creativecommons.org/ns#"
   xmlns:rdf="http://www.w3.org/1999/02/22-rdf-syntax-ns#"
   xmlns:svg="http://www.w3.org/2000/svg"
   xmlns="http://www.w3.org/2000/svg"
   xmlns:sodipodi="http://sodipodi.sourceforge.net/DTD/sodipodi-0.dtd"
   xmlns:inkscape="http://www.inkscape.org/namespaces/inkscape"
   width="12.732905mm"
   height="18.045662mm"
   viewBox="0 0 12.732905 18.045662"
   version="1.1"
   id="svg7475"
   inkscape:version="0.92.3 (2405546, 2018-03-11)"
   sodipodi:docname="10.svg">
  <defs
     id="defs7469" />
  <sodipodi:namedview
     id="base"
     pagecolor="#ffffff"
     bordercolor="#666666"
     borderopacity="1.0"
     inkscape:pageopacity="0.0"
     inkscape:pageshadow="2"
     inkscape:zoom="0.35"
     inkscape:cx="-98.794945"
     inkscape:cy="102.67347"
     inkscape:document-units="mm"
     inkscape:current-layer="layer1"
     showgrid="false"
     inkscape:window-width="1920"
     inkscape:window-height="1052"
     inkscape:window-x="0"
     inkscape:window-y="0"
     inkscape:window-maximized="1" />
  <metadata
     id="metadata7472">
    <rdf:RDF>
      <cc:Work
         rdf:about="">
        <dc:format>image/svg+xml</dc:format>
        <dc:type
           rdf:resource="http://purl.org/dc/dcmitype/StillImage" />
        <dc:title></dc:title>
      </cc:Work>
    </rdf:RDF>
  </metadata>
  <g
     inkscape:label="Layer 1"
     inkscape:groupmode="layer"
     id="layer1"
     transform="translate(-131.97283,-157.95336)">
    <g
       id="g3140"
       transform="matrix(0.08108478,0,0,-0.08108478,132.46323,157.95336)">
      <path
         d="m 0,0 h 145.009 l 2.304,-0.647 1.944,-1.874 1.223,-2.664 0.504,-3.383 v -205.489 l -0.504,-3.239 -1.223,-2.736 -1.944,-1.872 -2.304,-0.649 H 0 l -2.376,0.649 -1.872,1.872 -1.296,2.736 -0.504,3.239 V -8.568 l 0.504,3.383 1.296,2.664 1.872,1.874 z"
         style="fill:#000000;fill-opacity:1;fill-rule:nonzero;stroke:none"
         id="path3142"
         inkscape:connector-curvature="0" />
    </g>
    <g
       id="g3144"
       transform="matrix(0.08108478,0,0,-0.08108478,132.64425,158.23945)">
      <path
         d="m 0,0 h 140.472 l 2.304,-0.576 1.799,-1.8 1.297,-2.592 0.504,-3.24 v -199.151 l -0.504,-3.169 -1.297,-2.592 -1.799,-1.8 -2.304,-0.648 H 0 l -2.232,0.648 -1.872,1.8 -1.224,2.592 -0.433,3.169 V -8.208 l 0.433,3.24 1.224,2.592 1.872,1.8 z"
         style="fill:#ffffff;fill-opacity:1;fill-rule:nonzero;stroke:none"
         id="path3146"
         inkscape:connector-curvature="0" />
    </g>
    <path
       d="m 132.74929,160.68565 h 0.1693 v -1.68137 h -0.1693 z m 0.77654,0.37356 v 0.96337 l -0.11684,0.1693 -0.0876,0.26847 -0.0876,-0.26847 -0.19266,-0.28615 -0.19265,-0.29766 -0.0934,-0.28031 0.0292,-0.11092 0.0527,-0.0876 0.0817,-0.0642 0.10506,-0.0233 0.0994,0.0175 0.0933,0.0585 0.0585,0.0876 0.0233,0.105 v 0.0643 l 0.0234,0.0117 0.0234,-0.0117 v -0.0643 l 0.0234,-0.105 0.0642,-0.0876 z m 0,-2.08996 v 0.19841 l -0.11684,0.0409 -0.0876,0.12844 -0.0524,0.21601 -0.0175,0.30358 0.0114,0.1869 0.0234,0.16339 0.0409,0.1226 0.0584,0.0934 0.0349,0.0292 0.0292,0.0293 0.041,0.0117 0.0351,0.006 v 0.19849 l -0.0467,-0.006 -0.0467,-0.006 -0.0409,-0.0176 -0.0467,-0.0233 -0.0409,-0.0233 -0.0349,-0.041 -0.0352,-0.0409 -0.0409,-0.0466 -0.0524,-0.12268 -0.0467,-0.14587 -0.0292,-0.16939 -0.0114,-0.19266 0.0114,-0.20425 0.0176,-0.17514 0.0409,-0.15771 0.0466,-0.12844 0.0349,-0.0584 0.0292,-0.0408 0.041,-0.0409 0.0408,-0.035 0.0467,-0.0293 0.0466,-0.0116 0.0584,-0.0117 z m 1.67554,1.69881 v -0.13428 l -0.0409,-0.22761 -0.14019,-0.18106 -0.19267,-0.12252 -0.216,-0.0409 -0.21017,0.0525 -0.17514,0.12269 -0.11671,0.19257 -0.0466,0.23361 0.0466,0.28598 0.13427,0.30359 0.1869,0.3095 0.22178,0.31517 0.216,0.31526 0.1869,0.30358 0.14595,0.29775 0.0524,0.26863 0.0585,-0.26863 0.13419,-0.29775 0.19266,-0.30358 0.21025,-0.31526 0.216,-0.31517 0.19259,-0.3095 0.13428,-0.30359 0.0527,-0.28598 -0.0527,-0.23361 -0.11089,-0.19257 -0.17508,-0.12269 -0.216,-0.0525 -0.21608,0.0409 -0.18683,0.12252 -0.13428,0.18106 -0.0583,0.22761 v 0.13428 l -0.0409,0.0234 z m 0,3.95239 v -0.13419 l -0.0409,-0.22769 -0.14019,-0.18098 -0.19267,-0.11684 -0.216,-0.0466 -0.21017,0.0525 -0.17514,0.12844 -0.11671,0.19266 -0.0466,0.23352 0.0466,0.28023 0.13427,0.30358 0.1869,0.30942 0.22178,0.31534 0.216,0.31518 0.1869,0.30358 0.14595,0.2919 0.0524,0.26856 0.0585,-0.26856 0.13419,-0.2919 0.19266,-0.30358 0.21025,-0.31518 0.216,-0.31534 0.19259,-0.30942 0.13428,-0.30358 0.0527,-0.28023 -0.0527,-0.23352 -0.11089,-0.19266 -0.17508,-0.12844 -0.216,-0.0525 -0.21608,0.0409 -0.18683,0.1226 -0.13428,0.18098 -0.0583,0.22769 v 0.13419 l -0.0409,0.0234 z m 0,4.81644 v 0.13435 l -0.0409,0.22761 -0.14019,0.18106 -0.19267,0.11676 -0.216,0.0466 -0.21017,-0.0525 -0.17514,-0.12843 -0.11671,-0.1869 -0.0466,-0.23353 0.0466,-0.28607 0.13427,-0.3035 0.1869,-0.30358 0.22178,-0.32109 0.216,-0.3095 0.1869,-0.30359 0.14595,-0.28598 0.0524,-0.27439 0.0585,0.27439 0.13419,0.28598 0.19266,0.30359 0.21025,0.3095 0.216,0.32109 0.19259,0.30358 0.13428,0.3035 0.0527,0.28607 -0.0527,0.23353 -0.11089,0.1869 -0.17508,0.12843 -0.216,0.0525 -0.21608,-0.0409 -0.18683,-0.12252 -0.13428,-0.18106 -0.0583,-0.22761 v -0.13435 l -0.0409,-0.0291 z m 0,3.95831 v 0.13428 l -0.0409,0.22769 -0.14019,0.17514 -0.19267,0.12252 -0.216,0.0409 -0.21017,-0.0467 -0.17514,-0.12844 -0.11671,-0.19266 -0.0466,-0.23352 0.0466,-0.28023 0.13427,-0.30358 0.1869,-0.30934 0.22178,-0.31526 0.216,-0.30942 0.1869,-0.30366 0.14595,-0.29191 0.0524,-0.26855 0.0585,0.26855 0.13419,0.29191 0.19266,0.30366 0.21025,0.30942 0.216,0.31526 0.19259,0.30934 0.13428,0.30358 0.0527,0.28023 -0.0527,0.23352 -0.11089,0.19266 -0.17508,0.12844 -0.216,0.0467 -0.21608,-0.0409 -0.18683,-0.12252 -0.13428,-0.17514 -0.0583,-0.22769 v -0.13428 l -0.0409,-0.0293 z m 3.08835,-10.42109 v -0.1342 l -0.0527,-0.22777 -0.13419,-0.18098 -0.19266,-0.11676 -0.21608,-0.0467 -0.21018,0.0467 -0.17507,0.12844 -0.11684,0.19849 -0.0467,0.22769 0.0525,0.29191 0.13428,0.29774 0.18098,0.30942 0.22192,0.31534 0.21602,0.31525 0.19257,0.29767 0.13428,0.29198 0.0585,0.27431 0.0524,-0.27431 0.13427,-0.29198 0.19266,-0.29767 0.21609,-0.31525 0.21601,-0.31534 0.18674,-0.30942 0.13435,-0.29774 0.0524,-0.29191 -0.0467,-0.22769 -0.11089,-0.19849 -0.18105,-0.12844 -0.21018,-0.0467 -0.21601,0.0409 -0.19265,0.1226 -0.13428,0.18098 -0.0524,0.22777 v 0.13419 l -0.0409,0.0293 z m 0,7.68878 v 0.13428 l -0.0527,0.2336 -0.13419,0.17514 -0.19266,0.12252 -0.21608,0.0409 -0.21018,-0.0525 -0.17507,-0.12259 -0.11684,-0.19266 -0.0467,-0.23352 0.0525,-0.28599 0.13428,-0.29782 0.18098,-0.31526 0.22192,-0.30942 0.21602,-0.31526 0.19257,-0.30358 0.13428,-0.29182 0.0585,-0.26856 0.0524,0.26856 0.13427,0.29182 0.19266,0.30358 0.21609,0.31526 0.21601,0.30942 0.18674,0.31526 0.13435,0.29782 0.0524,0.28599 -0.0467,0.23352 -0.11089,0.19266 -0.18105,0.12259 -0.21018,0.0525 -0.21601,-0.0409 -0.19265,-0.12252 -0.13428,-0.17514 -0.0524,-0.2336 v -0.13428 l -0.0409,-0.0234 z m 3.09419,-9.99483 v -0.13428 l -0.0467,-0.22761 -0.13435,-0.18106 -0.19265,-0.12252 -0.21602,-0.0409 -0.21017,0.0525 -0.17514,0.12269 -0.11671,0.19257 -0.0467,0.23361 0.0467,0.28598 0.13419,0.30359 0.18683,0.3095 0.22185,0.31517 0.21601,0.31526 0.18681,0.30358 0.14013,0.29775 0.0527,0.26863 0.0584,-0.26863 0.13427,-0.29775 0.19842,-0.30358 0.21025,-0.31526 0.21601,-0.31517 0.19257,-0.3095 0.13429,-0.30359 0.0467,-0.28598 -0.0467,-0.23361 -0.11672,-0.19257 -0.17514,-0.12269 -0.21025,-0.0525 -0.21593,0.0409 -0.19274,0.12252 -0.13419,0.18106 -0.0527,0.22761 v 0.13428 l -0.0466,0.0234 z m 0,3.95239 v -0.13419 l -0.0467,-0.22769 -0.13435,-0.18098 -0.19265,-0.11684 -0.21602,-0.0466 -0.21017,0.0525 -0.17514,0.12844 -0.11671,0.19266 -0.0467,0.23352 0.0467,0.28023 0.13419,0.30358 0.18683,0.30942 0.22185,0.31534 0.21601,0.31518 0.18681,0.30358 0.14013,0.2919 0.0527,0.26856 0.0584,-0.26856 0.13427,-0.2919 0.19842,-0.30358 0.21025,-0.31518 0.21601,-0.31534 0.19257,-0.30942 0.13429,-0.30358 0.0467,-0.28023 -0.0467,-0.23352 -0.11672,-0.19266 -0.17514,-0.12844 -0.21025,-0.0525 -0.21593,0.0409 -0.19274,0.1226 -0.13419,0.18098 -0.0527,0.22769 v 0.13419 l -0.0466,0.0234 z m 0,4.81644 v 0.13435 l -0.0467,0.22761 -0.13435,0.18106 -0.19265,0.11676 -0.21602,0.0466 -0.21017,-0.0525 -0.17514,-0.12843 -0.11671,-0.1869 -0.0467,-0.23353 0.0467,-0.28607 0.13419,-0.3035 0.18683,-0.30358 0.22185,-0.32109 0.21601,-0.3095 0.18681,-0.30359 0.14013,-0.28598 0.0527,-0.27439 0.0584,0.27439 0.13427,0.28598 0.19842,0.30359 0.21025,0.3095 0.21601,0.32109 0.19257,0.30358 0.13429,0.3035 0.0467,0.28607 -0.0467,0.23353 -0.11672,0.1869 -0.17514,0.12843 -0.21025,0.0525 -0.21593,-0.0409 -0.19274,-0.12252 -0.13419,-0.18106 -0.0527,-0.22761 v -0.13435 l -0.0466,-0.0291 z m 0,3.95831 v 0.13428 l -0.0467,0.22769 -0.13435,0.17514 -0.19265,0.12252 -0.21602,0.0409 -0.21017,-0.0467 -0.17514,-0.12844 -0.11671,-0.19266 -0.0467,-0.23352 0.0467,-0.28023 0.13419,-0.30358 0.18683,-0.30934 0.22185,-0.31526 0.21601,-0.30942 0.18681,-0.30366 0.14013,-0.29191 0.0527,-0.26855 0.0584,0.26855 0.13427,0.29191 0.19842,0.30366 0.21025,0.30942 0.21601,0.31526 0.19257,0.30934 0.13429,0.30358 0.0467,0.28023 -0.0467,0.23352 -0.11672,0.19266 -0.17514,0.12844 -0.21025,0.0467 -0.21593,-0.0409 -0.19274,-0.12252 -0.13419,-0.17514 -0.0527,-0.22769 v -0.13428 l -0.0466,-0.0293 z m -7.85808,-12.69795 v -0.1985 h 0.006 l 0.0351,-0.006 0.0408,-0.0116 0.0351,-0.0234 0.0292,-0.0291 0.0583,-0.0877 0.0409,-0.12836 0.0292,-0.15771 0.006,-0.18682 v -0.20425 l -0.0233,-0.1693 -0.0409,-0.14012 -0.0527,-0.10509 -0.0349,-0.041 -0.0351,-0.0233 -0.0409,-0.0176 h -0.0466 -0.006 v -0.19843 h 0.0758 l 0.0642,0.0174 0.0642,0.0351 0.0527,0.0409 0.0524,0.0641 0.0409,0.0643 0.0291,0.0817 0.0292,0.0876 0.0409,0.22761 0.006,0.27439 -0.006,0.20433 -0.0234,0.17514 -0.0467,0.14604 -0.0582,0.11668 -0.041,0.0409 -0.0351,0.0409 -0.0351,0.0409 -0.0408,0.0234 -0.0409,0.0233 -0.0467,0.0118 -0.0408,0.006 z m 0,1.32533 v -0.96337 l 0.0991,-0.0175 0.0994,0.0233 0.0816,0.0642 0.0525,0.0876 0.0292,0.11092 -0.0876,0.28031 -0.19266,0.29767 z m 9.70877,10.10567 v 0.88164 l -0.0467,0.006 -0.0994,-0.0176 -0.0818,-0.0642 -0.0583,-0.0934 -0.0234,-0.11093 0.0876,-0.27431 0.1985,-0.29198 z m 0,1.29022 -0.0409,0.006 -0.0409,0.0118 -0.0466,0.0117 -0.0409,0.0175 -0.0409,0.0292 -0.0349,0.0351 -0.0352,0.0408 -0.0351,0.0468 -0.0583,0.11085 -0.0467,0.14604 -0.0234,0.1809 -0.0114,0.20441 0.0114,0.27431 0.0351,0.22185 0.0292,0.0934 0.0292,0.0817 0.0409,0.0642 0.0525,0.0584 0.0524,0.0467 0.0642,0.035 0.0642,0.0117 0.076,0.006 v -0.19858 h -0.006 l -0.0467,-0.006 -0.0409,-0.0176 -0.0349,-0.0234 -0.0292,-0.035 -0.0584,-0.10509 -0.0409,-0.14019 -0.0114,-0.16931 -0.0114,-0.21017 0.0114,-0.18674 0.0234,-0.15771 0.0466,-0.12252 0.0525,-0.0935 0.0292,-0.0234 0.0408,-0.0292 0.0349,-0.0117 h 0.0352 0.006 z m 0.77638,0.0176 h -0.1693 v 1.68138 h 0.1693 z m -0.77638,-0.42618 v -0.88163 l 0.16346,-0.2568 0.0934,-0.26279 0.0875,0.26279 0.19266,0.29183 0.19274,0.29198 0.0818,0.27431 -0.0176,0.11093 -0.0524,0.0934 -0.0818,0.0642 -0.0992,0.0176 -0.10507,-0.0176 -0.0934,-0.0525 -0.0642,-0.0934 -0.0175,-0.10509 v -0.0641 l -0.0233,-0.0117 -0.0292,0.0117 v 0.0641 l -0.0176,0.10509 -0.0585,0.0934 -0.0934,0.0525 z m 0.47289,1.24936 -0.0114,-0.1985 -0.0292,-0.16938 -0.0409,-0.14588 -0.0584,-0.11676 -0.0351,-0.0468 -0.0408,-0.0467 -0.0352,-0.0349 -0.0409,-0.0234 -0.0408,-0.0292 -0.0467,-0.0116 -0.0467,-0.0118 -0.0409,-0.006 h -0.006 v 0.20434 h 0.0351 l 0.0409,0.0117 0.0349,0.0292 0.0292,0.0351 0.0584,0.0876 0.0467,0.12843 0.0234,0.15171 0.0114,0.19274 -0.0233,0.3035 -0.0525,0.21601 -0.0818,0.12844 -0.12253,0.0467 v 0.19858 h 0.006 l 0.0525,-0.006 0.0583,-0.0117 0.0467,-0.0117 0.0467,-0.0292 0.0467,-0.0292 0.0408,-0.0408 0.0234,-0.0468 0.0351,-0.0584 0.0466,-0.12836 0.0409,-0.15771 0.0233,-0.17515 z"
       style="fill:#ff0000;fill-opacity:1;fill-rule:nonzero;stroke:none;stroke-width:0.08108479"
       id="path3148"
       inkscape:connector-curvature="0" />
  </g>
</svg>
