<?xml version="1.0" encoding="UTF-8" standalone="no"?>
<!-- Created with Inkscape (http://www.inkscape.org/) -->

<svg
   xmlns:dc="http://purl.org/dc/elements/1.1/"
   xmlns:cc="http://creativecommons.org/ns#"
   xmlns:rdf="http://www.w3.org/1999/02/22-rdf-syntax-ns#"
   xmlns:svg="http://www.w3.org/2000/svg"
   xmlns="http://www.w3.org/2000/svg"
   xmlns:sodipodi="http://sodipodi.sourceforge.net/DTD/sodipodi-0.dtd"
   xmlns:inkscape="http://www.inkscape.org/namespaces/inkscape"
   width="12.662848mm"
   height="17.946413mm"
   viewBox="0 0 12.662848 17.946413"
   version="1.1"
   id="svg8207"
   inkscape:version="0.92.3 (2405546, 2018-03-11)"
   sodipodi:docname="Q.svg">
  <defs
     id="defs8201" />
  <sodipodi:namedview
     id="base"
     pagecolor="#ffffff"
     bordercolor="#666666"
     borderopacity="1.0"
     inkscape:pageopacity="0.0"
     inkscape:pageshadow="2"
     inkscape:zoom="0.35"
     inkscape:cx="-424.64165"
     inkscape:cy="313.91448"
     inkscape:document-units="mm"
     inkscape:current-layer="layer1"
     showgrid="false"
     inkscape:window-width="1920"
     inkscape:window-height="1052"
     inkscape:window-x="0"
     inkscape:window-y="0"
     inkscape:window-maximized="1" />
  <metadata
     id="metadata8204">
    <rdf:RDF>
      <cc:Work
         rdf:about="">
        <dc:format>image/svg+xml</dc:format>
        <dc:type
           rdf:resource="http://purl.org/dc/dcmitype/StillImage" />
        <dc:title></dc:title>
      </cc:Work>
    </rdf:RDF>
  </metadata>
  <g
     inkscape:label="Layer 1"
     inkscape:groupmode="layer"
     id="layer1"
     transform="translate(-218.18644,-213.94346)">
    <g
       id="g2620"
       transform="matrix(0.08108478,0,0,-0.08108478,218.671,213.94346)">
      <path
         d="m 0,0 h 144.289 l 2.304,-0.648 1.944,-1.8 1.224,-2.664 0.431,-3.384 v -204.337 l -0.431,-3.384 -1.224,-2.664 -1.944,-1.8 -2.304,-0.648 H 0 l -2.304,0.648 -1.872,1.8 -1.296,2.664 -0.504,3.384 V -8.496 l 0.504,3.384 1.296,2.664 1.872,1.8 z"
         style="fill:#000000;fill-opacity:1;fill-rule:nonzero;stroke:none"
         id="path2622"
         inkscape:connector-curvature="0" />
    </g>
    <g
       id="g2624"
       transform="matrix(0.08108478,0,0,-0.08108478,218.887,214.22377)">
      <path
         d="m 0,0 h 139.752 l 2.232,-0.647 1.945,-1.728 1.296,-2.592 0.359,-3.168 v -198.144 l -0.359,-3.097 -1.296,-2.663 -1.945,-1.729 -2.232,-0.648 H 0 l -2.304,0.648 -1.656,1.729 -1.296,2.663 -0.432,3.097 V -8.135 l 0.432,3.168 1.296,2.592 1.656,1.728 z"
         style="fill:#ffffff;fill-opacity:1;fill-rule:nonzero;stroke:none"
         id="path2626"
         inkscape:connector-curvature="0" />
    </g>
    <path
       d="m 220.08391,215.77088 h 8.8564 v 13.8946 h -8.8564 z"
       style="fill:#000000;fill-opacity:1;fill-rule:nonzero;stroke:none;stroke-width:0.08108479"
       id="path2628"
       inkscape:connector-curvature="0" />
    <path
       d="m 220.20067,215.89348 h 8.61696 v 13.63773 h -8.61696 z"
       style="fill:#ffffff;fill-opacity:1;fill-rule:nonzero;stroke:none;stroke-width:0.08108479"
       id="path2630"
       inkscape:connector-curvature="0" />
    <g
       id="g2632"
       transform="matrix(0.08108478,0,0,-0.08108478,221.63682,216.84509)">
      <path
         d="m 0,0 v 1.369 l -0.577,2.592 -1.512,1.943 -2.159,1.368 -2.376,0.361 -2.448,-0.504 -1.872,-1.368 -1.297,-2.088 -0.575,-2.664 0.575,-3.097 1.512,-3.311 2.088,-3.456 2.449,-3.384 2.447,-3.456 2.089,-3.384 1.511,-3.24 0.577,-2.952 0.719,2.952 1.512,3.24 2.16,3.384 2.376,3.456 2.448,3.384 2.088,3.456 1.512,3.311 0.505,3.097 L 13.247,3.673 11.951,5.761 10.007,7.129 7.704,7.633 5.184,7.272 3.023,5.904 1.512,3.961 0.936,1.369 V 0 L 0.432,-0.359 Z"
         style="fill:#ff0000;fill-opacity:1;fill-rule:nonzero;stroke:none"
         id="path2634"
         inkscape:connector-curvature="0" />
    </g>
    <g
       id="g2636"
       transform="matrix(0.08108478,0,0,-0.08108478,227.42815,228.57958)">
      <path
         d="m 0,0 v -1.44 l -0.504,-2.449 -1.512,-1.943 -2.015,-1.225 -2.376,-0.504 -2.305,0.504 -1.872,1.44 -1.296,1.945 -0.503,2.592 0.575,3.096 1.369,3.095 2.087,3.385 2.305,3.383 2.376,3.312 2.087,3.241 1.513,3.095 0.504,2.952 L 1.009,21.527 2.521,18.432 4.608,15.191 7.057,11.879 9.36,8.496 11.448,5.111 12.889,2.016 13.465,-1.08 12.961,-3.672 11.664,-5.617 9.792,-7.057 7.488,-7.561 5.185,-7.057 3.024,-5.832 1.513,-3.889 1.009,-1.44 V 0 L 0.505,0.287 Z"
         style="fill:#ff0000;fill-opacity:1;fill-rule:nonzero;stroke:none"
         id="path2638"
         inkscape:connector-curvature="0" />
    </g>
    <g
       id="g2640"
       transform="matrix(0.08108478,0,0,-0.08108478,225.75846,229.59544)">
      <path
         d="m 0,0 1.152,2.016 -0.431,2.376 -0.576,3.095 0.359,2.953 1.08,2.952 1.225,2.807 1.08,1.945 1.007,1.872 1.081,1.656 1.08,1.727 0.576,0.792 0.576,0.792 0.503,0.649 0.433,0.72 1.943,2.879 1.081,3.096 0.72,3.385 v 3.384 l 4.032,2.016 3.6,2.016 3.383,2.088 3.097,2.16 2.951,2.231 2.809,2.449 2.807,2.519 2.809,2.737 v 42.192 l -1.513,2.016 -1.44,2.16 -1.44,2.088 -1.584,2.088 -1.511,2.088 -1.512,2.16 -1.513,2.088 -1.44,1.944 -0.215,2.304 0.503,1.872 1.944,-1.584 h 0.504 l 0.432,0.144 0.36,0.144 0.432,0.36 0.648,2.232 -0.36,2.736 -0.575,2.592 v 2.592 l -0.937,-1.873 -0.072,-2.088 -0.144,-2.088 -1.08,-1.656 -0.647,0.289 -0.505,0.72 0.289,3.743 -0.433,3.889 -0.647,3.672 -1.441,3.527 0.289,0.865 0.503,0.791 -0.576,2.088 2.376,-0.647 -0.144,0.576 -0.504,0.432 -0.503,0.432 -0.433,0.504 0.216,0.216 h 0.505 0.575 l 0.504,0.216 0.36,0.216 0.36,0.36 -0.936,2.951 -0.36,0.361 -0.503,0.072 -0.433,-0.216 -0.288,-0.217 -0.576,-0.359 -0.432,-0.145 0.216,2.449 -1.584,-1.728 -0.288,0.935 -0.288,0.865 -0.288,0.143 -0.216,0.145 -2.232,-0.288 -0.575,-0.504 -0.288,-0.648 0.719,-1.8 -2.519,0.431 1.871,-2.159 -0.432,-0.288 H 18.217 17.641 17.28 l -0.359,-0.288 -0.36,-0.504 0.576,-1.872 0.431,-0.432 0.577,-0.36 1.08,0.504 0.288,-0.144 0.287,-0.504 -0.287,-0.576 -0.073,-0.721 0.504,0.217 0.361,0.504 0.431,0.576 0.361,0.504 0.431,-0.072 0.288,-0.432 -0.215,-0.36 -0.144,-0.433 0.575,-1.151 1.368,-0.288 1.296,-3.456 0.865,-3.672 0.36,-3.673 -0.288,-3.743 h -0.145 l -0.216,-0.216 -0.288,0.216 h -0.288 l -0.792,1.296 -0.216,1.584 v 1.8 l -0.36,1.584 -1.871,-5.184 -0.505,-0.216 -0.504,0.648 -0.504,0.647 -0.504,0.649 -0.432,0.648 -0.432,0.648 4.536,3.672 -0.504,0.864 -0.576,0.792 -0.648,0.792 -0.72,1.007 -8.495,12.961 0.935,1.44 0.865,1.224 0.863,0.864 0.937,0.648 1.08,0.432 1.152,0.359 1.439,0.289 1.657,0.287 -1.801,3.601 -1.368,4.176 -0.216,4.176 1.728,3.959 -0.503,0.577 -0.792,0.36 -47.088,0.288 -0.792,-2.736 0.215,-2.88 -0.792,-5.256 -1.584,-5.112 -2.304,-4.68 -2.879,-4.104 -2.089,-3.096 -1.871,-3.816 -0.937,-4.104 0.216,-4.177 -4.103,-2.231 -3.672,-2.088 -3.457,-2.088 -3.312,-2.017 -3.095,-2.303 -3.025,-2.232 -3.096,-2.448 -3.023,-2.664 -0.577,-38.592 0.577,-2.017 13.247,-19.08 -0.216,-1.727 -0.144,-0.504 V 50.04 l -0.648,0.144 -0.288,0.504 -0.359,0.432 -0.649,0.216 h -1.08 l -1.223,-1.512 -0.145,-2.304 0.649,-3.457 0.36,-3.311 0.863,1.727 0.072,2.016 0.145,2.017 0.647,1.584 0.216,0.288 0.288,0.072 0.288,-0.072 0.36,-0.288 0.144,-3.888 0.36,-4.032 0.577,-4.032 1.439,-3.96 v -0.36 -0.072 l -0.36,-0.216 -0.288,-0.216 -0.144,-1.08 0.649,-1.081 -0.649,-0.287 -0.719,0.216 -0.649,0.288 -0.72,0.072 1.512,-1.728 -1.8,-0.864 -0.143,-0.504 -0.072,-0.865 0.215,-0.215 0.288,-0.289 v -1.007 l 0.432,-0.577 0.721,-0.287 1.151,0.576 0.288,-0.073 0.288,-0.503 -0.288,-0.576 0.145,-0.648 0.72,0.648 0.792,0.648 0.144,-0.288 0.215,-0.649 0.289,-0.575 0.72,-0.432 0.647,0.072 0.432,0.431 0.432,0.145 0.433,-0.145 0.359,0.072 0.145,0.289 0.287,0.792 -0.287,1.08 0.143,0.288 0.361,0.288 1.943,-0.432 -2.376,2.088 0.649,0.287 0.935,-0.143 0.649,0.431 0.504,0.792 -0.792,2.16 -0.577,0.289 -0.647,-0.144 -0.649,-0.217 -0.576,-0.215 0.361,2.088 -2.089,-2.16 v 1.944 l -0.432,0.648 -0.72,0.504 -0.864,0.576 -0.504,0.792 -0.288,1.08 -0.359,1.08 -0.793,5.327 -0.215,5.185 0.215,0.36 0.36,0.072 1.009,-1.224 0.287,-1.729 0.216,-1.727 0.577,-1.728 1.511,5.184 0.144,0.288 0.433,0.071 2.231,-3.168 -0.792,-1.223 -1.224,-0.72 -1.224,-0.721 -1.079,-0.935 11.159,-15.336 -0.792,-2.088 -1.008,-1.512 -1.08,-0.936 -1.224,-0.72 -1.224,-0.433 -1.439,-0.359 -1.369,-0.361 -1.512,-0.431 2.089,-3.312 1.296,-3.888 0.215,-4.104 L -48.023,1.728 -48.527,0.792 -48.959,0 Z"
         style="fill:#000000;fill-opacity:1;fill-rule:nonzero;stroke:none"
         id="path2642"
         inkscape:connector-curvature="0" />
    </g>
    <g
       id="g2644"
       transform="matrix(0.08108478,0,0,-0.08108478,225.52495,229.55458)">
      <path
         d="M 0,0 2.808,2.808 2.304,5.256 V 3.024 l -3.455,-2.88 h 0.359 L -0.36,-0.072 -0.216,0 Z"
         style="fill:#000000;fill-opacity:1;fill-rule:nonzero;stroke:none"
         id="path2646"
         inkscape:connector-curvature="0" />
    </g>
    <g
       id="g2648"
       transform="matrix(0.08108478,0,0,-0.08108478,225.20385,229.54294)">
      <path
         d="M 0,0 H 0.432 0.864 L 1.08,0.288 1.512,0.648 2.305,1.08 3.168,1.44 3.96,2.016 4.969,2.521 5.616,3.816 5.256,5.4 4.752,4.68 4.393,3.744 3.96,2.881 3.168,2.16 2.088,1.729 1.297,1.368 0.432,0.864 -0.216,0.145 -0.072,0 Z"
         style="fill:#000000;fill-opacity:1;fill-rule:nonzero;stroke:none"
         id="path2650"
         inkscape:connector-curvature="0" />
    </g>
    <g
       id="g2652"
       transform="matrix(0.08108478,0,0,-0.08108478,225.71174,229.54294)">
      <path
         d="M 0,0 H 0.288 0.721 L 1.08,1.872 -0.215,0 h 0.144 z"
         style="fill:#000000;fill-opacity:1;fill-rule:nonzero;stroke:none"
         id="path2654"
         inkscape:connector-curvature="0" />
    </g>
    <g
       id="g2656"
       transform="matrix(0.08108478,0,0,-0.08108478,223.14886,227.58716)">
      <path
         d="m 0,0 v 2.593 l -0.359,2.519 -0.793,2.376 -1.657,1.8 -1.295,0.721 -1.512,0.504 -1.584,0.215 -1.512,-0.144 2.016,-0.216 1.8,-0.576 L -3.24,8.64 -1.872,7.2 -1.008,5.473 -0.504,3.601 -0.359,1.872 Z"
         style="fill:#000000;fill-opacity:1;fill-rule:nonzero;stroke:none"
         id="path2658"
         inkscape:connector-curvature="0" />
    </g>
    <g
       id="g2660"
       transform="matrix(0.08108478,0,0,-0.08108478,221.45581,226.96247)">
      <path
         d="m 0,0 -1.728,5.76 -0.504,5.904 0.432,6.048 0.936,5.976 0.431,1.224 0.289,1.224 L -1.728,19.584 -2.304,12.815 -1.8,6.12 Z"
         style="fill:#ffff80;fill-opacity:1;fill-rule:nonzero;stroke:none"
         id="path2662"
         inkscape:connector-curvature="0" />
    </g>
    <g
       id="g2664"
       transform="matrix(0.08108478,0,0,-0.08108478,226.51744,226.40787)">
      <path
         d="m 0,0 7.488,3.672 -4.32,2.664 -3.527,1.368 -3.242,1.08 -3.382,1.08 -3.241,0.792 -3.168,0.504 -3.169,0.361 -3.239,0.288 -3.168,0.071 -3.096,-0.071 -3.096,-0.288 -3.096,-0.361 -3.168,-0.647 -3.097,-0.649 -3.167,-0.792 -3.24,-1.008 -3.24,-1.152 -1.368,-0.576 -1.367,-0.648 -1.297,-0.576 -1.224,-0.504 1.728,0.144 1.8,0.144 1.728,0.144 1.8,-0.144 1.872,-0.216 1.727,-0.36 1.657,-0.504 1.511,-0.864 3.817,0.72 3.528,0.504 3.384,0.504 3.24,0.144 2.808,0.072 2.807,-0.072 2.664,-0.144 2.45,-0.215 2.302,-0.361 2.162,-0.504 2.015,-0.504 1.944,-0.504 1.728,-0.72 1.8,-0.647 1.513,-0.504 z"
         style="fill:#c0c0ff;fill-opacity:1;fill-rule:nonzero;stroke:none"
         id="path2666"
         inkscape:connector-curvature="0" />
    </g>
    <g
       id="g2668"
       transform="matrix(0.08108478,0,0,-0.08108478,221.53176,226.15685)">
      <path
         d="M 0,0 0.791,2.017 0.719,4.249 0.215,4.969 -0.793,5.112 -0.36,4.681 0.144,4.249 0.647,3.097 V 1.584 L 0.359,1.369 0,1.584 -0.145,2.809 -0.36,3.816 -0.793,3.961 -1.009,4.177 -0.217,2.16 -0.145,-0.144 0,-0.071 Z"
         style="fill:#ffff80;fill-opacity:1;fill-rule:nonzero;stroke:none"
         id="path2670"
         inkscape:connector-curvature="0" />
    </g>
    <g
       id="g2672"
       transform="matrix(0.08108478,0,0,-0.08108478,221.96956,226.09263)">
      <path
         d="M 0,0 7.416,3.96 V 58.608 L 5.688,63.792 5.399,63.648 5.04,63.792 5.185,64.44 v 0.648 L 3.888,63.792 2.88,61.849 1.944,59.616 1.08,57.385 l -1.152,-9.433 0.864,-9.431 0.792,-9.36 -1.296,-9.36 -1.08,-3.168 -1.8,-2.88 -2.089,-2.521 -2.231,-2.16 0.072,-0.216 0.144,-0.144 1.8,1.225 1.584,1.439 1.44,1.584 1.152,1.656 1.152,1.8 0.792,2.017 0.72,2.16 0.504,2.232 -0.288,10.296 -0.864,10.44 0.216,10.151 3.24,9.792 0.216,0.073 L 5.185,63.504 4.536,61.488 3.672,59.473 3.096,57.385 2.592,55.296 2.088,49.464 2.304,43.2 2.88,37.009 3.384,30.816 3.312,24.913 2.304,19.225 -0.072,14.041 -4.32,9.433 -4.752,9.145 -5.256,8.784 -5.688,8.353 -6.192,7.992 l 5.904,-8.136 0.144,0.073 z"
         style="fill:#ffff80;fill-opacity:1;fill-rule:nonzero;stroke:none"
         id="path2674"
         inkscape:connector-curvature="0" />
    </g>
    <g
       id="g2676"
       transform="matrix(0.08108478,0,0,-0.08108478,227.32306,225.9992)">
      <path
         d="M 0,0 -12.023,31.104 -13.176,31.32 -0.432,-0.432 Z"
         style="fill:#ffff80;fill-opacity:1;fill-rule:nonzero;stroke:none"
         id="path2678"
         inkscape:connector-curvature="0" />
    </g>
    <g
       id="g2680"
       transform="matrix(0.08108478,0,0,-0.08108478,220.99457,226.02842)">
      <path
         d="M 0,0 0.576,4.104 1.944,4.969 2.089,5.256 2.232,5.545 1.656,6.336 0.864,6.841 -0.287,6.553 -0.72,5.4 V 3.889 L -0.504,4.681 0,5.833 0.36,5.977 0.864,6.049 1.44,5.977 1.944,5.833 2.089,5.616 V 5.256 L 1.584,5.112 1.08,5.473 H 0.793 L 0.576,5.256 0.072,4.465 0,3.385 -0.144,3.097 -0.432,2.881 Z"
         style="fill:#ffff80;fill-opacity:1;fill-rule:nonzero;stroke:none"
         id="path2682"
         inkscape:connector-curvature="0" />
    </g>
    <g
       id="g2684"
       transform="matrix(0.08108478,0,0,-0.08108478,221.35652,225.70725)">
      <path
         d="M 0,0 0.072,0.144 0.288,0.288 1.944,0.432 1.368,1.8 0.36,3.168 -0.216,0 h 0.072 z"
         style="fill:#ffffff;fill-opacity:1;fill-rule:nonzero;stroke:none"
         id="path2686"
         inkscape:connector-curvature="0" />
    </g>
    <g
       id="g2688"
       transform="matrix(0.08108478,0,0,-0.08108478,222.71097,224.09014)">
      <path
         d="M 0,0 1.656,0.217 3.168,0.36 4.681,0.576 6.192,0.937 7.561,1.44 8.856,1.944 10.152,2.664 11.16,3.528 0.793,-17.063 1.08,-19.008 12.601,4.465 11.305,3.6 l 1.296,1.44 1.223,1.8 1.008,2.016 0.793,2.16 0.359,0.36 0.145,0.145 17.279,-2.449 12.24,-29.232 h 0.432 l 0.649,-0.144 -12.529,30.241 -18.36,2.376 -0.215,3.095 -0.721,2.88 -1.008,2.448 -1.656,2.016 -2.088,1.584 L 7.488,25.488 4.32,26.137 0.576,26.28 0,30.744 -0.791,33.48 v -54 L 0,-19.943 Z"
         style="fill:#ffff80;fill-opacity:1;fill-rule:nonzero;stroke:none"
         id="path2690"
         inkscape:connector-curvature="0" />
    </g>
    <g
       id="g2692"
       transform="matrix(0.08108478,0,0,-0.08108478,225.60088,225.48545)">
      <path
         d="m 0,0 -9.288,26.568 -11.088,-26.064 0.72,0.288 0.504,1.08 1.224,2.664 1.583,3.817 1.872,4.463 1.8,4.392 1.729,3.816 1.007,2.737 0.361,1.08 L -0.792,0.145 -0.504,0 Z"
         style="fill:#ffc0c0;fill-opacity:1;fill-rule:nonzero;stroke:none"
         id="path2694"
         inkscape:connector-curvature="0" />
    </g>
    <g
       id="g2696"
       transform="matrix(0.08108478,0,0,-0.08108478,221.44417,225.21686)">
      <path
         d="M 0,0 1.295,1.079 0.287,0.432 Z"
         style="fill:#ffffff;fill-opacity:1;fill-rule:nonzero;stroke:none"
         id="path2698"
         inkscape:connector-curvature="0" />
    </g>
    <g
       id="g2700"
       transform="matrix(0.08108478,0,0,-0.08108478,221.29237,225.18186)">
      <path
         d="M 0,0 0.863,3.312 0.288,3.097 -0.217,2.736 -0.721,2.304 -1.225,1.728 0,-0.216 v 0.145 z"
         style="fill:#ffffff;fill-opacity:1;fill-rule:nonzero;stroke:none"
         id="path2702"
         inkscape:connector-curvature="0" />
    </g>
    <g
       id="g2704"
       transform="matrix(0.08108478,0,0,-0.08108478,224.74269,225.07678)">
      <path
         d="M 0,0 0.792,-0.72 2.088,-1.367 H 3.312 L 4.031,-0.287 3.96,1.225 3.023,2.52 1.728,3.385 0.216,4.248 -0.937,3.6 -2.089,2.593 -3.168,1.44 l -0.36,-1.008 0.36,-1.44 0.864,-0.359 1.224,0.359 z"
         style="fill:#ffffff;fill-opacity:1;fill-rule:nonzero;stroke:none"
         id="path2706"
         inkscape:connector-curvature="0" />
    </g>
    <g
       id="g2708"
       transform="matrix(0.08108478,0,0,-0.08108478,221.46745,225.11178)">
      <path
         d="m 0,0 0.433,0.216 0.504,0.216 h 0.288 0.359 l 2.592,3.599 1.801,4.393 0.935,4.752 v 4.752 L 6.769,19.008 6.696,20.016 3.889,19.152 1.152,18.072 -1.296,16.632 -3.6,15.336 -5.327,14.04 -6.768,13.104 -7.632,12.456 -7.775,12.312 0,14.544 0.793,13.752 1.512,12.888 2.304,11.951 2.881,10.944 3.816,9.288 4.465,7.704 1.584,5.256 1.512,5.4 V 5.615 L 3.528,7.344 3.601,7.775 3.528,8.279 2.809,7.344 V 7.128 L 2.736,6.84 2.304,6.912 1.872,7.344 -4.392,3.384 -3.023,5.111 -1.08,6.407 0.793,7.561 2.736,8.855 V 9.792 L 2.089,9.432 1.944,8.568 1.44,8.64 1.008,9.216 -5.76,5.4 H -5.976 L -6.191,5.472 1.584,10.656 1.8,11.088 1.584,11.52 1.512,11.592 1.152,11.52 0.937,11.088 0.793,10.656 0.576,10.584 0.288,10.656 0.216,10.944 0,11.376 -7.416,8.496 -7.632,8.783 -7.416,9 0.576,12.888 -0.072,13.752 -0.576,12.6 -0.72,12.456 -1.008,12.6 -1.296,12.888 -1.368,13.248 -9.936,10.512 -4.104,1.656 1.44,5.4 1.512,5.184 V 4.896 l -1.728,-5.113 0.144,0.145 z"
         style="fill:#ffffff;fill-opacity:1;fill-rule:nonzero;stroke:none"
         id="path2710"
         inkscape:connector-curvature="0" />
    </g>
    <g
       id="g2712"
       transform="matrix(0.08108478,0,0,-0.08108478,220.6034,224.19522)">
      <path
         d="m 0,0 0.864,2.16 0.937,1.872 1.008,1.944 1.007,1.873 1.369,2.088 1.44,1.943 1.439,1.944 1.512,1.872 1.584,1.8 1.585,1.8 1.512,1.801 1.656,1.871 v 0.216 L 15.625,23.257 14.185,21.672 12.528,19.944 11.089,18.288 9.576,16.56 8.064,14.832 6.625,13.032 5.329,11.088 4.033,9.216 2.736,6.984 1.44,4.896 0.433,2.592 -0.287,0 h 0.216 z"
         style="fill:#ffff80;fill-opacity:1;fill-rule:nonzero;stroke:none"
         id="path2714"
         inkscape:connector-curvature="0" />
    </g>
    <g
       id="g2716"
       transform="matrix(0.08108478,0,0,-0.08108478,223.67425,223.59968)">
      <path
         d="m 0,0 1.584,2.52 0.864,2.807 0.145,2.808 -0.361,2.808 -1.151,2.592 -1.225,1.801 -1.295,1.512 -1.441,0.935 -1.656,0.721 -1.871,0.359 -2.305,0.217 -2.663,0.144 V -4.465 l 1.872,0.145 1.728,0.072 1.584,0.287 1.368,0.36 1.367,0.577 1.225,0.792 1.08,1.007 z"
         style="fill:#000000;fill-opacity:1;fill-rule:nonzero;stroke:none"
         id="path2718"
         inkscape:connector-curvature="0" />
    </g>
    <g
       id="g2720"
       transform="matrix(0.08108478,0,0,-0.08108478,227.71423,221.42797)">
      <path
         d="M 0,0 6.049,1.656 5.832,2.088 0.792,0.576 0.576,1.44 0.36,1.368 0,0.792 0.217,0.576 0.36,0.432 0.288,0.072 H 0 L -0.72,0.576 -1.367,1.44 7.416,5.472 7.345,5.544 -0.432,2.448 -0.647,2.736 -0.936,3.24 -1.584,2.088 -2.088,2.448 -2.52,3.097 5.185,8.208 V 8.424 L -1.367,4.464 -2.088,5.472 V 5.112 L -2.016,4.752 -2.304,4.464 -2.736,4.176 H -3.023 -3.384 L -3.456,4.393 -3.6,4.752 3.673,10.44 H 3.313 L -2.304,6.264 -2.592,6.624 -2.88,7.129 -3.815,5.688 -4.176,6.049 -4.32,6.624 -2.663,8.208 -4.607,6.624 -3.815,4.752 -2.88,2.952 -1.728,1.368 -0.432,0 h 0.361 z"
         style="fill:#000000;fill-opacity:1;fill-rule:nonzero;stroke:none"
         id="path2722"
         inkscape:connector-curvature="0" />
    </g>
    <g
       id="g2724"
       transform="matrix(0.08108478,0,0,-0.08108478,227.73759,220.54054)">
      <path
         d="M 0,0 1.584,6.336 2.088,12.96 1.584,19.44 -0.359,25.848 1.368,19.512 1.729,12.96 1.08,6.264 l -1.584,-6.48 0.216,0.072 z"
         style="fill:#ffff80;fill-opacity:1;fill-rule:nonzero;stroke:none"
         id="path2726"
         inkscape:connector-curvature="0" />
    </g>
    <g
       id="g2728"
       transform="matrix(0.08108478,0,0,-0.08108478,227.78431,219.95086)">
      <path
         d="M 0,0 0.216,2.951 H -0.216 L -0.72,2.664 H -1.368 L -2.088,2.879 0,-0.145 Z"
         style="fill:#ffffff;fill-opacity:1;fill-rule:nonzero;stroke:none"
         id="path2730"
         inkscape:connector-curvature="0" />
    </g>
    <g
       id="g2732"
       transform="matrix(0.08108478,0,0,-0.08108478,228.07618,219.93344)">
      <path
         d="M 0,0 H 0.36 0.793 L 1.8,2.449 1.368,5.473 1.08,6.408 0.793,7.129 V 4.537 L -0.216,2.305 -0.576,2.16 -0.72,2.088 -0.791,1.656 -1.08,1.513 -0.791,0.576 -0.144,0 h 0.073 z"
         style="fill:#ffff80;fill-opacity:1;fill-rule:nonzero;stroke:none"
         id="path2734"
         inkscape:connector-curvature="0" />
    </g>
    <g
       id="g2736"
       transform="matrix(0.08108478,0,0,-0.08108478,228.07618,219.84)">
      <path
         d="m 0,0 h 0.433 l 0.36,0.217 0.575,1.008 V 2.521 L 1.08,1.512 0.793,0.504 -0.359,0 h 0.215 z"
         style="fill:#000000;fill-opacity:1;fill-rule:nonzero;stroke:none"
         id="path2738"
         inkscape:connector-curvature="0" />
    </g>
    <g
       id="g2740"
       transform="matrix(0.08108478,0,0,-0.08108478,227.67337,219.65899)">
      <path
         d="M 0,0 H 0.072 0.216 L 0.072,0.359 0.433,0.792 -0.288,2.088 -0.575,5.256 -1.512,3.24 -1.44,1.008 -1.08,0.359 -0.432,0 h 0.288 z"
         style="fill:#ffff80;fill-opacity:1;fill-rule:nonzero;stroke:none"
         id="path2742"
         inkscape:connector-curvature="0" />
    </g>
    <g
       id="g2744"
       transform="matrix(0.08108478,0,0,-0.08108478,227.65586,219.58899)">
      <path
         d="M 0,0 -0.504,1.225 -0.647,2.664 -0.216,0 0,-0.071 Z"
         style="fill:#000000;fill-opacity:1;fill-rule:nonzero;stroke:none"
         id="path2746"
         inkscape:connector-curvature="0" />
    </g>
    <g
       id="g2748"
       transform="matrix(0.08108478,0,0,-0.08108478,227.16549,219.23282)">
      <path
         d="m 0,0 -18.144,26.064 -0.288,-5.472 0.144,-5.544 1.439,-5.185 3.601,-4.175 1.08,-0.936 1.224,-0.576 1.368,-0.432 1.368,-0.431 1.512,-0.217 1.368,-0.216 h 1.296 L -2.808,2.952 -3.097,2.88 -3.816,2.52 -5.688,2.304 -7.56,2.447 l -1.872,0.362 -1.728,0.575 -1.656,0.792 -1.512,0.792 -1.441,1.08 -1.295,1.296 -2.232,6.192 0.072,6.84 -0.216,6.479 -3.024,5.256 0.287,-4.248 -0.359,-4.391 -0.36,-4.392 v -4.392 l 0.792,-3.959 1.44,-3.458 2.088,-3.095 2.88,-2.52 1.727,-0.864 1.657,-0.576 1.728,-0.575 1.728,-0.217 1.872,-0.145 h 2.16 l 2.303,0.217 z"
         style="fill:#ffffff;fill-opacity:1;fill-rule:nonzero;stroke:none"
         id="path2750"
         inkscape:connector-curvature="0" />
    </g>
    <g
       id="g2752"
       transform="matrix(0.08108478,0,0,-0.08108478,225.30901,218.64321)">
      <path
         d="m 0,0 -0.577,-0.287 -1.512,-0.36 -2.231,-0.577 -2.881,-0.215 -3.312,-0.073 -3.672,0.288 -3.744,0.792 -3.744,1.44 -1.872,-0.504 -0.359,0.144 0.504,0.432 0.647,0.576 0.505,1.657 0.719,1.583 0.648,1.584 0.649,1.944 -0.649,-3.239 -0.648,-2.017 -0.072,-0.791 0.577,-0.072 1.44,0.504 2.592,1.08 -1.513,2.807 -1.512,3.025 -1.296,3.383 -0.791,3.457 -1.873,-4.321 -2.232,-3.96 -1.871,-4.248 -0.793,-4.823 h 0.648 l 0.577,0.144 0.648,0.215 0.504,0.288 v 1.657 l 0.432,1.655 0.719,1.584 0.937,1.44 0.791,1.153 0.576,1.296 0.433,1.08 0.431,1.152 -0.431,-2.017 -1.153,-2.879 -0.792,-1.296 -0.504,-1.728 v -1.44 l 0.145,-1.224 1.008,0.359 0.359,-0.288 -4.68,-1.944 3.528,-1.439 3.816,-0.936 4.177,-0.648 4.103,-0.361 h 4.105 l 3.815,0.072 3.672,0.504 3.097,0.72 z"
         style="fill:#ffffff;fill-opacity:1;fill-rule:nonzero;stroke:none"
         id="path2754"
         inkscape:connector-curvature="0" />
    </g>
    <g
       id="g2756"
       transform="matrix(0.08108478,0,0,-0.08108478,225.25057,218.56149)">
      <path
         d="M 0,0 -0.432,3.024 -1.584,2.449 -2.664,1.801 -3.744,1.369 -4.752,0.865 -5.904,0.505 -7.056,0 l -1.08,-0.359 -1.296,-0.36 1.224,-0.144 h 1.152 l 1.224,0.072 1.152,0.072 1.224,0.215 1.152,0.145 1.152,0.215 z"
         style="fill:#ffffff;fill-opacity:1;fill-rule:nonzero;stroke:none"
         id="path2758"
         inkscape:connector-curvature="0" />
    </g>
    <g
       id="g2760"
       transform="matrix(0.08108478,0,0,-0.08108478,223.66847,218.51477)">
      <path
         d="m 0,0 1.944,-0.576 1.8,-0.504 1.584,-0.215 H 6.696 L 6.048,-0.936 5.328,-0.287 4.607,0.504 4.031,1.369 3.023,0.864 2.016,0.576 1.008,0.217 Z"
         style="fill:#ffffff;fill-opacity:1;fill-rule:nonzero;stroke:none"
         id="path2762"
         inkscape:connector-curvature="0" />
    </g>
    <g
       id="g2764"
       transform="matrix(0.08108478,0,0,-0.08108478,226.65752,218.66063)">
      <path
         d="M 0,0 0.36,0.071 H 0.792 L -1.151,0.215 -3.023,0.791 -4.68,1.871 -6.047,3.383 -6.983,5.256 -7.416,7.344 -7.704,9.359 -7.991,11.375 -8.063,8.639 -7.775,5.975 -6.983,3.383 -5.184,1.295 -4.031,0.504 -2.808,0.215 -1.439,0.071 Z"
         style="fill:#000000;fill-opacity:1;fill-rule:nonzero;stroke:none"
         id="path2766"
         inkscape:connector-curvature="0" />
    </g>
    <g
       id="g2768"
       transform="matrix(0.08108478,0,0,-0.08108478,224.25221,218.52055)">
      <path
         d="m 0,0 2.089,-0.144 2.088,0.432 1.872,0.576 1.943,0.791 0.864,0.504 0.865,0.433 0.863,0.432 0.721,0.432 0.576,6.48 0.864,6.768 0.288,3.24 -0.505,3.383 -1.223,3.025 -1.872,2.303 -1.08,0.649 -1.296,0.504 -1.225,0.288 -1.295,0.432 -1.224,0.287 -1.224,0.289 -1.152,0.504 -0.937,0.576 -0.936,0.215 -0.648,0.217 -1.584,-1.297 -2.087,-0.791 -1.873,-1.08 -0.863,-2.016 0.143,-1.8 v -1.584 l 0.288,-0.216 0.073,-0.072 1.296,0.216 1.295,0.288 1.296,0.143 1.008,-0.143 0.576,-0.216 L -1.295,23.76 -0.72,23.472 0,22.968 -0.215,24.624 -0.72,26.063 -1.512,26.928 -2.304,27.36 -3.6,27.144 -5.04,26.928 -6.407,27 l -1.08,1.008 h 1.655 l 1.656,0.288 1.512,0.144 1.297,-0.504 1.008,-1.08 0.935,-2.016 0.217,-2.304 -0.36,-2.232 -0.792,-2.233 -0.577,-1.008 -0.576,-1.08 -0.504,-0.863 v -0.864 l 0.432,-0.36 0.36,-0.432 0.649,-0.145 L 0,13.032 0.433,12.312 0.721,11.376 0.36,11.231 H 0 l -0.575,1.081 -1.945,0.72 -0.359,1.8 0.792,1.872 0.575,1.008 0.576,1.152 0.504,1.08 0.145,1.152 -1.729,-0.504 -1.872,-0.288 -1.872,0.072 -1.8,0.504 -0.503,-4.969 1.08,-4.823 L -4.967,6.336 -2.808,2.159 -2.159,1.44 -1.584,0.864 -1.08,0.288 -0.359,0 h 0.144 z"
         style="fill:#ffffff;fill-opacity:1;fill-rule:nonzero;stroke:none"
         id="path2770"
         inkscape:connector-curvature="0" />
    </g>
    <g
       id="g2772"
       transform="matrix(0.08108478,0,0,-0.08108478,224.23479,218.32204)">
      <path
         d="M 0,0 1.008,0.215 2.304,0.071 2.375,0.287 1.079,0.432 0,0.287 V 0.215 Z"
         style="fill:#000000;fill-opacity:1;fill-rule:nonzero;stroke:none"
         id="path2774"
         inkscape:connector-curvature="0" />
    </g>
    <g
       id="g2776"
       transform="matrix(0.08108478,0,0,-0.08108478,227.31141,218.1586)">
      <path
         d="M 0,0 0.504,1.729 -1.296,2.304 -1.8,2.088 -1.872,1.439 -1.151,0.863 V 0 l 0.575,-0.217 z"
         style="fill:#ffff80;fill-opacity:1;fill-rule:nonzero;stroke:none"
         id="path2778"
         inkscape:connector-curvature="0" />
    </g>
    <g
       id="g2780"
       transform="matrix(0.08108478,0,0,-0.08108478,227.54494,218.26368)">
      <path
         d="M 0,0 1.08,1.44 2.736,0.288 2.88,-0.216 2.448,-0.72 1.584,-0.433 0.937,-0.937 0.144,-0.648 Z"
         style="fill:#ffff80;fill-opacity:1;fill-rule:nonzero;stroke:none"
         id="path2782"
         inkscape:connector-curvature="0" />
    </g>
    <g
       id="g2784"
       transform="matrix(0.08108478,0,0,-0.08108478,227.80181,217.75579)">
      <path
         d="m 0,0 -0.504,-1.728 2.016,-0.576 0.36,0.216 0.216,0.648 -0.792,0.648 v 0.721 L 0.576,0.36 Z"
         style="fill:#ffff80;fill-opacity:1;fill-rule:nonzero;stroke:none"
         id="path2786"
         inkscape:connector-curvature="0" />
    </g>
    <g
       id="g2788"
       transform="matrix(0.08108478,0,0,-0.08108478,227.57415,217.65071)">
      <path
         d="M 0,0 -1.152,-1.367 -2.664,-0.144 -2.736,0.36 -2.305,0.864 -1.44,0.576 -0.792,1.08 0,0.864 Z"
         style="fill:#ffff80;fill-opacity:1;fill-rule:nonzero;stroke:none"
         id="path2790"
         inkscape:connector-curvature="0" />
    </g>
    <g
       id="g2792"
       transform="matrix(0.08108478,0,0,-0.08108478,224.15885,218.05353)">
      <path
         d="M 0,0 H 4.176 L 4.032,0.433 -0.576,0.504 -0.36,0.144 Z"
         style="fill:#000000;fill-opacity:1;fill-rule:nonzero;stroke:none"
         id="path2794"
         inkscape:connector-curvature="0" />
    </g>
    <g
       id="g2796"
       transform="matrix(0.08108478,0,0,-0.08108478,224.02456,217.96595)">
      <path
         d="m 0,0 0.144,0.071 0.144,0.362 1.8,0.071 1.8,0.072 1.8,-0.143 L 7.2,-0.144 7.56,0.36 7.272,1.151 6.768,0.792 5.904,1.008 4.968,1.296 4.104,1.368 3.024,1.151 2.088,1.368 1.44,1.224 0.792,1.008 0.144,0.864 -0.36,1.296 l 0.216,-1.44 0.073,0.072 z"
         style="fill:#000000;fill-opacity:1;fill-rule:nonzero;stroke:none"
         id="path2798"
         inkscape:connector-curvature="0" />
    </g>
    <g
       id="g2800"
       transform="matrix(0.08108478,0,0,-0.08108478,224.47995,217.48728)">
      <path
         d="M 0,0 0.504,0.289 0.647,0.865 0.576,0.937 0.216,0.289 0.072,0.217 -0.216,0.072 -2.521,1.729 H -2.736 -2.88 L -2.592,1.152 -1.944,0.721 -1.152,0.36 -0.359,-0.071 -0.145,0 Z"
         style="fill:#000000;fill-opacity:1;fill-rule:nonzero;stroke:none"
         id="path2802"
         inkscape:connector-curvature="0" />
    </g>
    <g
       id="g2804"
       transform="matrix(0.08108478,0,0,-0.08108478,227.39314,217.13697)">
      <path
         d="m 0,0 -1.8,3.313 -1.223,3.671 -0.216,3.96 1.08,4.105 -0.073,0.071 -0.216,0.144 h -8.136 l -0.432,-4.32 1.008,0.433 1.008,0.719 1.009,0.936 1.079,0.72 0.793,0.504 0.791,0.504 0.793,0.289 h 1.008 L -4.752,13.248 -6.407,11.952 -8.424,10.729 -10.367,9.432 -5.184,8.353 -4.896,8.137 -5.184,7.776 h -1.295 l -1.153,0.216 -1.296,0.145 h -1.224 l 0.505,-1.873 0.864,-1.944 1.727,-2.015 3.168,-2.088 -1.944,-0.072 -1.656,0.431 -1.295,0.649 -0.721,0.647 -1.008,1.368 -0.864,1.584 -0.504,1.8 -0.216,1.729 -2.088,0.935 -1.656,1.296 -1.728,2.088 -1.44,2.664 h -3.527 L -7.128,-3.6 l 0.937,1.224 1.295,1.009 1.873,0.791 z"
         style="fill:#ffff80;fill-opacity:1;fill-rule:nonzero;stroke:none"
         id="path2806"
         inkscape:connector-curvature="0" />
    </g>
    <g
       id="g2808"
       transform="matrix(0.08108478,0,0,-0.08108478,224.76595,216.84509)">
      <path
         d="M 0,0 1.225,0.217 2.521,0.361 3.673,0.793 4.824,1.297 4.033,2.089 4.536,2.881 4.248,2.664 3.889,2.521 3.457,2.664 2.881,3.024 1.801,3.601 0.505,3.744 -0.791,3.673 -2.159,3.313 -3.239,2.089 -3.455,1.656 -3.672,1.297 -2.88,0.721 -1.943,0.289 -1.079,0 Z"
         style="fill:#000000;fill-opacity:1;fill-rule:nonzero;stroke:none"
         id="path2810"
         inkscape:connector-curvature="0" />
    </g>
    <g
       id="g2812"
       transform="matrix(0.08108478,0,0,-0.08108478,223.7969,216.7808)">
      <path
         d="M 0,0 -0.432,0.432 -0.792,1.08 -1.152,0.863 -1.513,0.576 -1.08,0.216 Z"
         style="fill:#ffffff;fill-opacity:1;fill-rule:nonzero;stroke:none"
         id="path2814"
         inkscape:connector-curvature="0" />
    </g>
    <g
       id="g2816"
       transform="matrix(0.08108478,0,0,-0.08108478,224.67846,216.7808)">
      <path
         d="M 0,0 -0.648,0.432 -0.937,1.512 -1.297,1.08 -1.801,0.72 -1.584,0.504 -1.08,0.216 -0.505,0 Z"
         style="fill:#ffffff;fill-opacity:1;fill-rule:nonzero;stroke:none"
         id="path2818"
         inkscape:connector-curvature="0" />
    </g>
    <g
       id="g2820"
       transform="matrix(0.08108478,0,0,-0.08108478,224.94121,216.7808)">
      <path
         d="M 0,0 0.936,0.216 1.583,0.576 1.151,1.008 0.72,1.296 0.575,0.72 Z"
         style="fill:#ffffff;fill-opacity:1;fill-rule:nonzero;stroke:none"
         id="path2822"
         inkscape:connector-curvature="0" />
    </g>
    <g
       id="g2824"
       transform="matrix(0.08108478,0,0,-0.08108478,224.03618,216.7808)">
      <path
         d="M 0,0 1.152,0.144 1.944,0.72 1.44,1.296 0.577,1.584 0.648,1.08 Z"
         style="fill:#ffffff;fill-opacity:1;fill-rule:nonzero;stroke:none"
         id="path2826"
         inkscape:connector-curvature="0" />
    </g>
    <g
       id="g2828"
       transform="matrix(0.08108478,0,0,-0.08108478,225.03455,216.3429)">
      <path
         d="M 0,0 -1.512,1.367 -3.096,1.584 -4.752,1.295 -6.48,1.151 h -0.719 l -0.865,0.288 1.512,-1.224 1.872,0.072 2.304,0.36 z"
         style="fill:#000000;fill-opacity:1;fill-rule:nonzero;stroke:none"
         id="path2830"
         inkscape:connector-curvature="0" />
    </g>
    <g
       id="g2832"
       transform="matrix(0.08108478,0,0,-0.08108478,226.41235,215.89345)">
      <path
         d="m 0,0 h -4.393 l 1.009,-2.447 1.44,-1.512 1.296,-0.937 L 0,-5.399 -0.432,-2.592 Z"
         style="fill:#ffff80;fill-opacity:1;fill-rule:nonzero;stroke:none"
         id="path2834"
         inkscape:connector-curvature="0" />
    </g>
    <g
       id="g2836"
       transform="matrix(0.08108478,0,0,-0.08108478,221.84112,228.30529)">
      <path
         d="m 0,0 1.872,-3.239 1.08,-3.601 0.216,-3.959 -1.152,-3.961 0.144,-0.143 0.144,-0.073 h 8.424 l 0.288,4.321 -1.079,-0.432 -0.866,-0.792 -1.007,-0.864 -1.152,-0.792 -0.864,-0.504 -0.792,-0.36 -0.792,-0.361 H 3.456 l 1.224,1.656 1.8,1.369 1.944,1.296 1.944,1.295 -5.183,1.009 -0.361,0.36 0.361,0.215 H 6.48 L 7.704,-7.631 8.928,-7.775 10.151,-7.92 9.648,-5.976 8.784,-4.031 6.983,-2.087 3.888,0.145 H 5.76 l 1.727,-0.432 1.297,-0.721 0.792,-0.576 0.936,-1.367 0.792,-1.584 0.504,-1.801 0.288,-1.799 2.015,-0.793 1.801,-1.511 1.584,-1.944 1.584,-2.736 h 3.456 L 7.128,3.889 6.12,2.593 4.896,1.513 2.952,0.648 Z"
         style="fill:#ffff80;fill-opacity:1;fill-rule:nonzero;stroke:none"
         id="path2838"
         inkscape:connector-curvature="0" />
    </g>
    <g
       id="g2840"
       transform="matrix(0.08108478,0,0,-0.08108478,222.86276,229.53122)">
      <path
         d="M 0,0 H 4.536 L 3.528,2.52 2.017,4.104 0.648,5.04 0,5.472 0.505,2.736 Z"
         style="fill:#ffff80;fill-opacity:1;fill-rule:nonzero;stroke:none"
         id="path2842"
         inkscape:connector-curvature="0" />
    </g>
    <g
       id="g2844"
       transform="matrix(0.08108478,0,0,-0.08108478,223.55167,216.24954)">
      <path
         d="m 0,0 0.144,1.008 0.504,0.864 0.72,0.649 0.864,0.503 0.576,0.288 0.577,0.289 0.359,0.359 0.36,0.216 H 3.096 L 2.232,4.104 1.44,3.672 0.576,2.88 -0.72,1.44 V 0.433 l 0.288,-0.217 z"
         style="fill:#ffffff;fill-opacity:1;fill-rule:nonzero;stroke:none"
         id="path2846"
         inkscape:connector-curvature="0" />
    </g>
    <g
       id="g2848"
       transform="matrix(0.08108478,0,0,-0.08108478,223.75019,215.89345)">
      <path
         d="m 0,0 h -2.305 l -0.359,-0.216 -0.504,-0.36 -0.648,-0.791 -0.36,-0.721 0.216,-1.296 0.144,-0.288 0.793,1.872 1.151,1.224 1.296,0.36 z"
         style="fill:#ffffff;fill-opacity:1;fill-rule:nonzero;stroke:none"
         id="path2850"
         inkscape:connector-curvature="0" />
    </g>
    <g
       id="g2852"
       transform="matrix(0.08108478,0,0,-0.08108478,224.91198,216.04517)">
      <path
         d="M 0,0 -1.801,1.512 -5.688,1.799 -4.681,1.08 -3.096,0.575 -1.44,0.144 0.216,-0.289 0.144,-0.217 Z"
         style="fill:#ffffff;fill-opacity:1;fill-rule:nonzero;stroke:none"
         id="path2854"
         inkscape:connector-curvature="0" />
    </g>
    <g
       id="g2856"
       transform="matrix(0.08108478,0,0,-0.08108478,227.57415,217.82001)">
      <path
         d="M 0,0 0.648,-0.216 1.296,-0.504 1.656,-1.152 1.872,-1.872 1.656,-2.52 1.296,-3.168 0.648,-3.6 0,-3.672 -0.792,-3.6 l -0.648,0.432 -0.432,0.648 -0.072,0.648 0.072,0.72 0.432,0.648 0.648,0.288 z"
         style="fill:#ffc0c0;fill-opacity:1;fill-rule:nonzero;stroke:none"
         id="path2858"
         inkscape:connector-curvature="0" />
    </g>
    <g
       id="g2860"
       transform="matrix(0.08108478,0,0,-0.08108478,222.57666,225.80068)">
      <path
         d="m 0,0 -4.392,-2.088 4.681,1.944 H 0.145 Z"
         style="fill:#000000;fill-opacity:1;fill-rule:nonzero;stroke:none"
         id="path2862"
         inkscape:connector-curvature="0" />
    </g>
    <g
       id="g2864"
       transform="matrix(0.08108478,0,0,-0.08108478,221.48496,225.81233)">
      <path
         d="M 0,0 0.577,-1.152 0.721,-2.665 0.288,0 0.072,0.216 Z"
         style="fill:#000000;fill-opacity:1;fill-rule:nonzero;stroke:none"
         id="path2866"
         inkscape:connector-curvature="0" />
    </g>
    <g
       id="g2868"
       transform="matrix(0.08108478,0,0,-0.08108478,222.67596,219.0168)">
      <path
         d="m 0,0 -7.416,-3.528 4.248,-2.736 3.527,-1.368 3.241,-1.223 3.384,-0.793 3.096,-0.864 3.313,-0.576 3.168,-0.432 3.167,-0.144 3.096,-0.072 3.024,0.144 3.168,0.144 3.096,0.504 3.024,0.505 3.168,0.791 3.24,0.793 3.168,0.935 3.168,1.152 1.368,0.504 1.296,0.648 1.296,0.576 1.224,0.576 -1.656,-0.216 -1.728,-0.072 -1.8,-0.144 -1.8,0.072 -1.8,0.144 -1.728,0.432 -1.656,0.576 -1.44,0.792 -3.815,-0.792 -3.529,-0.504 -3.312,-0.36 -3.168,-0.216 -2.88,-0.072 -2.736,0.072 -2.663,0.072 -2.449,0.36 -2.304,0.36 -2.232,0.432 -1.944,0.505 -1.944,0.575 -1.728,0.576 -1.729,0.72 -1.511,0.576 z"
         style="fill:#c0c0ff;fill-opacity:1;fill-rule:nonzero;stroke:none"
         id="path2870"
         inkscape:connector-curvature="0" />
    </g>
    <g
       id="g2872"
       transform="matrix(0.08108478,0,0,-0.08108478,227.18884,219.3204)">
      <path
         d="m 0,0 -7.345,-4.032 v -54.144 l 1.729,-5.04 0.216,0.071 0.431,-0.071 -0.143,-0.647 v -0.721 l 1.296,1.368 1.007,1.872 0.937,2.232 0.864,2.16 1.079,9.431 -0.791,9.289 -0.792,9.215 1.224,9.288 1.151,3.241 1.801,2.736 2.088,2.52 2.232,2.16 v 0.217 l -0.216,0.143 -1.8,-1.151 -1.584,-1.513 -1.368,-1.44 -1.224,-1.728 -1.08,-1.8 -0.937,-1.944 -0.647,-2.088 -0.649,-2.231 0.361,-10.37 0.935,-10.223 -0.072,-10.152 -3.383,-9.576 -0.216,-0.072 -0.216,0.072 0.576,1.871 0.864,2.089 0.648,2.016 0.432,2.089 0.576,5.831 -0.144,6.12 -0.649,6.12 -0.504,6.12 0.145,5.977 0.936,5.615 2.448,5.112 4.176,4.464 0.504,0.432 0.504,0.36 0.432,0.36 0.359,0.36 L 0.504,0.216 0.287,0.072 Z"
         style="fill:#ffff80;fill-opacity:1;fill-rule:nonzero;stroke:none"
         id="path2874"
         inkscape:connector-curvature="0" />
    </g>
    <g
       id="g2876"
       transform="matrix(0.08108478,0,0,-0.08108478,221.87035,219.41969)">
      <path
         d="M 0,0 12.168,-30.815 13.247,-31.031 0.504,0.505 Z"
         style="fill:#ffff80;fill-opacity:1;fill-rule:nonzero;stroke:none"
         id="path2878"
         inkscape:connector-curvature="0" />
    </g>
    <g
       id="g2880"
       transform="matrix(0.08108478,0,0,-0.08108478,226.45322,221.31116)">
      <path
         d="m 0,0 -1.512,-0.144 -1.44,-0.144 -1.584,-0.288 -1.512,-0.288 -1.44,-0.576 -1.368,-0.504 -1.08,-0.72 -1.08,-0.864 10.296,20.304 -0.36,2.088 -11.376,-23.329 1.296,0.937 -1.296,-1.512 -1.151,-1.729 -1.081,-2.015 -0.792,-2.16 -0.36,-0.288 -0.144,-0.144 -17.207,2.376 -12.168,28.944 -0.361,0.072 -0.648,0.143 12.456,-30.096 18.143,-2.303 0.289,-3.168 0.648,-2.664 1.08,-2.376 1.729,-2.088 2.087,-1.584 2.52,-1.224 3.24,-0.504 3.672,-0.216 L 0,-30.456 1.008,-33.192 0.792,20.376 0.144,19.655 Z"
         style="fill:#ffff80;fill-opacity:1;fill-rule:nonzero;stroke:none"
         id="path2882"
         inkscape:connector-curvature="0" />
    </g>
    <g
       id="g2884"
       transform="matrix(0.08108478,0,0,-0.08108478,223.59838,219.91586)">
      <path
         d="m 0,0 9.144,-26.424 11.087,25.776 -0.792,-0.288 -0.503,-1.008 -1.224,-2.664 -1.512,-3.816 -1.872,-4.392 -1.872,-4.32 -1.512,-3.816 -1.08,-2.736 -0.431,-1.081 -8.713,24.337 -0.287,0.36 z"
         style="fill:#ffc0c0;fill-opacity:1;fill-rule:nonzero;stroke:none"
         id="path2886"
         inkscape:connector-curvature="0" />
    </g>
    <g
       id="g2888"
       transform="matrix(0.08108478,0,0,-0.08108478,227.70846,220.19031)">
      <path
         d="m 0,0 -1.296,-1.151 0.432,0.143 0.504,0.576 0.36,0.361 z"
         style="fill:#ffffff;fill-opacity:1;fill-rule:nonzero;stroke:none"
         id="path2890"
         inkscape:connector-curvature="0" />
    </g>
    <g
       id="g2892"
       transform="matrix(0.08108478,0,0,-0.08108478,227.86602,220.22531)">
      <path
         d="m 0,0 -0.863,-3.384 0.575,0.216 0.505,0.36 0.575,0.504 0.504,0.576 -1.224,1.945 V 0.072 Z"
         style="fill:#ffffff;fill-opacity:1;fill-rule:nonzero;stroke:none"
         id="path2894"
         inkscape:connector-curvature="0" />
    </g>
    <g
       id="g2896"
       transform="matrix(0.08108478,0,0,-0.08108478,224.4391,220.33039)">
      <path
         d="M 0,0 -0.936,0.72 -2.088,1.296 H -3.24 l -0.792,-1.08 0.143,-1.512 0.865,-1.225 1.295,-0.791 1.513,-0.792 1.224,0.576 1.08,1.007 1.08,1.009 L 3.6,-0.432 3.168,0.937 2.232,1.296 1.008,0.937 Z"
         style="fill:#ffffff;fill-opacity:1;fill-rule:nonzero;stroke:none"
         id="path2898"
         inkscape:connector-curvature="0" />
    </g>
    <g
       id="g2900"
       transform="matrix(0.08108478,0,0,-0.08108478,227.69088,220.28953)">
      <path
         d="m 0,0 -0.359,-0.432 -0.577,-0.143 h -0.36 -0.432 l -2.591,-3.529 -1.657,-4.32 -0.935,-4.68 v -4.752 l 0.216,-1.08 v -1.007 l 2.807,0.863 2.809,1.224 2.447,1.296 2.233,1.296 1.727,1.224 1.512,1.008 0.793,0.576 0.143,0.217 -7.776,-2.233 -0.791,0.72 -0.793,0.864 -0.647,0.936 -0.649,1.08 -0.864,1.584 -0.72,1.656 2.736,2.305 0.144,-0.072 v -0.289 l -1.943,-1.728 v -0.36 -0.504 l 0.719,0.864 v 0.288 l 0.073,0.288 0.504,-0.071 0.431,-0.361 6.264,3.96 -1.512,-1.799 -1.8,-1.296 -1.943,-1.153 -1.944,-1.296 v -1.008 l 0.504,0.36 0.215,0.936 h 0.577 l 0.36,-0.648 6.839,3.817 h 0.288 0.217 l -7.993,-5.256 -0.072,-0.361 0.072,-0.431 0.289,-0.145 0.215,0.145 0.288,0.359 0.145,0.433 0.144,0.143 0.288,-0.143 0.215,-0.217 0.216,-0.504 7.344,2.808 L 7.633,-8.784 7.416,-9 l -8.063,-3.888 0.792,-0.864 0.503,1.152 0.145,0.216 0.287,-0.216 0.288,-0.288 0.072,-0.36 8.497,2.808 -5.761,8.64 -5.615,-3.599 -0.145,0.215 v 0.288 L 0.217,0.216 0.145,0.072 Z"
         style="fill:#ffffff;fill-opacity:1;fill-rule:nonzero;stroke:none"
         id="path2902"
         inkscape:connector-curvature="0" />
    </g>
    <g
       id="g2904"
       transform="matrix(0.08108478,0,0,-0.08108478,228.54908,221.20609)">
      <path
         d="m 0,0 -0.863,-2.088 -1.008,-1.944 -0.937,-1.872 -0.936,-1.872 -1.512,-2.016 -1.296,-1.944 -1.44,-1.945 -1.512,-1.872 -1.584,-1.727 -1.512,-1.872 -1.728,-1.8 -1.584,-1.729 0.072,-0.215 0.288,-0.073 1.441,1.584 1.584,1.584 1.584,1.657 1.439,1.728 1.512,1.728 1.44,1.799 1.296,1.873 1.224,2.016 1.297,2.088 1.223,2.088 1.153,2.376 L 0.36,0 0.217,0.216 Z"
         style="fill:#ffff80;fill-opacity:1;fill-rule:nonzero;stroke:none"
         id="path2906"
         inkscape:connector-curvature="0" />
    </g>
    <g
       id="g2908"
       transform="matrix(0.08108478,0,0,-0.08108478,225.49572,221.79578)">
      <path
         d="m 0,0 -1.512,-2.448 -0.791,-2.808 -0.288,-2.807 0.36,-2.953 1.152,-2.376 1.224,-1.872 1.368,-1.296 1.368,-1.007 1.655,-0.721 1.944,-0.359 2.376,-0.289 2.593,-0.143 -0.144,23.615 H 9.433 L 7.776,4.32 6.265,4.032 4.824,3.601 3.528,3.024 2.305,2.232 1.152,1.152 Z"
         style="fill:#000000;fill-opacity:1;fill-rule:nonzero;stroke:none"
         id="path2910"
         inkscape:connector-curvature="0" />
    </g>
    <g
       id="g2912"
       transform="matrix(0.08108478,0,0,-0.08108478,226.5933,219.61227)">
      <path
         d="M 0,0 4.32,2.016 -0.288,0 h 0.144 z"
         style="fill:#000000;fill-opacity:1;fill-rule:nonzero;stroke:none"
         id="path2914"
         inkscape:connector-curvature="0" />
    </g>
    <g
       id="g2916"
       transform="matrix(0.08108478,0,0,-0.08108478,222.50667,226.09263)">
      <path
         d="M 0,0 -6.624,-0.863 -5.04,-3.6 h 1.368 l 0.359,-0.143 -0.071,-0.216 -0.36,-0.145 -0.288,-0.143 15.696,-22.753 0.288,5.473 -0.144,5.615 -1.512,5.04 -3.601,4.248 -0.863,0.648 -1.152,0.504 -1.08,0.576 -1.296,0.36 -1.152,0.361 -1.224,0.216 -1.224,0.144 -1.224,-0.073 -0.432,0.145 0.143,0.287 1.873,0.289 1.944,-0.217 1.872,-0.287 1.8,-0.576 1.656,-0.721 1.584,-1.008 1.368,-1.08 1.224,-1.223 2.376,-6.12 -0.216,-6.768 0.216,-6.553 3.095,-5.183 -0.431,4.248 0.36,4.32 0.504,4.319 v 4.392 l -0.864,3.961 -1.368,3.527 -2.088,3.025 -2.808,2.448 -1.296,0.647 -1.224,0.504 -1.224,0.433 -1.368,0.504 -1.152,0.072 H 2.088 l -1.08,0.215 z"
         style="fill:#ffffff;fill-opacity:1;fill-rule:nonzero;stroke:none"
         id="path2918"
         inkscape:connector-curvature="0" />
    </g>
    <g
       id="g2920"
       transform="matrix(0.08108478,0,0,-0.08108478,225.20385,227.07341)">
      <path
         d="M 0,0 1.512,-2.735 3.024,-5.831 4.248,-9 l 0.864,-3.6 1.872,4.321 2.233,4.032 1.871,4.103 0.793,4.752 L 11.232,4.753 10.656,4.608 9.937,4.32 9.432,4.032 V 2.448 L 9.072,0.792 8.424,-0.863 7.344,-2.231 6.552,-3.384 6.049,-4.608 5.616,-5.831 l -0.36,-1.081 0.36,2.016 1.152,2.88 0.72,1.296 0.504,1.584 0.144,1.44 L 7.992,3.456 7.633,3.528 7.128,3.456 7.344,3.744 7.992,4.104 11.232,5.616 7.633,6.912 3.744,7.921 -0.216,8.496 -4.392,8.929 -8.424,9 -12.312,8.784 -15.984,8.28 l -3.24,-0.648 2.521,-4.032 0.287,-0.864 0.576,-2.88 1.08,0.72 1.153,0.504 1.08,0.432 1.079,0.505 1.081,0.431 1.223,0.432 1.153,0.36 1.223,0.36 -1.08,0.073 H -9.072 L -10.367,3.6 -11.52,3.528 -12.888,3.456 -14.04,3.24 l -1.079,-0.071 -1.08,-0.145 -0.217,0.432 0.217,0.217 2.447,0.504 2.592,0.359 2.736,0.072 L -5.76,4.753 -3.096,4.536 -0.432,4.248 2.088,3.673 4.608,2.88 6.552,3.6 6.768,3.528 6.984,3.456 6.336,2.88 5.761,2.232 5.256,0.648 4.536,-0.936 3.744,-2.52 3.168,-4.392 3.744,-1.224 4.536,0.792 4.608,1.512 3.96,1.729 2.521,1.152 Z"
         style="fill:#ffffff;fill-opacity:1;fill-rule:nonzero;stroke:none"
         id="path2922"
         inkscape:connector-curvature="0" />
    </g>
    <g
       id="g2924"
       transform="matrix(0.08108478,0,0,-0.08108478,225.46071,226.88075)">
      <path
         d="m 0,0 -1.8,0.36 -1.728,0.433 -1.728,0.071 -1.512,0.216 0.72,-0.504 0.792,-0.504 0.721,-0.719 0.647,-0.649 0.865,0.36 1.152,0.504 0.935,0.144 z"
         style="fill:#ffffff;fill-opacity:1;fill-rule:nonzero;stroke:none"
         id="path2926"
         inkscape:connector-curvature="0" />
    </g>
    <g
       id="g2928"
       transform="matrix(0.08108478,0,0,-0.08108478,222.48332,226.72896)">
      <path
         d="m 0,0 -0.433,-0.071 -0.431,-0.073 2.088,-0.072 1.8,-0.576 1.656,-1.152 1.296,-1.512 1.007,-1.871 0.505,-2.017 0.287,-2.16 0.288,-1.944 v 2.592 L 7.849,-6.048 6.983,-3.456 5.328,-1.368 4.104,-0.72 2.808,-0.288 1.44,-0.144 Z"
         style="fill:#000000;fill-opacity:1;fill-rule:nonzero;stroke:none"
         id="path2930"
         inkscape:connector-curvature="0" />
    </g>
    <g
       id="g2932"
       transform="matrix(0.08108478,0,0,-0.08108478,224.88275,226.86904)">
      <path
         d="M 0,0 H -2.231 L -4.176,-0.288 -6.192,-1.009 -8.063,-1.8 -9,-2.232 l -0.792,-0.432 -0.792,-0.504 -0.792,-0.432 -0.576,-6.409 -0.864,-6.767 -0.144,-3.312 0.504,-3.24 1.08,-3.097 1.872,-2.375 1.152,-0.648 1.152,-0.361 1.296,-0.431 1.296,-0.36 1.296,-0.289 1.224,-0.359 1.08,-0.504 1.008,-0.576 0.504,-0.145 0.433,-0.143 0.359,-0.072 h 0.36 l 1.584,1.368 2.088,0.72 1.8,1.152 0.792,1.944 -0.071,1.728 v 1.584 l -0.145,0.215 -0.288,0.145 -1.151,-0.288 -1.296,-0.433 -1.225,-0.215 -1.151,0.431 -0.721,0.36 -0.504,0.289 -0.504,0.36 -0.576,0.288 0.072,-1.728 0.504,-1.369 L 1.656,-27 2.304,-27.36 H 3.6 l 1.44,0.36 1.368,-0.145 1.008,-1.007 -1.584,0.215 -1.584,-0.431 -1.584,-0.144 -1.224,0.575 -1.08,0.937 -1.007,2.016 -0.145,2.304 0.36,2.303 0.792,2.232 0.504,1.081 0.576,0.864 0.432,0.863 0.145,1.009 -0.361,0.432 -0.504,0.288 -0.504,0.215 -0.648,0.289 -0.504,0.72 -0.288,0.863 0.072,0.073 0.432,0.071 2.881,-1.871 0.287,-1.656 -0.792,-1.872 -0.504,-1.08 -0.647,-1.153 -0.577,-1.151 v -1.008 l 1.657,0.576 1.943,0.215 h 1.872 l 1.728,-0.504 0.504,4.897 -1.08,4.896 L 4.969,-6.48 2.808,-2.232 2.232,-1.512 1.656,-1.009 1.08,-0.504 0.36,0 H 0.216 Z"
         style="fill:#ffffff;fill-opacity:1;fill-rule:nonzero;stroke:none"
         id="path2934"
         inkscape:connector-curvature="0" />
    </g>
    <g
       id="g2936"
       transform="matrix(0.08108478,0,0,-0.08108478,224.90026,227.07341)">
      <path
         d="M 0,0 -1.008,-0.144 -2.447,0 -2.52,-0.144 -1.151,-0.432 0.072,-0.36 v 0.216 z"
         style="fill:#000000;fill-opacity:1;fill-rule:nonzero;stroke:none"
         id="path2938"
         inkscape:connector-curvature="0" />
    </g>
    <g
       id="g2940"
       transform="matrix(0.08108478,0,0,-0.08108478,221.80605,227.23685)">
      <path
         d="m 0,0 -0.359,-1.728 1.872,-0.577 0.431,0.217 0.144,0.648 -0.791,0.503 V 0 L 0.648,0.36 Z"
         style="fill:#ffff80;fill-opacity:1;fill-rule:nonzero;stroke:none"
         id="path2942"
         inkscape:connector-curvature="0" />
    </g>
    <g
       id="g2944"
       transform="matrix(0.08108478,0,0,-0.08108478,221.62511,227.14927)">
      <path
         d="M 0,0 -1.151,-1.368 -2.592,-0.144 -2.808,0.288 -2.304,0.792 -1.44,0.504 -0.792,0.936 0,0.792 Z"
         style="fill:#ffff80;fill-opacity:1;fill-rule:nonzero;stroke:none"
         id="path2946"
         inkscape:connector-curvature="0" />
    </g>
    <g
       id="g2948"
       transform="matrix(0.08108478,0,0,-0.08108478,221.36237,227.63388)">
      <path
         d="M 0,0 0.433,1.656 -1.44,2.304 -1.872,2.017 -1.944,1.296 -1.296,0.792 V 0 l 0.721,-0.288 z"
         style="fill:#ffff80;fill-opacity:1;fill-rule:nonzero;stroke:none"
         id="path2950"
         inkscape:connector-curvature="0" />
    </g>
    <g
       id="g2952"
       transform="matrix(0.08108478,0,0,-0.08108478,221.57261,227.73896)">
      <path
         d="M 0,0 1.08,1.368 2.735,0.288 2.879,-0.216 2.52,-0.72 1.584,-0.359 0.792,-0.863 0.144,-0.648 Z"
         style="fill:#ffff80;fill-opacity:1;fill-rule:nonzero;stroke:none"
         id="path2954"
         inkscape:connector-curvature="0" />
    </g>
    <g
       id="g2956"
       transform="matrix(0.08108478,0,0,-0.08108478,224.97034,227.33607)">
      <path
         d="m 0,0 h -4.104 l 0.144,-0.504 h 4.536 v 0.359 z"
         style="fill:#000000;fill-opacity:1;fill-rule:nonzero;stroke:none"
         id="path2958"
         inkscape:connector-curvature="0" />
    </g>
    <g
       id="g2960"
       transform="matrix(0.08108478,0,0,-0.08108478,225.11041,227.42372)">
      <path
         d="m 0,0 -0.144,-0.288 -0.215,-0.215 -1.8,-0.072 h -1.8 l -1.873,0.143 -1.439,0.649 -0.216,-0.505 0.288,-0.792 0.36,0.288 0.863,-0.288 0.865,-0.216 0.935,-0.071 1.153,0.071 0.792,-0.071 0.719,0.071 0.576,0.145 0.721,0.215 0.791,-0.36 L 0.145,0.217 0.072,0.073 Z"
         style="fill:#000000;fill-opacity:1;fill-rule:nonzero;stroke:none"
         id="path2962"
         inkscape:connector-curvature="0" />
    </g>
    <g
       id="g2964"
       transform="matrix(0.08108478,0,0,-0.08108478,224.6551,227.90239)">
      <path
         d="m 0,0 -0.504,-0.288 -0.288,-0.648 h 0.144 l 0.431,0.576 0.145,0.072 0.288,0.143 2.376,-1.727 H 2.808 L 2.951,-1.729 2.664,-1.152 2.016,-0.648 1.08,-0.36 0.432,0.145 0.216,0 Z"
         style="fill:#000000;fill-opacity:1;fill-rule:nonzero;stroke:none"
         id="path2966"
         inkscape:connector-curvature="0" />
    </g>
    <g
       id="g2968"
       transform="matrix(0.08108478,0,0,-0.08108478,224.36322,228.53872)">
      <path
         d="m 0,0 -1.081,-0.072 -1.079,-0.217 -1.08,-0.359 -1.008,-0.504 -0.289,-1.945 0.36,0.216 0.361,0.217 0.36,-0.072 0.575,-0.432 1.08,-0.433 1.296,-0.36 1.441,0.072 1.295,0.504 1.152,1.297 0.217,0.215 0.215,0.433 -0.936,0.648 -0.863,0.432 -0.865,0.215 z"
         style="fill:#000000;fill-opacity:1;fill-rule:nonzero;stroke:none"
         id="path2970"
         inkscape:connector-curvature="0" />
    </g>
    <g
       id="g2972"
       transform="matrix(0.08108478,0,0,-0.08108478,225.33815,228.61466)">
      <path
         d="m 0,0 0.216,-0.36 0.36,-0.287 0.072,-0.361 0.072,-0.431 0.432,0.431 0.36,0.361 -0.575,0.503 z"
         style="fill:#ffffff;fill-opacity:1;fill-rule:nonzero;stroke:none"
         id="path2974"
         inkscape:connector-curvature="0" />
    </g>
    <g
       id="g2976"
       transform="matrix(0.08108478,0,0,-0.08108478,224.45081,228.60294)">
      <path
         d="m 0,0 0.432,-0.36 0.431,-0.504 0.073,-0.432 0.071,-0.36 0.504,0.36 0.288,0.432 -0.071,0.216 -0.577,0.288 -0.504,0.288 z"
         style="fill:#ffffff;fill-opacity:1;fill-rule:nonzero;stroke:none"
         id="path2978"
         inkscape:connector-curvature="0" />
    </g>
    <g
       id="g2980"
       transform="matrix(0.08108478,0,0,-0.08108478,224.19387,228.6088)">
      <path
         d="m 0,0 -0.864,-0.288 -0.791,-0.432 0.504,-0.289 0.359,-0.359 0.217,0.576 z"
         style="fill:#ffffff;fill-opacity:1;fill-rule:nonzero;stroke:none"
         id="path2982"
         inkscape:connector-curvature="0" />
    </g>
    <g
       id="g2984"
       transform="matrix(0.08108478,0,0,-0.08108478,225.09298,228.6088)">
      <path
         d="m 0,0 -1.152,-0.216 -0.792,-0.576 0.431,-0.432 0.865,-0.36 0.072,0.504 z"
         style="fill:#ffffff;fill-opacity:1;fill-rule:nonzero;stroke:none"
         id="path2986"
         inkscape:connector-curvature="0" />
    </g>
    <g
       id="g2988"
       transform="matrix(0.08108478,0,0,-0.08108478,224.10049,229.04668)">
      <path
         d="m 0,0 1.871,-1.296 2.089,0.216 2.016,0.288 2.16,-0.72 -1.513,1.368 H 4.68 L 2.375,-0.36 Z"
         style="fill:#000000;fill-opacity:1;fill-rule:nonzero;stroke:none"
         id="path2990"
         inkscape:connector-curvature="0" />
    </g>
    <g
       id="g2992"
       transform="matrix(0.08108478,0,0,-0.08108478,225.58916,229.13426)">
      <path
         d="M 0,0 -0.287,-1.151 -0.792,-1.872 -1.584,-2.663 -2.376,-3.168 -2.951,-3.6 -3.455,-3.815 -3.96,-3.96 -4.32,-4.319 h 1.08 l 0.793,0.143 0.863,0.361 0.792,0.647 1.009,1.009 0.431,0.647 0.073,0.361 v 0.576 L 0.36,-0.288 Z"
         style="fill:#ffffff;fill-opacity:1;fill-rule:nonzero;stroke:none"
         id="path2994"
         inkscape:connector-curvature="0" />
    </g>
    <g
       id="g2996"
       transform="matrix(0.08108478,0,0,-0.08108478,225.38486,229.50208)">
      <path
         d="M 0,0 2.232,-0.144 2.52,0.145 3.168,0.648 3.744,1.368 4.248,2.16 4.031,3.456 3.672,3.744 3.023,1.873 1.728,0.721 0.576,0.145 Z"
         style="fill:#ffffff;fill-opacity:1;fill-rule:nonzero;stroke:none"
         id="path2998"
         inkscape:connector-curvature="0" />
    </g>
    <g
       id="g3000"
       transform="matrix(0.08108478,0,0,-0.08108478,224.22308,229.33856)">
      <path
         d="M 0,0 1.872,-1.656 5.76,-1.872 4.607,-1.296 3.168,-0.648 1.439,-0.288 -0.216,0.216 -0.144,0.144 Z"
         style="fill:#ffffff;fill-opacity:1;fill-rule:nonzero;stroke:none"
         id="path3002"
         inkscape:connector-curvature="0" />
    </g>
    <g
       id="g3004"
       transform="matrix(0.08108478,0,0,-0.08108478,221.57261,227.56966)">
      <path
         d="m 0,0 -0.793,0.216 -0.576,0.288 -0.432,0.721 -0.143,0.648 0.143,0.719 0.432,0.576 0.576,0.433 L 0,3.673 0.792,3.601 1.367,3.168 1.799,2.592 2.016,1.873 1.799,1.225 1.367,0.504 0.792,0.216 Z"
         style="fill:#ffc0c0;fill-opacity:1;fill-rule:nonzero;stroke:none"
         id="path3006"
         inkscape:connector-curvature="0" />
    </g>
    <g
       id="g3008"
       transform="matrix(0.08108478,0,0,-0.08108478,219.34247,217.24205)">
      <path
         d="M 0,0 V 0.792 L -0.217,2.089 -0.937,3.168 -2.161,3.96 -3.385,4.177 -4.608,3.816 -5.617,3.097 -6.192,1.944 -6.625,0.648 l 1.08,-3.456 2.448,-3.671 2.376,-3.529 1.08,-3.311 1.008,3.311 2.448,3.529 2.376,3.671 L 7.199,0.648 6.983,1.944 6.264,3.097 5.327,3.816 4.031,4.177 2.808,3.96 1.728,3.168 0.863,2.089 0.575,0.792 V 0 L 0.359,-0.071 Z"
         style="fill:#ff0000;fill-opacity:1;fill-rule:nonzero;stroke:none"
         id="path3010"
         inkscape:connector-curvature="0" />
    </g>
    <g
       id="g3012"
       transform="matrix(0.08108478,0,0,-0.08108478,219.3716,216.35462)">
      <path
         d="M 0,0 V 4.607 Z"
         style="fill:#000000;fill-opacity:1;fill-rule:nonzero;stroke:none"
         id="path3014"
         inkscape:connector-curvature="0" />
    </g>
    <g
       id="g3016"
       transform="matrix(0.08108478,0,0,-0.08108478,218.86372,215.619)">
      <path
         d="m 0,0 0.072,2.304 0.36,2.231 0.576,1.729 0.792,1.511 0.36,0.649 0.432,0.648 0.504,0.36 0.576,0.431 0.504,0.288 0.576,0.216 0.504,0.072 0.648,0.073 0.432,-0.073 0.72,-0.072 L 7.56,10.151 8.063,9.863 8.567,9.576 9.072,9.144 9.504,8.567 9.863,7.992 10.656,6.479 11.231,4.68 11.664,2.52 11.735,0 11.592,-3.601 11.16,-6.336 10.728,-7.561 10.224,-8.641 9.72,-9.433 9.144,-10.225 8.567,-10.729 7.775,-11.16 6.84,-11.377 l -0.936,-0.071 -0.72,0.071 -0.72,0.217 -0.721,0.216 -0.503,0.36 -0.432,0.359 -0.504,0.504 -0.504,0.576 -0.432,0.721 -0.577,1.655 -0.504,1.873 -0.215,2.232 z"
         style="fill:#ff0000;fill-opacity:1;fill-rule:nonzero;stroke:none"
         id="path3018"
         inkscape:connector-curvature="0" />
    </g>
    <g
       id="g3020"
       transform="matrix(0.08108478,0,0,-0.08108478,219.06216,215.619)">
      <path
         d="m 0,0 0.217,-3.961 0.72,-2.735 1.08,-1.584 1.511,-0.576 0.648,0.072 0.432,0.216 0.504,0.288 0.288,0.504 0.792,1.296 0.504,1.584 0.216,2.304 L 7.057,0 6.912,2.375 6.625,4.392 6.12,5.976 5.328,6.983 4.968,7.344 4.393,7.632 4.032,7.775 3.528,7.92 3.097,7.775 2.521,7.632 2.088,7.344 1.656,6.983 1.008,5.832 0.433,4.248 0.145,2.304 Z"
         style="fill:#ffffff;fill-opacity:1;fill-rule:nonzero;stroke:none"
         id="path3022"
         inkscape:connector-curvature="0" />
    </g>
    <g
       id="g3024"
       transform="matrix(0.08108478,0,0,-0.08108478,218.75279,216.1211)">
      <path
         d="M 0,0 2.016,1.224 3.743,1.872 5.616,2.017 7.991,1.512 9.936,0.36 l 0.936,-1.511 1.296,-1.08 2.952,-0.433 v -1.224 -1.08 l -3.6,0.576 -1.584,1.295 -0.792,1.441 -1.657,1.08 L 5.256,-0.144 3.312,-0.647 1.655,-1.656 0,-2.735 Z"
         style="fill:#ff0000;fill-opacity:1;fill-rule:nonzero;stroke:none"
         id="path3026"
         inkscape:connector-curvature="0" />
    </g>
    <g
       id="g3028"
       transform="matrix(0.08108478,0,0,-0.08108478,229.72844,228.59129)">
      <path
         d="m 0,0 v -0.792 l -0.36,-1.296 -0.72,-1.152 -1.08,-0.649 -1.297,-0.215 -1.224,0.215 -1.08,0.792 -0.575,1.081 -0.288,1.368 1.008,3.384 2.448,3.6 2.304,3.527 1.08,3.241 L 1.295,9.863 3.672,6.336 6.047,2.736 7.199,-0.648 6.768,-2.016 6.191,-3.097 5.184,-3.889 3.96,-4.104 2.735,-3.889 1.728,-3.24 0.791,-2.088 0.504,-0.792 V 0 L 0.216,0.072 Z"
         style="fill:#ff0000;fill-opacity:1;fill-rule:nonzero;stroke:none"
         id="path3030"
         inkscape:connector-curvature="0" />
    </g>
    <g
       id="g3032"
       transform="matrix(0.08108478,0,0,-0.08108478,230.24797,230.29598)">
      <path
         d="M 0,0 -0.144,-2.305 -0.504,-4.608 -0.936,-6.336 -1.8,-7.849 -2.231,-8.425 -2.592,-9.073 -3.096,-9.577 -3.6,-9.865 l -0.576,-0.36 -0.504,-0.144 -0.576,-0.144 h -0.647 -0.504 l -0.576,0.144 -0.577,0.144 -0.503,0.288 -0.504,0.36 -0.504,0.504 -0.433,0.432 -0.432,0.577 -0.719,1.511 -0.576,1.8 -0.433,2.232 V 0 l 0.072,3.527 0.504,2.809 0.36,1.151 0.36,1.08 0.576,0.865 0.576,0.719 0.72,0.504 0.792,0.361 0.792,0.287 1.009,0.072 0.791,-0.072 0.648,-0.144 0.649,-0.216 0.503,-0.288 0.504,-0.504 L -2.231,9.647 -1.8,9.144 -1.512,8.423 -0.72,6.768 -0.36,4.896 -0.144,2.592 Z"
         style="fill:#ff0000;fill-opacity:1;fill-rule:nonzero;stroke:none"
         id="path3034"
         inkscape:connector-curvature="0" />
    </g>
    <g
       id="g3036"
       transform="matrix(0.08108478,0,0,-0.08108478,230.04955,230.29598)">
      <path
         d="M 0,0 -0.288,3.887 -0.937,6.695 -2.017,8.279 -3.601,8.855 -4.177,8.783 -4.608,8.496 -5.112,8.135 -5.473,7.775 -6.192,6.551 -6.624,4.752 -6.984,2.592 -7.057,0 l 0.073,-2.449 0.36,-1.944 0.575,-1.584 0.792,-1.08 0.288,-0.359 0.433,-0.36 0.504,-0.073 0.431,-0.071 0.577,0.071 0.503,0.073 0.361,0.36 0.504,0.359 0.719,1.225 0.504,1.439 0.288,2.088 z"
         style="fill:#ffffff;fill-opacity:1;fill-rule:nonzero;stroke:none"
         id="path3038"
         inkscape:connector-curvature="0" />
    </g>
    <g
       id="g3040"
       transform="matrix(0.08108478,0,0,-0.08108478,230.35891,229.79396)">
      <path
         d="m 0,0 -2.016,-1.152 -1.728,-0.792 -1.944,-0.144 -2.304,0.504 -1.944,1.224 -0.936,1.44 -1.368,1.151 -2.88,0.433 v 1.152 1.152 l 3.6,-0.648 1.584,-1.224 0.864,-1.512 1.584,-1.08 2.16,-0.359 1.944,0.502 1.728,0.937 L 0,2.664 Z"
         style="fill:#ff0000;fill-opacity:1;fill-rule:nonzero;stroke:none"
         id="path3042"
         inkscape:connector-curvature="0" />
    </g>
  </g>
</svg>
