<?xml version="1.0" encoding="UTF-8" standalone="no"?>
<!-- Created with Inkscape (http://www.inkscape.org/) -->

<svg
   xmlns:dc="http://purl.org/dc/elements/1.1/"
   xmlns:cc="http://creativecommons.org/ns#"
   xmlns:rdf="http://www.w3.org/1999/02/22-rdf-syntax-ns#"
   xmlns:svg="http://www.w3.org/2000/svg"
   xmlns="http://www.w3.org/2000/svg"
   xmlns:sodipodi="http://sodipodi.sourceforge.net/DTD/sodipodi-0.dtd"
   xmlns:inkscape="http://www.inkscape.org/namespaces/inkscape"
   width="12.662848mm"
   height="17.940575mm"
   viewBox="0 0 12.662848 17.940575"
   version="1.1"
   id="svg8884"
   inkscape:version="0.92.3 (2405546, 2018-03-11)"
   sodipodi:docname="K.svg">
  <defs
     id="defs8878" />
  <sodipodi:namedview
     id="base"
     pagecolor="#ffffff"
     bordercolor="#666666"
     borderopacity="1.0"
     inkscape:pageopacity="0.0"
     inkscape:pageshadow="2"
     inkscape:zoom="0.35"
     inkscape:cx="232.50122"
     inkscape:cy="333.90347"
     inkscape:document-units="mm"
     inkscape:current-layer="layer1"
     showgrid="false"
     inkscape:window-width="1920"
     inkscape:window-height="1052"
     inkscape:window-x="0"
     inkscape:window-y="0"
     inkscape:window-maximized="1" />
  <metadata
     id="metadata8881">
    <rdf:RDF>
      <cc:Work
         rdf:about="">
        <dc:format>image/svg+xml</dc:format>
        <dc:type
           rdf:resource="http://purl.org/dc/dcmitype/StillImage" />
        <dc:title></dc:title>
      </cc:Work>
    </rdf:RDF>
  </metadata>
  <g
     inkscape:label="Layer 1"
     inkscape:groupmode="layer"
     id="layer1"
     transform="translate(-44.317385,-219.23805)">
    <g
       id="g3450"
       transform="matrix(0.08108478,0,0,-0.08108478,44.801948,219.23805)">
      <path
         d="m 0,0 h 144.288 l 2.233,-0.576 1.943,-1.872 1.296,-2.664 0.432,-3.384 v -204.265 l -0.432,-3.311 -1.296,-2.737 -1.943,-1.799 -2.233,-0.649 H 0 l -2.304,0.649 -1.872,1.799 -1.296,2.737 -0.504,3.311 V -8.496 l 0.504,3.384 1.296,2.664 1.872,1.872 z"
         style="fill:#000000;fill-opacity:1;fill-rule:nonzero;stroke:none"
         id="path3452"
         inkscape:connector-curvature="0" />
    </g>
    <g
       id="g3454"
       transform="matrix(0.08108478,0,0,-0.08108478,44.988821,219.51827)">
      <path
         d="m 0,0 h 139.68 l 2.303,-0.576 1.8,-1.8 1.296,-2.592 0.433,-3.168 v -198.072 l -0.433,-3.097 -1.296,-2.663 -1.8,-1.656 -2.303,-0.721 H 0 l -2.305,0.721 -1.799,1.656 -1.224,2.663 -0.36,3.097 V -8.136 l 0.36,3.168 1.224,2.592 1.799,1.8 z"
         style="fill:#ffffff;fill-opacity:1;fill-rule:nonzero;stroke:none"
         id="path3456"
         inkscape:connector-curvature="0" />
    </g>
    <path
       d="m 46.284811,221.26393 h 8.733811 v 13.88885 h -8.733811 z"
       style="fill:#000000;fill-opacity:1;fill-rule:nonzero;stroke:none;stroke-width:0.08108479"
       id="path3458"
       inkscape:connector-curvature="0" />
    <path
       d="m 46.413241,221.39821 h 8.482781 v 13.62605 h -8.482781 z"
       style="fill:#ffffff;fill-opacity:1;fill-rule:nonzero;stroke:none;stroke-width:0.08108479"
       id="path3460"
       inkscape:connector-curvature="0" />
    <g
       id="g3462"
       transform="matrix(0.08108478,0,0,-0.08108478,47.80271,222.26803)">
      <path
         d="m 0,0 v 1.512 l -0.504,2.52 -1.512,1.944 -2.088,1.296 -2.375,0.504 -2.376,-0.504 -1.873,-1.512 -1.295,-2.016 -0.432,-2.664 0.504,-3.097 1.439,-3.311 2.088,-3.384 2.376,-3.528 2.376,-3.456 2.088,-3.384 1.584,-3.096 0.576,-3.024 0.504,3.024 1.584,3.096 2.088,3.384 2.52,3.456 2.304,3.528 2.088,3.384 1.44,3.311 L 13.608,1.08 13.176,3.744 11.881,5.76 10.008,7.272 7.561,7.776 5.257,7.272 3.168,5.976 1.656,4.032 1.008,1.512 V 0 L 0.576,-0.288 Z"
         style="fill:#ff0000;fill-opacity:1;fill-rule:nonzero;stroke:none"
         id="path3464"
         inkscape:connector-curvature="0" />
    </g>
    <g
       id="g3466"
       transform="matrix(0.08108478,0,0,-0.08108478,53.52996,233.99096)">
      <path
         d="m 0,0 v -1.512 l -0.648,-2.304 -1.369,-2.087 -2.015,-1.225 -2.448,-0.432 -2.233,0.504 -1.943,1.368 -1.153,2.016 -0.431,2.521 0.431,3.095 1.512,3.168 2.017,3.313 2.303,3.384 2.305,3.383 2.016,3.241 1.439,3.023 0.649,2.952 L 1.008,21.456 2.52,18.433 4.464,15.192 6.912,11.809 9.287,8.425 11.231,5.112 12.672,1.944 13.248,-1.151 12.743,-3.672 11.447,-5.688 9.647,-7.056 7.344,-7.56 4.968,-7.128 2.88,-5.903 1.512,-3.816 0.863,-1.512 V 0 L 0.432,0.288 Z"
         style="fill:#ff0000;fill-opacity:1;fill-rule:nonzero;stroke:none"
         id="path3468"
         inkscape:connector-curvature="0" />
    </g>
    <g
       id="g3470"
       transform="matrix(0.08108478,0,0,-0.08108478,54.94863,226.90935)">
      <path
         d="m 0,0 -8.641,33.265 -1.584,5.687 1.08,3.024 1.512,0.503 1.008,0.649 0.36,1.152 -0.072,1.584 -1.296,1.153 v 5.039 l -7.92,5.688 2.016,4.681 0.505,-0.289 0.504,-0.576 0.792,-0.576 h 0.719 l 0.792,0.216 0.792,0.36 1.008,1.512 v 2.088 l -0.935,1.296 -1.296,0.936 -1.441,0.072 -1.44,-0.576 -5.184,-8.352 -0.288,-0.359 -0.575,-0.576 -0.648,-0.577 -0.649,-0.36 -5.76,3.168 -0.072,0.216 -0.143,0.36 4.895,7.992 -52.775,0.576 2.447,-3.312 1.584,-3.888 1.009,-4.248 0.647,-4.103 -1.8,-3.673 -0.792,-4.247 -0.648,-4.32 -1.512,-3.529 -0.792,-1.944 -0.575,-1.871 -0.36,-1.801 0.215,-1.872 -0.791,-0.792 -0.649,-1.08 -3.815,-1.08 -3.745,-1.44 -3.816,-1.656 -3.815,-1.8 -3.672,-2.231 -3.673,-2.089 -3.384,-2.304 -3.168,-2.232 v -50.616 l 8.64,-28.584 0.936,-6.12 -1.007,-2.88 h -0.144 -0.576 l -0.793,-0.216 -0.863,-0.648 -0.432,-1.152 0.143,-1.008 0.432,-0.935 0.864,-0.649 v -5.471 l 7.993,-5.041 -2.161,-5.04 -0.576,0.865 -0.504,0.431 -0.719,0.144 h -0.865 l -1.007,-0.216 -0.577,-0.432 -0.504,-0.648 -0.431,-0.792 v -1.296 l 0.216,-0.864 0.792,-1.008 0.935,-0.72 0.937,-0.216 1.296,-0.072 1.872,1.368 1.296,1.873 1.007,2.015 1.296,2.016 0.361,0.936 0.647,0.864 0.576,0.792 0.504,0.576 0.361,0.289 0.359,0.287 6.192,-3.672 -4.536,-7.92 -0.287,-0.144 -0.288,-0.36 12.527,-0.504 h 40.392 l -1.943,3.313 -2.016,3.672 -1.513,4.103 -0.36,4.464 1.513,3.168 0.719,3.601 0.504,3.527 1.225,3.24 1.08,2.016 0.791,1.944 0.433,2.16 -0.144,2.304 1.008,0.432 0.719,0.865 0.504,0.935 0.216,0.72 3.529,1.152 3.528,1.152 3.599,1.44 3.529,1.584 3.672,1.656 3.672,1.945 3.599,1.943 3.817,2.088 z"
         style="fill:#000000;fill-opacity:1;fill-rule:nonzero;stroke:none"
         id="path3472"
         inkscape:connector-curvature="0" />
    </g>
    <g
       id="g3474"
       transform="matrix(0.08108478,0,0,-0.08108478,51.06036,234.86666)">
      <path
         d="M 0,0 0.793,0.648 2.017,1.08 3.168,1.512 4.32,1.8 H 5.688 L 6.984,1.656 8.209,1.296 9.36,0.792 9.937,0.288 10.44,0.145 h 0.504 l 0.433,0.287 0.359,0.36 0.361,0.144 -0.361,1.368 -0.792,1.009 -42.263,0.071 -1.584,-2.448 1.727,0.72 2.017,0.432 h 2.015 l 2.017,-0.576 0.575,-0.432 0.576,-0.36 0.649,-0.288 0.647,-0.287 2.017,0.935 2.16,0.576 2.232,0.144 2.232,-0.504 0.647,-0.216 0.577,-0.36 0.576,-0.288 0.719,-0.287 1.873,0.935 2.231,0.72 2.16,0.143 2.233,-0.647 0.792,-0.36 0.719,-0.36 0.649,-0.431 0.576,-0.217 L -0.144,0 Z"
         style="fill:#ffff80;fill-opacity:1;fill-rule:nonzero;stroke:none"
         id="path3476"
         inkscape:connector-curvature="0" />
    </g>
    <g
       id="g3478"
       transform="matrix(0.08108478,0,0,-0.08108478,51.83107,234.12518)">
      <path
         d="M 0,0 0.071,4.247 -1.152,3.527 -2.593,3.312 H -4.32 l -1.584,-0.073 -1.8,3.456 -0.072,3.96 0.864,4.033 0.935,3.959 -2.303,1.369 -0.432,1.08 v 0.287 l 0.288,0.217 0.72,-0.577 0.647,-0.864 1.872,-1.151 -1.727,-7.777 0.216,-0.864 -0.073,-0.863 0.145,-0.289 0.432,-0.144 0.36,0.288 0.216,0.432 h -0.361 l -0.503,0.072 0.503,0.721 0.792,0.287 h 1.441 1.296 l 1.223,-0.072 1.009,-0.503 H 0 0.288 l 0.144,3.6 -0.361,3.671 -0.359,3.529 0.072,3.672 0.216,1.655 0.432,1.368 0.792,1.152 1.007,0.865 1.008,0.36 0.793,0.071 0.72,-0.143 L 5.399,29.808 5.903,28.655 5.76,27.863 5.04,27.359 4.823,27.432 4.752,27.863 4.968,28.08 5.04,28.655 v 0.288 l -0.072,0.36 H 4.752 L 4.536,29.592 3.888,29.808 3.168,29.592 2.952,29.375 2.735,29.303 2.663,28.008 2.952,26.783 3.023,26.567 3.312,26.423 V 22.247 L 2.231,18.071 H 2.159 1.872 l 0.72,4.968 -0.792,4.824 v 0.433 0.071 L 0.576,22.896 0.936,17.135 1.439,11.231 0.647,5.184 0.864,4.392 0.936,3.887 l 1.44,3.816 0.576,4.032 0.72,3.888 1.872,3.528 0.72,3.096 v 2.736 L 5.903,25.271 H 5.472 L 5.544,22.392 4.968,19.728 3.888,17.063 2.88,14.255 v -0.503 l -0.145,-0.36 -0.072,-0.073 -0.432,-0.072 0.504,3.024 0.937,3.096 0.647,3.168 -0.359,3.168 2.304,0.217 0.647,0.503 0.576,0.648 0.361,0.792 0.072,1.08 -0.504,1.44 L 6.407,31.464 5.472,31.896 4.319,31.967 3.239,31.68 2.088,31.176 1.439,30.815 1.079,30.383 0.576,30.096 0.071,29.88 l -0.216,0.216 0.073,0.143 3.384,2.664 -2.665,-0.648 -3.527,-3.384 0.144,1.009 0.719,1.007 0.792,0.865 0.792,0.936 0.504,0.359 0.576,0.217 -4.679,-2.521 2.015,2.521 -1.656,-0.361 -1.367,-0.864 -1.152,-1.152 -1.224,-1.223 -2.664,3.024 1.296,-3.745 -1.008,1.296 -1.008,1.441 -1.152,1.296 -1.729,0.792 h -0.576 l -0.287,0.071 1.008,-0.936 0.863,-1.151 0.864,-1.369 0.504,-1.44 v -0.359 -0.217 h -0.143 -0.216 l -0.576,1.513 -0.792,1.296 -1.008,1.079 -1.225,0.864 -0.504,0.145 -0.576,0.072 -0.431,0.143 -0.432,0.144 -0.864,-0.287 -0.792,-0.36 -0.649,-0.577 -0.359,-1.007 -0.072,-1.153 0.288,-0.936 0.504,-0.36 0.36,-0.576 -0.433,-0.071 -0.504,0.288 v -0.576 l 0.216,-0.793 h -0.287 -0.432 l -0.72,-0.36 -0.792,-0.359 0.935,2.375 -0.215,2.376 -0.865,1.152 -1.151,0.72 -1.225,0.432 -1.223,0.072 -1.512,-0.432 -1.225,-0.503 -1.08,-0.649 -0.863,-0.792 -0.145,0.649 0.361,0.647 0.504,0.504 0.576,0.504 0.504,0.288 0.216,0.288 -3.816,-0.648 -0.36,-0.215 -0.145,-0.073 -2.159,-2.736 v 1.009 l 0.36,0.935 0.72,0.792 0.648,0.648 -1.441,-0.288 -1.223,-0.863 -1.152,-1.296 -0.72,-1.296 -0.865,-3.169 0.288,-3.239 0.937,-3.385 1.368,-3.528 1.44,-3.599 1.368,-3.672 0.936,-3.816 0.36,-3.889 -0.073,-0.287 -0.287,-0.288 -0.217,0.072 -0.288,0.216 -0.215,2.303 -0.36,2.376 -0.504,2.376 -0.576,2.304 -1.944,5.041 -1.945,5.111 -1.08,5.184 1.153,4.969 0.719,1.079 0.72,1.009 -1.439,-0.576 -1.224,-0.936 -1.08,-1.08 -0.648,-1.369 0.36,-6.911 2.16,-6.553 2.304,-6.695 0.719,-6.913 -0.215,-0.072 -0.216,0.072 -1.08,5.689 -1.729,5.472 -2.088,5.544 -1.727,5.543 0.071,1.8 0.217,1.801 0.576,1.8 0.863,1.512 -1.656,-1.512 -1.079,-2.017 -0.576,-2.52 -0.144,-2.591 1.44,-5.689 1.872,-5.616 1.656,-5.616 0.504,-5.76 h 12.888 l 0.288,3.529 -0.433,3.671 -0.863,3.6 -0.792,3.672 -1.08,3.024 -1.224,2.953 -1.08,2.952 -0.433,3.095 1.296,-2.736 1.225,-2.808 1.152,-3.023 1.224,-2.953 1.008,-3.744 0.504,-3.743 0.215,-3.673 0.145,-3.743 2.735,-0.073 0.073,7.56 -2.016,7.416 -2.448,7.488 -1.296,7.561 0.36,0.647 0.72,0.504 0.792,0.505 1.008,0.215 0.864,-0.215 0.72,-0.36 0.576,-0.505 0.288,-0.648 0.071,-0.936 -0.359,-0.936 -0.36,-0.287 -0.432,-0.217 h -0.504 -0.576 -0.433 l 0.145,0.433 1.368,0.359 0.216,0.72 0.072,0.864 -0.576,0.576 -0.792,0.361 -1.368,-0.504 -0.72,-0.864 -0.216,-1.441 0.504,-1.656 -0.072,-0.144 -0.216,-0.071 1.224,-4.536 1.872,-4.393 1.656,-4.68 1.008,-4.824 0.215,-4.032 -0.215,-3.96 z"
         style="fill:#ffffff;fill-opacity:1;fill-rule:nonzero;stroke:none"
         id="path3480"
         inkscape:connector-curvature="0" />
    </g>
    <g
       id="g3482"
       transform="matrix(0.08108478,0,0,-0.08108478,49.513331,234.04932)">
      <path
         d="m 0,0 0.216,2.951 -0.288,3.169 -0.649,3.025 -0.792,3.095 -1.296,3.528 -1.368,3.456 -1.296,3.528 -1.007,3.527 1.512,-6.55 2.159,-6.41 2.088,-6.551 z"
         style="fill:#000000;fill-opacity:1;fill-rule:nonzero;stroke:none"
         id="path3484"
         inkscape:connector-curvature="0" />
    </g>
    <g
       id="g3486"
       transform="matrix(0.08108478,0,0,-0.08108478,48.269739,232.73581)">
      <path
         d="m 0,0 -0.647,2.953 -0.577,3.167 0.073,3.241 1.296,2.879 1.584,1.872 1.944,1.657 2.088,1.152 2.376,0.935 1.511,0.432 1.512,0.217 1.584,0.143 h 1.441 L 16.705,65.161 9.36,64.945 5.904,65.161 5.185,53.641 4.465,41.4 2.881,31.033 0.793,20.593 -1.367,10.08 -3.384,-0.287 l 1.009,-5.04 z"
         style="fill:#ffffff;fill-opacity:1;fill-rule:nonzero;stroke:none"
         id="path3488"
         inkscape:connector-curvature="0" />
    </g>
    <g
       id="g3490"
       transform="matrix(0.08108478,0,0,-0.08108478,50.13217,232.67737)">
      <path
         d="m 0,0 -3.024,7.775 0.36,0.289 H -2.16 L -1.584,7.848 -1.225,7.775 1.439,3.168 -1.225,8.641 -1.944,8.208 -2.952,8.064 -3.889,8.136 -4.752,8.567 -4.536,8.279 -4.248,8.136 Z"
         style="fill:#000000;fill-opacity:1;fill-rule:nonzero;stroke:none"
         id="path3492"
         inkscape:connector-curvature="0" />
    </g>
    <g
       id="g3494"
       transform="matrix(0.08108478,0,0,-0.08108478,50.394891,232.20448)">
      <path
         d="M 0,0 -1.584,3.168 Z"
         style="fill:#000000;fill-opacity:1;fill-rule:nonzero;stroke:none"
         id="path3496"
         inkscape:connector-curvature="0" />
    </g>
    <g
       id="g3498"
       transform="matrix(0.08108478,0,0,-0.08108478,51.626701,232.1519)">
      <path
         d="M 0,0 2.232,5.184 1.296,4.031 0.721,2.735 0.36,1.367 Z"
         style="fill:#000000;fill-opacity:1;fill-rule:nonzero;stroke:none"
         id="path3500"
         inkscape:connector-curvature="0" />
    </g>
    <g
       id="g3502"
       transform="matrix(0.08108478,0,0,-0.08108478,50.534969,232.01768)">
      <path
         d="M 0,0 -1.151,2.017 -2.231,2.089 -1.584,1.872 -0.937,1.44 -0.576,0.792 -0.144,0 Z"
         style="fill:#000000;fill-opacity:1;fill-rule:nonzero;stroke:none"
         id="path3504"
         inkscape:connector-curvature="0" />
    </g>
    <g
       id="g3506"
       transform="matrix(0.08108478,0,0,-0.08108478,50.943639,232.02346)">
      <path
         d="M 0,0 H 2.736 Z"
         style="fill:#000000;fill-opacity:1;fill-rule:nonzero;stroke:none"
         id="path3508"
         inkscape:connector-curvature="0" />
    </g>
    <g
       id="g3510"
       transform="matrix(0.08108478,0,0,-0.08108478,51.53325,231.91846)">
      <path
         d="M 0,0 0.36,1.152 Z"
         style="fill:#000000;fill-opacity:1;fill-rule:nonzero;stroke:none"
         id="path3512"
         inkscape:connector-curvature="0" />
    </g>
    <g
       id="g3514"
       transform="matrix(0.08108478,0,0,-0.08108478,50.698479,231.86589)">
      <path
         d="m 0,0 -0.648,1.439 v 0.29 L -0.505,2.232 -1.009,3.528 -2.089,4.104 -2.881,3.889 -3.601,3.313 -3.673,2.809 V 2.232 l 0.217,0.144 v 0.36 l 0.359,0.577 0.72,0.503 1.584,-1.08 V 1.656 L -1.009,1.152 -1.369,0.792 -1.08,0.721 -0.793,0.504 -0.433,0.288 -0.072,-0.216 0,-0.072 Z"
         style="fill:#000000;fill-opacity:1;fill-rule:nonzero;stroke:none"
         id="path3516"
         inkscape:connector-curvature="0" />
    </g>
    <g
       id="g3518"
       transform="matrix(0.08108478,0,0,-0.08108478,51.410679,231.82503)">
      <path
         d="M 0,0 0.721,1.872 -0.216,0 Z"
         style="fill:#000000;fill-opacity:1;fill-rule:nonzero;stroke:none"
         id="path3520"
         inkscape:connector-curvature="0" />
    </g>
    <g
       id="g3522"
       transform="matrix(0.08108478,0,0,-0.08108478,52.589969,228.17036)">
      <path
         d="m 0,0 v 8.064 l 0.864,7.993 1.008,8.134 1.512,7.849 1.728,7.776 1.729,7.993 0.792,2.879 0.431,3.096 0.072,3.168 L 7.633,60.048 4.896,54.863 5.904,51.48 6.408,47.809 5.904,44.279 4.248,41.328 3.456,40.536 2.736,39.816 2.089,39.168 1.584,38.592 0.433,37.943 -0.864,37.368 -2.159,36.72 -3.527,36.359 -4.896,36 -6.336,35.784 -7.775,35.641 h -1.441 l -2.304,-46.729 5.832,0.649 4.824,-0.29 z"
         style="fill:#ffffff;fill-opacity:1;fill-rule:nonzero;stroke:none"
         id="path3524"
         inkscape:connector-curvature="0" />
    </g>
    <g
       id="g3526"
       transform="matrix(0.08108478,0,0,-0.08108478,51.328949,231.21784)">
      <path
         d="M 0,0 H 0.288 L 0.792,0.216 0.864,0.288 1.152,0.504 1.008,2.52 0.216,4.392 -1.08,5.904 -2.231,7.487 -3.456,7.128 -4.607,6.48 -5.472,5.472 -6.336,4.392 -6.84,2.88 -6.912,1.368 -6.336,0.72 -5.544,0.288 -2.736,1.656 Z"
         style="fill:#ffffff;fill-opacity:1;fill-rule:nonzero;stroke:none"
         id="path3528"
         inkscape:connector-curvature="0" />
    </g>
    <g
       id="g3530"
       transform="matrix(0.08108478,0,0,-0.08108478,48.246461,231.14785)">
      <path
         d="m 0,0 -0.288,1.513 -0.937,1.296 -1.296,1.08 -1.223,1.223 -1.729,1.657 -1.656,1.727 -1.584,1.584 -1.655,1.513 0.143,3.239 0.361,3.457 0.719,3.384 0.865,3.168 1.296,3.024 1.656,2.88 1.943,2.592 2.377,2.304 1.512,0.864 1.584,0.864 L 3.6,38.232 5.04,39.168 3.96,39.024 2.88,38.664 1.8,38.232 0.576,37.656 -1.368,36.217 -3.097,34.849 -4.608,33.337 -5.832,31.896 -6.984,30.241 -7.992,28.44 l -0.864,-1.944 -1.008,-2.159 0.576,18.647 -0.576,0.145 -0.576,-0.145 -1.081,-30.023 -11.448,11.447 -0.143,-1.08 0.647,-0.792 2.736,-2.807 2.88,-2.952 2.737,-2.736 2.88,-2.88 2.808,-2.736 2.736,-2.808 2.807,-2.808 z"
         style="fill:#ffff80;fill-opacity:1;fill-rule:nonzero;stroke:none"
         id="path3532"
         inkscape:connector-curvature="0" />
    </g>
    <g
       id="g3534"
       transform="matrix(0.08108478,0,0,-0.08108478,54.113699,230.92011)">
      <path
         d="M 0,0 1.008,0.145 2.232,0.72 3.672,1.368 5.256,2.232 6.624,3.168 7.92,4.104 8.928,4.969 9.433,5.76 6.912,6.553 -3.384,0.576 Z"
         style="fill:#c0c0ff;fill-opacity:1;fill-rule:nonzero;stroke:none"
         id="path3536"
         inkscape:connector-curvature="0" />
    </g>
    <g
       id="g3538"
       transform="matrix(0.08108478,0,0,-0.08108478,52.96364,229.99769)">
      <path
         d="M 0,0 H 0.359 L 0.648,0.072 0.864,11.304 0.359,11.376 -0.288,11.088 V 0.072 h 0.143 z"
         style="fill:#ffff80;fill-opacity:1;fill-rule:nonzero;stroke:none"
         id="path3540"
         inkscape:connector-curvature="0" />
    </g>
    <g
       id="g3542"
       transform="matrix(0.08108478,0,0,-0.08108478,52.68927,229.95683)">
      <path
         d="m 0,0 0.071,9.72 -0.935,0.432 0.072,-10.08 z"
         style="fill:#ffff80;fill-opacity:1;fill-rule:nonzero;stroke:none"
         id="path3544"
         inkscape:connector-curvature="0" />
    </g>
    <g
       id="g3546"
       transform="matrix(0.08108478,0,0,-0.08108478,51.007848,229.71746)">
      <path
         d="M 0,0 H 0.647 L 0.864,0.576 -0.144,0.792 -0.36,0.432 Z"
         style="fill:#ffffff;fill-opacity:1;fill-rule:nonzero;stroke:none"
         id="path3548"
         inkscape:connector-curvature="0" />
    </g>
    <g
       id="g3550"
       transform="matrix(0.08108478,0,0,-0.08108478,51.04294,229.41386)">
      <path
         d="M 0,0 H 1.008 L 1.224,0.863 H 0.071 L -0.145,0.504 Z"
         style="fill:#ffffff;fill-opacity:1;fill-rule:nonzero;stroke:none"
         id="path3552"
         inkscape:connector-curvature="0" />
    </g>
    <g
       id="g3554"
       transform="matrix(0.08108478,0,0,-0.08108478,51.410679,229.47808)">
      <path
         d="M 0,0 5.04,0.216 Z"
         style="fill:#000000;fill-opacity:1;fill-rule:nonzero;stroke:none"
         id="path3556"
         inkscape:connector-curvature="0" />
    </g>
    <g
       id="g3558"
       transform="matrix(0.08108478,0,0,-0.08108478,53.880189,228.86512)">
      <path
         d="m 0,0 0.36,29.881 4.608,-3.889 1.944,-1.943 1.872,-2.017 1.872,-2.016 1.728,-2.016 0.36,0.648 v 0.72 L -10.584,43.2 -10.8,42.049 l 2.737,-2.809 2.375,-2.519 1.944,-2.305 1.296,-2.448 1.297,-4.68 v -4.68 L -2.808,17.425 -6.624,11.376 -7.56,10.08 -8.567,9 -9.576,8.064 -10.655,7.2 -11.735,6.408 -12.888,5.688 -14.256,5.112 -15.479,4.465 V 3.601 l 2.735,1.223 2.376,1.296 2.089,1.656 1.8,1.584 1.511,2.016 1.44,2.017 1.297,2.232 L -1.008,18 -1.151,0 Z"
         style="fill:#ffff80;fill-opacity:1;fill-rule:nonzero;stroke:none"
         id="path3560"
         inkscape:connector-curvature="0" />
    </g>
    <g
       id="g3562"
       transform="matrix(0.08108478,0,0,-0.08108478,49.676769,228.25793)">
      <path
         d="m 0,0 3.672,2.232 3.024,2.664 2.737,2.952 2.519,3.168 2.448,3.312 2.376,3.384 2.52,3.384 2.736,3.24 2.88,3.023 0.649,5.041 0.143,4.321 -3.672,0.504 L 20.16,35.137 18.216,32.904 16.2,30.672 14.185,28.439 12.168,26.137 10.224,23.76 8.353,21.456 6.552,19.008 7.704,18.576 8.063,17.496 7.92,16.704 8.353,15.624 7.704,14.616 V 13.464 L 7.128,12.816 6.84,11.232 5.544,10.729 0.288,9.792 Z"
         style="fill:#ffc0c0;fill-opacity:1;fill-rule:nonzero;stroke:none"
         id="path3564"
         inkscape:connector-curvature="0" />
    </g>
    <g
       id="g3566"
       transform="matrix(0.08108478,0,0,-0.08108478,49.68263,227.38802)">
      <path
         d="M 0,0 4.104,0.504 4.319,1.008 4.68,1.584 4.752,1.295 5.112,0.72 6.264,1.224 6.191,2.088 -2.16,1.872 l -0.433,0.144 0.145,0.36 7.56,0.359 V 3.743 L -2.16,3.815 -2.521,4.104 -2.448,4.319 7.488,4.68 7.632,5.184 6.768,5.688 V 5.399 L 6.624,5.184 7.271,4.968 6.768,4.68 H 6.264 L 6.048,5.328 5.76,5.976 -1.872,6.408 -2.232,6.479 -2.16,6.768 5.472,6.552 5.76,7.056 V 7.703 L -2.16,8.855 V 9 9.287 L -0.864,9.144 0.504,9.071 H 1.8 l 1.223,0.505 0.145,0.287 0.216,0.073 -2.376,0.431 -0.433,0.217 -0.359,0.575 -5.977,0.72 -5.687,-1.151 -0.073,0.503 4.752,1.224 h 1.512 l 1.656,-0.071 1.584,-0.217 h 1.657 l -0.216,3.96 -0.72,3.889 -1.297,3.887 -2.159,3.168 -2.952,0.865 -1.368,0.863 -1.296,1.297 -0.936,1.511 -0.505,1.584 -2.735,-0.719 -2.592,-0.865 -2.52,-1.08 -2.521,-1.152 -2.375,-1.151 -2.52,-1.441 -2.592,-1.367 -2.593,-1.513 1.729,0.144 1.656,-0.144 h 1.727 l 1.584,-0.288 1.657,-0.504 1.584,-0.359 1.511,-0.576 1.369,-0.649 2.808,-1.943 2.447,-2.232 1.729,-3.024 0.935,-3.529 -0.143,-10.584 1.44,-0.36 1.368,-0.144 1.511,-0.071 1.441,0.071 1.511,0.072 1.513,0.072 L -1.368,0 Z"
         style="fill:#ffffff;fill-opacity:1;fill-rule:nonzero;stroke:none"
         id="path3568"
         inkscape:connector-curvature="0" />
    </g>
    <g
       id="g3570"
       transform="matrix(0.08108478,0,0,-0.08108478,51.58582,228.21707)">
      <path
         d="m 0,0 -3.672,-2.376 -3.023,-2.664 -2.737,-2.952 -2.52,-3.168 -2.447,-3.312 -2.376,-3.383 -2.521,-3.313 -2.808,-3.312 -2.879,-3.024 -0.577,-5.112 -0.144,-4.321 3.6,-0.503 1.944,2.088 1.944,2.232 2.016,2.232 2.016,2.304 2.016,2.305 1.872,2.376 1.944,2.303 1.8,2.376 -1.223,0.504 -0.289,1.08 0.144,0.792 -0.432,1.008 0.577,1.08 v 1.224 l 0.647,0.576 0.288,1.584 1.296,0.504 5.256,0.935 z"
         style="fill:#ffc0c0;fill-opacity:1;fill-rule:nonzero;stroke:none"
         id="path3572"
         inkscape:connector-curvature="0" />
    </g>
    <g
       id="g3574"
       transform="matrix(0.08108478,0,0,-0.08108478,51.579959,229.09864)">
      <path
         d="m 0,0 -4.104,-0.504 -0.215,-0.504 -0.361,-0.576 -0.144,0.216 -0.287,0.72 -1.153,-0.504 0.073,-0.936 8.351,0.216 0.432,-0.072 -0.144,-0.432 -7.559,-0.288 v -1.08 L 2.16,-3.815 2.448,-4.031 v -0.288 l -9.935,-0.361 -0.073,-0.647 0.792,-0.576 0.073,0.359 0.143,0.217 -0.719,0.359 0.503,0.288 0.504,-0.072 0.145,-0.575 0.359,-0.649 7.632,-0.36 0.36,-0.143 L 2.16,-6.84 -5.472,-6.552 -5.76,-7.056 v -0.648 l 7.92,-1.152 v -0.072 -0.36 l -1.296,0.144 -1.368,0.073 H -1.8 l -1.223,-0.433 -0.217,-0.36 -0.144,-0.072 2.376,-0.36 0.432,-0.288 0.36,-0.504 5.976,-0.792 5.688,1.152 0.073,-0.503 -4.752,-1.153 -1.513,-0.072 -1.655,0.144 -1.657,0.216 H 0.36 l 0.216,-4.032 0.721,-3.96 1.295,-3.888 2.232,-3.816 3.096,-0.576 2.664,-1.296 1.152,-1.872 0.72,-1.296 4.608,1.224 2.52,1.008 2.592,1.152 2.377,1.224 2.519,1.368 2.592,1.369 2.592,1.511 -1.728,-0.072 -1.656,0.072 h -1.727 l -1.584,0.288 -1.729,0.432 -1.584,0.433 -1.439,0.575 -1.369,0.648 -2.879,1.945 -2.449,2.375 -1.656,2.881 -0.935,3.599 0.071,10.656 -1.44,0.288 L 8.856,0.288 7.344,0.36 5.832,0.288 4.393,0.216 2.881,0.144 1.368,0 Z"
         style="fill:#ffffff;fill-opacity:1;fill-rule:nonzero;stroke:none"
         id="path3576"
         inkscape:connector-curvature="0" />
    </g>
    <g
       id="g3578"
       transform="matrix(0.08108478,0,0,-0.08108478,48.310688,227.39387)">
      <path
         d="m 0,0 0.144,10.656 -0.936,0.36 V -0.288 Z"
         style="fill:#ffff80;fill-opacity:1;fill-rule:nonzero;stroke:none"
         id="path3580"
         inkscape:connector-curvature="0" />
    </g>
    <g
       id="g3582"
       transform="matrix(0.08108478,0,0,-0.08108478,48.64342,227.38802)">
      <path
         d="M 0,0 V 10.008 L -0.72,10.295 -0.792,0 Z"
         style="fill:#ffff80;fill-opacity:1;fill-rule:nonzero;stroke:none"
         id="path3584"
         inkscape:connector-curvature="0" />
    </g>
    <g
       id="g3586"
       transform="matrix(0.08108478,0,0,-0.08108478,50.24888,227.13122)">
      <path
         d="m 0,0 0.072,0.36 -0.288,0.216 -0.576,0.145 -0.504,0.071 -0.143,-0.575 0.143,-0.361 0.576,0.073 z"
         style="fill:#ffffff;fill-opacity:1;fill-rule:nonzero;stroke:none"
         id="path3588"
         inkscape:connector-curvature="0" />
    </g>
    <g
       id="g3590"
       transform="matrix(0.08108478,0,0,-0.08108478,50.27224,226.82755)">
      <path
         d="m 0,0 0.072,0.287 -0.288,0.36 -0.431,0.144 H -1.224 V 0.287 l 0.432,-0.432 h 0.36 z"
         style="fill:#ffffff;fill-opacity:1;fill-rule:nonzero;stroke:none"
         id="path3592"
         inkscape:connector-curvature="0" />
    </g>
    <g
       id="g3594"
       transform="matrix(0.08108478,0,0,-0.08108478,49.9395,226.54739)">
      <path
         d="M 0,0 -0.072,0.576 -2.376,0.864 -1.872,0.36 Z"
         style="fill:#ffffff;fill-opacity:1;fill-rule:nonzero;stroke:none"
         id="path3596"
         inkscape:connector-curvature="0" />
    </g>
    <g
       id="g3598"
       transform="matrix(0.08108478,0,0,-0.08108478,51.317239,229.93348)">
      <path
         d="M 0,0 0.145,-0.504 2.521,-1.008 2.017,-0.359 Z"
         style="fill:#ffffff;fill-opacity:1;fill-rule:nonzero;stroke:none"
         id="path3600"
         inkscape:connector-curvature="0" />
    </g>
    <g
       id="g3602"
       transform="matrix(0.08108478,0,0,-0.08108478,46.506698,226.10372)">
      <path
         d="M 0,0 2.159,0.073 4.464,1.585 5.04,1.872 5.544,2.305 13.104,6.624 11.016,6.984 9,6.696 7.2,6.12 5.472,5.112 3.743,3.889 2.088,2.809 0.359,1.585 -1.296,0.577 -0.792,0.217 Z"
         style="fill:#c0c0ff;fill-opacity:1;fill-rule:nonzero;stroke:none"
         id="path3604"
         inkscape:connector-curvature="0" />
    </g>
    <g
       id="g3606"
       transform="matrix(0.08108478,0,0,-0.08108478,50.079579,225.88763)">
      <path
         d="M 0,0 1.368,0.863 2.664,1.943 3.672,3.24 4.32,4.896 4.248,5.832 3.744,6.408 2.952,6.695 2.16,6.479 1.368,5.904 0.648,5.184 -0.144,6.191 -0.72,6.84 -1.728,6.912 -2.376,6.623 -2.808,5.976 -3.023,4.896 -2.664,3.455 -1.943,2.16 -1.08,1.008 Z"
         style="fill:#ffffff;fill-opacity:1;fill-rule:nonzero;stroke:none"
         id="path3608"
         inkscape:connector-curvature="0" />
    </g>
    <g
       id="g3610"
       transform="matrix(0.08108478,0,0,-0.08108478,51.71427,225.17545)">
      <path
         d="m 0,0 h 1.44 l 1.44,0.433 1.224,0.575 1.008,1.009 0.792,1.007 0.72,1.008 V 3.024 L 6.192,2.088 5.4,1.225 4.752,0.504 l 1.44,0.289 1.224,0.719 1.08,1.009 0.792,1.08 0.216,6.047 -1.656,5.76 -2.16,5.688 -1.224,5.76 L 4.032,30.24 3.816,33.553 3.889,33.984 4.32,33.84 4.752,30.168 5.473,26.568 6.48,22.896 7.776,19.152 9.145,15.336 10.44,11.377 11.088,7.344 10.152,3.601 9.648,2.881 9.288,2.377 8.928,1.801 8.496,1.225 l 1.152,0.287 0.936,0.72 1.08,0.792 0.792,1.008 0.288,-0.143 V 3.601 l -0.72,-0.937 2.088,1.656 1.368,2.305 0.577,2.735 -0.145,3.025 -1.512,5.543 -1.944,5.472 -1.512,5.617 -0.576,5.688 h -12.6 l -0.216,-2.664 0.072,-2.664 0.504,-2.809 0.576,-2.664 0.937,-4.103 1.511,-4.032 1.44,-3.888 0.936,-4.105 -0.072,-0.36 -0.36,0.145 -2.448,6.408 -2.304,6.552 -1.584,6.839 -0.144,6.984 -2.88,0.289 -0.36,-3.961 0.433,-3.959 1.007,-4.032 1.296,-3.817 1.44,-3.887 1.08,-3.889 L -0.792,7.344 -1.08,3.601 -1.8,3.024 -2.592,2.664 -3.384,2.377 l -0.792,0.287 -0.576,0.36 -0.576,0.361 -0.432,0.647 -0.072,0.649 0.36,1.223 0.72,0.792 h 0.288 L -4.32,6.408 -4.536,6.121 -4.824,5.832 -4.968,5.256 V 4.393 l 0.432,-0.504 0.576,-0.504 1.728,0.359 0.793,0.937 0.287,1.44 -0.432,1.008 -0.288,1.008 0.433,0.072 0.359,0.071 -2.52,6.265 -2.376,6.479 -1.368,6.552 0.073,6.768 h -21.168 l 0.575,-3.6 1.297,0.504 h 1.799 l 1.8,0.072 1.296,0.865 0.936,-1.945 0.648,-2.16 0.288,-2.447 -0.288,-2.233 -0.504,-1.872 -0.504,-1.727 -0.504,-1.873 -0.288,-1.799 2.304,-1.441 0.216,-0.936 v -0.936 l -0.216,-0.215 -0.288,0.215 -0.864,1.296 -1.296,0.792 -0.792,0.865 v 1.223 l 0.432,1.656 0.432,1.584 0.504,1.657 0.576,1.656 -0.216,0.359 -0.36,0.217 0.36,1.367 -0.504,0.217 -0.648,0.071 v -0.36 l -0.288,-0.72 0.576,0.073 0.504,-0.073 -1.44,-0.719 -1.584,-0.217 -1.799,0.217 -1.585,0.431 -0.504,-4.896 0.648,-5.184 -0.144,-4.968 -2.088,-4.248 -0.575,-0.504 -0.577,-0.432 -0.576,-0.144 h -0.72 l -0.576,0.288 -0.36,0.361 -0.432,0.575 -0.215,0.576 0.288,0.864 0.791,0.72 h 0.288 l 0.216,-0.144 -0.288,-0.576 -0.503,-0.575 0.575,-1.009 h 1.08 l 0.72,0.576 v 1.296 l -0.648,0.936 -0.576,0.648 -1.44,0.288 -0.144,3.312 0.72,3.097 1.224,3.168 1.224,2.952 -0.288,-2.881 -0.863,-2.951 -0.721,-3.025 0.288,-3.024 0.216,-0.359 0.217,0.072 1.08,7.199 v 0.145 h 0.359 l -0.359,-5.113 0.575,-5.183 1.296,5.759 -0.36,5.976 -0.504,5.977 0.864,5.975 -0.216,0.433 -0.071,0.287 -1.225,-3.455 -0.576,-3.672 -0.576,-3.601 -1.584,-3.383 -1.224,-3.96 -0.143,-4.033 -0.793,-0.719 -0.576,-0.865 -0.144,-2.088 0.936,-1.583 1.08,-0.649 1.368,-0.143 1.296,0.36 1.152,0.504 0.792,0.576 0.721,0.575 0.503,0.576 0.504,0.504 0.288,-0.143 0.072,-0.217 -0.792,-1.08 -1.008,-0.863 -1.151,-0.865 -1.225,-0.647 2.088,0.072 1.584,1.008 1.152,1.08 0.649,0.863 0.359,-0.143 V 4.393 l -0.504,-0.792 -0.864,-0.937 -0.864,-0.791 -1.008,-0.576 1.297,0.359 1.727,1.008 1.584,1.512 1.08,2.232 h 0.216 0.288 l -0.36,-1.296 -0.72,-1.368 -0.936,-1.08 -1.295,-1.152 -0.289,-0.215 -0.215,-0.072 1.799,0.287 1.296,0.936 1.152,1.296 1.152,1.368 0.576,-1.368 0.936,-0.863 0.648,-0.576 0.792,-0.504 -1.08,2.375 -0.36,2.232 0.504,-0.648 0.576,-0.936 0.576,-1.223 0.648,-1.153 0.648,-0.792 1.296,-0.719 h 0.648 l 0.576,-0.216 0.576,-0.145 0.432,-0.072 -1.223,0.793 -1.08,1.08 -0.937,1.367 -0.647,1.512 v 0.36 0.216 l 0.287,0.217 0.288,-0.217 0.72,-1.512 1.008,-1.511 1.296,-1.153 1.728,-0.719 0.936,0.071 0.792,0.217 0.72,0.287 0.433,0.505 0.359,1.655 -0.216,1.584 -0.576,0.432 -0.504,0.72 0.072,0.288 h 0.288 l 0.432,-0.216 0.36,-0.288 -2.087,5.185 2.664,-4.033 0.719,0.361 0.648,0.575 H -6.12 L -6.048,8.137 -7.056,6.48 -7.271,4.393 -7.056,3.385 -6.552,2.448 -5.832,1.656 -4.968,1.008 -3.384,0.793 -1.8,0.937 -0.359,1.44 1.008,2.232 1.368,2.809 1.872,3.313 H 2.088 L 2.376,3.024 -0.216,0.145 h 0.072 z"
         style="fill:#ffffff;fill-opacity:1;fill-rule:nonzero;stroke:none"
         id="path3612"
         inkscape:connector-curvature="0" />
    </g>
    <g
       id="g3614"
       transform="matrix(0.08108478,0,0,-0.08108478,50.72177,224.97107)">
      <path
         d="m 0,0 0.792,0.144 0.721,0.36 0.288,0.647 V 1.872 L 1.297,0.792 0.721,0.504 H 0 L -1.008,1.8 -0.576,3.312 0.721,4.248 0.288,4.104 -0.216,3.888 -0.72,3.672 -1.08,3.601 -1.367,3.96 -1.656,4.464 -1.512,3.601 -1.08,2.735 -1.296,1.8 l 0.36,-1.008 0.36,-0.576 z"
         style="fill:#000000;fill-opacity:1;fill-rule:nonzero;stroke:none"
         id="path3616"
         inkscape:connector-curvature="0" />
    </g>
    <g
       id="g3618"
       transform="matrix(0.08108478,0,0,-0.08108478,52.75934,224.80763)">
      <path
         d="M 0,0 0.936,3.456 0.791,6.912 0,10.368 l -1.225,3.456 -1.511,3.456 -1.225,3.6 -0.935,3.457 -0.216,3.672 v -3.672 l 0.575,-3.601 1.224,-3.528 1.296,-3.672 1.224,-3.456 1.08,-3.528 0.217,-3.312 z"
         style="fill:#000000;fill-opacity:1;fill-rule:nonzero;stroke:none"
         id="path3620"
         inkscape:connector-curvature="0" />
    </g>
    <g
       id="g3622"
       transform="matrix(0.08108478,0,0,-0.08108478,49.66513,224.74341)">
      <path
         d="M 0,0 0.216,-0.144 1.296,2.377 0.504,0.937 Z"
         style="fill:#000000;fill-opacity:1;fill-rule:nonzero;stroke:none"
         id="path3624"
         inkscape:connector-curvature="0" />
    </g>
    <g
       id="g3626"
       transform="matrix(0.08108478,0,0,-0.08108478,49.54833,224.66747)">
      <path
         d="m 0,0 1.44,4.823 -1.8,-4.895 0.144,-0.144 z"
         style="fill:#000000;fill-opacity:1;fill-rule:nonzero;stroke:none"
         id="path3628"
         inkscape:connector-curvature="0" />
    </g>
    <g
       id="g3630"
       transform="matrix(0.08108478,0,0,-0.08108478,51.486609,224.67334)">
      <path
         d="m 0,0 -0.216,0.072 -0.36,0.144 0.431,-0.144 z"
         style="fill:#000000;fill-opacity:1;fill-rule:nonzero;stroke:none"
         id="path3632"
         inkscape:connector-curvature="0" />
    </g>
    <g
       id="g3634"
       transform="matrix(0.08108478,0,0,-0.08108478,50.78599,224.63248)">
      <path
         d="M 0,0 H 1.08 L 0.145,0.864 -0.504,2.16 -0.216,1.224 0,0.072 Z"
         style="fill:#000000;fill-opacity:1;fill-rule:nonzero;stroke:none"
         id="path3636"
         inkscape:connector-curvature="0" />
    </g>
    <g
       id="g3638"
       transform="matrix(0.08108478,0,0,-0.08108478,52.30973,224.62662)">
      <path
         d="m 0,0 -1.584,6.768 -2.447,6.696 -2.017,6.912 -0.504,6.984 -0.071,-6.984 1.871,-6.768 L -2.231,6.912 -0.144,0 h 0.073 z"
         style="fill:#000000;fill-opacity:1;fill-rule:nonzero;stroke:none"
         id="path3640"
         inkscape:connector-curvature="0" />
    </g>
    <g
       id="g3642"
       transform="matrix(0.08108478,0,0,-0.08108478,50.143798,224.49818)">
      <path
         d="m 0,0 h 2.017 l 0.431,0.288 -3.24,0.216 0.288,-0.288 z"
         style="fill:#000000;fill-opacity:1;fill-rule:nonzero;stroke:none"
         id="path3644"
         inkscape:connector-curvature="0" />
    </g>
    <g
       id="g3646"
       transform="matrix(0.08108478,0,0,-0.08108478,51.410679,224.45732)">
      <path
         d="M 0,0 1.44,-0.504 0,1.296 -1.224,3.384 -2.231,5.76 -3.096,8.136 -0.216,0.647 -0.792,0 -1.872,-0.216 -4.68,4.896 -2.088,-0.36 h 0.36 l 0.72,0.072 0.576,0.072 z"
         style="fill:#000000;fill-opacity:1;fill-rule:nonzero;stroke:none"
         id="path3648"
         inkscape:connector-curvature="0" />
    </g>
    <g
       id="g3650"
       transform="matrix(0.08108478,0,0,-0.08108478,50.49998,224.31138)">
      <path
         d="M 0,0 -0.145,-0.072 H -0.433 L -1.225,0.217 -1.944,0.432 -2.592,0.576 -3.528,0.648 -6.48,0.576 -7.416,0 -7.849,0.288 v -0.504 l 0.433,-0.36 1.8,0.504 L -3.744,0 -1.8,-0.288 0,-0.792 v 0.433 z"
         style="fill:#000000;fill-opacity:1;fill-rule:nonzero;stroke:none"
         id="path3652"
         inkscape:connector-curvature="0" />
    </g>
    <g
       id="g3654"
       transform="matrix(0.08108478,0,0,-0.08108478,53.27887,224.14208)">
      <path
         d="M 0,0 10.944,-0.144 V 0.217 L 10.872,0.432 0.288,0.648 0,0.432 -0.144,-0.144 Z"
         style="fill:#ffff80;fill-opacity:1;fill-rule:nonzero;stroke:none"
         id="path3656"
         inkscape:connector-curvature="0" />
    </g>
    <g
       id="g3658"
       transform="matrix(0.08108478,0,0,-0.08108478,50.40654,223.97865)">
      <path
         d="M 0,0 0.647,0.217 1.152,0.505 V 1.513 L 0.937,1.873 0.504,2.16 0.647,1.873 0.792,1.656 0.864,1.152 0.647,0.576 0.288,0.505 0,0.361 -2.952,1.656 H -3.096 L -3.24,1.44 -2.88,0.793 -1.944,0.505 -0.864,0.361 Z"
         style="fill:#000000;fill-opacity:1;fill-rule:nonzero;stroke:none"
         id="path3660"
         inkscape:connector-curvature="0" />
    </g>
    <g
       id="g3662"
       transform="matrix(0.08108478,0,0,-0.08108478,54.090419,223.82678)">
      <path
         d="M 0,0 -0.145,1.08 H -9.217 L -9.36,0.144 Z"
         style="fill:#ffff80;fill-opacity:1;fill-rule:nonzero;stroke:none"
         id="path3664"
         inkscape:connector-curvature="0" />
    </g>
    <g
       id="g3666"
       transform="matrix(0.08108478,0,0,-0.08108478,53.83934,221.77178)">
      <path
         d="M 0,0 1.368,1.584 H 2.376 L 3.097,0.863 3.456,-0.072 3.24,-0.504 2.736,-0.864 2.88,-0.072 2.088,0.792 1.656,0.72 1.296,0.432 1.08,-0.576 1.368,-1.584 1.8,-1.801 l 0.576,-0.215 0.576,0.072 0.576,0.288 1.008,1.368 V 1.367 L 4.032,2.232 3.24,3.096 2.088,3.384 0.792,3.096 -0.647,1.367 -1.8,-0.504 l -1.224,-2.088 -1.152,-1.944 -1.296,-1.8 -1.511,-1.512 -1.584,-1.08 -1.873,-0.36 0.576,-2.808 -0.287,-2.808 -0.721,-2.664 -1.224,-2.376 1.224,-3.744 v 0.36 z"
         style="fill:#ffff80;fill-opacity:1;fill-rule:nonzero;stroke:none"
         id="path3668"
         inkscape:connector-curvature="0" />
    </g>
    <g
       id="g3670"
       transform="matrix(0.08108478,0,0,-0.08108478,53.658388,222.32639)">
      <path
         d="m 0,0 -1.009,-1.584 0.72,-0.721 v -1.584 l -1.151,-4.824 0.143,-0.359 0.576,-0.073 h 0.432 l 0.505,0.217 0.575,4.392 v 4.032 z"
         style="fill:#ffffff;fill-opacity:1;fill-rule:nonzero;stroke:none"
         id="path3672"
         inkscape:connector-curvature="0" />
    </g>
    <g
       id="g3674"
       transform="matrix(0.08108478,0,0,-0.08108478,53.232229,222.35561)">
      <path
         d="m 0,0 -5.977,3.097 -1.007,-2.45 v -2.878 l 3.744,-2.305 -0.217,1.296 -0.359,1.009 -3.385,2.375 0.217,0.216 v 0.216 l 3.168,-2.016 1.152,0.216 1.008,0.287 0.863,0.433 z"
         style="fill:#ffffff;fill-opacity:1;fill-rule:nonzero;stroke:none"
         id="path3676"
         inkscape:connector-curvature="0" />
    </g>
    <g
       id="g3678"
       transform="matrix(0.08108478,0,0,-0.08108478,54.18964,223.46491)">
      <path
         d="M 0,0 -6.12,3.961 0.864,3.529 2.231,2.736 2.448,1.585 1.655,0.576 Z"
         style="fill:#ffff80;fill-opacity:1;fill-rule:nonzero;stroke:none"
         id="path3680"
         inkscape:connector-curvature="0" />
    </g>
    <g
       id="g3682"
       transform="matrix(0.08108478,0,0,-0.08108478,54.166291,223.50577)">
      <path
         d="m 0,0 -8.137,5.185 1.369,6.12 -0.576,-0.649 -0.432,-0.719 -0.432,-0.289 -0.504,-0.359 -2.52,-5.904 1.08,-5.616 h 9.288 z"
         style="fill:#ffffff;fill-opacity:1;fill-rule:nonzero;stroke:none"
         id="path3684"
         inkscape:connector-curvature="0" />
    </g>
    <g
       id="g3686"
       transform="matrix(0.08108478,0,0,-0.08108478,54.195429,223.12623)">
      <path
         d="M 0,0 0.793,0.216 1.08,0.72 0.937,4.896 -0.144,5.688 Z"
         style="fill:#ffffff;fill-opacity:1;fill-rule:nonzero;stroke:none"
         id="path3688"
         inkscape:connector-curvature="0" />
    </g>
    <g
       id="g3690"
       transform="matrix(0.08108478,0,0,-0.08108478,50.587478,223.38311)">
      <path
         d="M 0,0 -1.799,2.017 -0.215,1.872 1.656,1.8 3.673,1.872 5.257,2.592 5.329,2.808 5.473,3.168 4.896,3.672 4.32,4.176 3.673,4.464 2.953,4.752 2.448,5.04 V 5.256 L 3.601,5.185 2.377,5.832 1.009,5.903 -0.215,5.544 -1.512,5.04 -0.72,5.256 0.072,5.399 0.721,5.256 0.36,4.896 -0.432,4.608 -1.224,4.176 -1.943,3.528 -2.592,2.592 Z"
         style="fill:#000000;fill-opacity:1;fill-rule:nonzero;stroke:none"
         id="path3692"
         inkscape:connector-curvature="0" />
    </g>
    <g
       id="g3694"
       transform="matrix(0.08108478,0,0,-0.08108478,49.834429,223.34225)">
      <path
         d="M 0,0 1.512,1.151 0.936,1.08 0.576,0.576 0.144,0.433 -0.217,0 h 0.072 z"
         style="fill:#000000;fill-opacity:1;fill-rule:nonzero;stroke:none"
         id="path3696"
         inkscape:connector-curvature="0" />
    </g>
    <g
       id="g3698"
       transform="matrix(0.08108478,0,0,-0.08108478,52.899421,223.16709)">
      <path
         d="M 0,0 0.792,2.592 0.864,4.536 -2.88,6.912 -2.736,4.319 0.504,1.944 0.432,1.44 l -2.953,1.872 1.513,-5.256 0.504,0.935 z"
         style="fill:#ffffff;fill-opacity:1;fill-rule:nonzero;stroke:none"
         id="path3700"
         inkscape:connector-curvature="0" />
    </g>
    <g
       id="g3702"
       transform="matrix(0.08108478,0,0,-0.08108478,50.575829,223.17873)">
      <path
         d="M 0,0 -0.288,0.575 -0.432,1.224 -1.584,0.359 -0.936,0 Z"
         style="fill:#ffffff;fill-opacity:1;fill-rule:nonzero;stroke:none"
         id="path3704"
         inkscape:connector-curvature="0" />
    </g>
    <g
       id="g3706"
       transform="matrix(0.08108478,0,0,-0.08108478,49.612549,223.16709)">
      <path
         d="M 0,0 -0.359,0.647 -0.432,1.224 -1.656,0.72 -1.008,0 Z"
         style="fill:#ffffff;fill-opacity:1;fill-rule:nonzero;stroke:none"
         id="path3708"
         inkscape:connector-curvature="0" />
    </g>
    <g
       id="g3710"
       transform="matrix(0.08108478,0,0,-0.08108478,50.90279,223.16709)">
      <path
         d="M 0,0 0.288,0.144 0.576,0.432 0.072,0.864 -0.432,0 h 0.216 z"
         style="fill:#ffffff;fill-opacity:1;fill-rule:nonzero;stroke:none"
         id="path3712"
         inkscape:connector-curvature="0" />
    </g>
    <g
       id="g3714"
       transform="matrix(0.08108478,0,0,-0.08108478,53.996989,223.09702)">
      <path
         d="M 0,0 H 0.936 L 1.584,0.576 1.439,6.048 -0.36,7.344 V 0 h 0.215 z"
         style="fill:#ffffff;fill-opacity:1;fill-rule:nonzero;stroke:none"
         id="path3716"
         inkscape:connector-curvature="0" />
    </g>
    <g
       id="g3718"
       transform="matrix(0.08108478,0,0,-0.08108478,49.472389,223.00944)">
      <path
         d="M 0,0 -0.071,-0.433 -0.216,-0.721 0.217,-0.289 0.721,0 1.297,0.144 2.377,0.432 H 3.168 4.104 L 5.112,0.287 5.688,0.359 5.041,0.647 3.385,0.791 1.729,0.647 Z"
         style="fill:#ffffff;fill-opacity:1;fill-rule:nonzero;stroke:none"
         id="path3720"
         inkscape:connector-curvature="0" />
    </g>
    <g
       id="g3722"
       transform="matrix(0.08108478,0,0,-0.08108478,50.02123,223.02115)">
      <path
         d="m 0,0 -1.512,1.08 -2.089,0.288 -2.087,-0.36 -1.152,-0.792 -0.144,1.8 0.432,1.511 h 1.512 l 1.439,-0.214 1.441,0.214 1.08,0.577 0.864,-2.016 z"
         style="fill:#ffffff;fill-opacity:1;fill-rule:nonzero;stroke:none"
         id="path3724"
         inkscape:connector-curvature="0" />
    </g>
    <g
       id="g3726"
       transform="matrix(0.08108478,0,0,-0.08108478,53.775109,222.37897)">
      <path
         d="m 0,0 v -8.64 l 1.44,0.072 0.289,7.056 z"
         style="fill:#ffffff;fill-opacity:1;fill-rule:nonzero;stroke:none"
         id="path3728"
         inkscape:connector-curvature="0" />
    </g>
    <g
       id="g3730"
       transform="matrix(0.08108478,0,0,-0.08108478,53.564959,222.48983)">
      <path
         d="m 0,0 -1.08,-2.232 0.72,0.431 0.504,0.576 0.144,0.649 z"
         style="fill:#ffffff;fill-opacity:1;fill-rule:nonzero;stroke:none"
         id="path3732"
         inkscape:connector-curvature="0" />
    </g>
    <g
       id="g3734"
       transform="matrix(0.08108478,0,0,-0.08108478,47.434978,234.68564)">
      <path
         d="M 0,0 -1.44,-1.584 H -2.448 L -3.097,-0.937 -3.528,0 -3.24,0.504 -2.809,0.792 V 0 l 0.649,-0.792 0.431,0.071 0.432,0.288 0.145,1.009 L -1.368,1.512 -1.801,1.799 -2.448,1.943 -3.024,1.872 -3.601,1.655 -4.608,0.287 V -1.44 l 0.576,-0.792 0.792,-0.865 1.151,-0.288 1.225,0.217 1.439,1.728 1.153,1.944 1.295,2.088 1.153,1.943 1.296,1.8 1.511,1.513 1.513,1.007 1.943,0.432 -0.647,2.809 0.288,2.807 0.791,2.664 1.152,2.376 -1.223,3.745 v -0.36 z"
         style="fill:#ffff80;fill-opacity:1;fill-rule:nonzero;stroke:none"
         id="path3736"
         inkscape:connector-curvature="0" />
    </g>
    <g
       id="g3738"
       transform="matrix(0.08108478,0,0,-0.08108478,47.615919,234.13112)">
      <path
         d="M 0,0 0.937,1.585 0.216,2.232 V 3.889 L 1.44,8.641 1.224,9 0.72,9.145 H 0.216 L -0.216,8.929 -0.792,4.465 v -3.96 z"
         style="fill:#ffffff;fill-opacity:1;fill-rule:nonzero;stroke:none"
         id="path3740"
         inkscape:connector-curvature="0" />
    </g>
    <g
       id="g3742"
       transform="matrix(0.08108478,0,0,-0.08108478,48.03631,234.09604)">
      <path
         d="M 0,0 5.976,-3.096 6.911,-0.648 6.983,2.16 3.312,4.464 3.455,3.096 3.815,2.16 7.199,-0.072 6.983,-0.433 V -0.648 L 3.815,1.439 2.735,1.225 1.655,0.864 0.792,0.432 Z"
         style="fill:#ffffff;fill-opacity:1;fill-rule:nonzero;stroke:none"
         id="path3744"
         inkscape:connector-curvature="0" />
    </g>
    <g
       id="g3746"
       transform="matrix(0.08108478,0,0,-0.08108478,47.08467,232.99846)">
      <path
         d="m 0,0 6.048,-3.888 -6.912,0.432 -1.441,0.792 -0.143,1.08 0.792,1.08 z"
         style="fill:#ffff80;fill-opacity:1;fill-rule:nonzero;stroke:none"
         id="path3748"
         inkscape:connector-curvature="0" />
    </g>
    <g
       id="g3750"
       transform="matrix(0.08108478,0,0,-0.08108478,47.10803,232.95761)">
      <path
         d="m 0,0 8.136,-5.112 -1.44,-6.192 0.575,0.72 0.504,0.72 0.433,0.288 0.504,0.36 2.447,5.832 -1.079,5.688 H 0.792 Z"
         style="fill:#ffffff;fill-opacity:1;fill-rule:nonzero;stroke:none"
         id="path3752"
         inkscape:connector-curvature="0" />
    </g>
    <g
       id="g3754"
       transform="matrix(0.08108478,0,0,-0.08108478,47.07881,233.33127)">
      <path
         d="M 0,0 -0.792,-0.287 -1.08,-0.791 -0.936,-4.896 0.072,-5.688 Z"
         style="fill:#ffffff;fill-opacity:1;fill-rule:nonzero;stroke:none"
         id="path3756"
         inkscape:connector-curvature="0" />
    </g>
    <g
       id="g3758"
       transform="matrix(0.08108478,0,0,-0.08108478,48.36905,233.29034)">
      <path
         d="m 0,0 -0.72,-2.593 -0.072,-1.872 3.744,-2.448 -0.216,2.593 -3.168,2.447 v 0.504 L 2.448,-3.24 1.08,1.943 0.504,1.007 Z"
         style="fill:#ffffff;fill-opacity:1;fill-rule:nonzero;stroke:none"
         id="path3760"
         inkscape:connector-curvature="0" />
    </g>
    <g
       id="g3762"
       transform="matrix(0.08108478,0,0,-0.08108478,47.277318,233.35456)">
      <path
         d="m 0,0 h -0.864 l -0.72,-0.577 0.144,-5.544 1.728,-1.295 V 0 H 0.144 Z"
         style="fill:#ffffff;fill-opacity:1;fill-rule:nonzero;stroke:none"
         id="path3764"
         inkscape:connector-curvature="0" />
    </g>
    <g
       id="g3766"
       transform="matrix(0.08108478,0,0,-0.08108478,47.499209,234.07267)">
      <path
         d="M 0,0 V 8.567 H -1.44 L -1.729,1.368 Z"
         style="fill:#ffffff;fill-opacity:1;fill-rule:nonzero;stroke:none"
         id="path3768"
         inkscape:connector-curvature="0" />
    </g>
    <g
       id="g3770"
       transform="matrix(0.08108478,0,0,-0.08108478,47.703499,233.9676)">
      <path
         d="M 0,0 1.008,2.304 0.432,1.8 -0.072,1.296 -0.144,0.576 Z"
         style="fill:#ffffff;fill-opacity:1;fill-rule:nonzero;stroke:none"
         id="path3772"
         inkscape:connector-curvature="0" />
    </g>
    <g
       id="g3774"
       transform="matrix(0.08108478,0,0,-0.08108478,48.018739,232.31542)">
      <path
         d="m 0,0 -11.016,0.072 v -0.36 L -10.8,-0.576 -0.288,-0.72 0.145,-0.576 0.288,0.072 0.145,0 Z"
         style="fill:#ffff80;fill-opacity:1;fill-rule:nonzero;stroke:none"
         id="path3776"
         inkscape:connector-curvature="0" />
    </g>
    <g
       id="g3778"
       transform="matrix(0.08108478,0,0,-0.08108478,47.17225,232.63651)">
      <path
         d="m 0,0 0.216,-1.225 h 9.072 l 0.288,1.08 z"
         style="fill:#ffff80;fill-opacity:1;fill-rule:nonzero;stroke:none"
         id="path3780"
         inkscape:connector-curvature="0" />
    </g>
    <g
       id="g3782"
       transform="matrix(0.08108478,0,0,-0.08108478,47.183889,233.04518)">
      <path
         d="M 0,0 3.24,-2.304 Z"
         style="fill:#ffff80;fill-opacity:1;fill-rule:nonzero;stroke:none"
         id="path3784"
         inkscape:connector-curvature="0" />
    </g>
    <g
       id="g3786"
       transform="matrix(0.08108478,0,0,-0.08108478,50.83857,222.96858)">
      <path
         d="M 0,0 -0.792,0.144 -1.8,0.287 -2.736,0.072 -3.744,-0.504 -2.952,-0.072 H -1.8 l 1.152,-0.073 z"
         style="fill:#ffffff;fill-opacity:1;fill-rule:nonzero;stroke:none"
         id="path3788"
         inkscape:connector-curvature="0" />
    </g>
    <g
       id="g3790"
       transform="matrix(0.08108478,0,0,-0.08108478,51.007848,222.87522)">
      <path
         d="M 0,0 V 0.216 L -0.288,1.08 -0.864,1.8 -1.584,2.304 -2.376,2.593 -3.168,2.736 H -3.815 -4.464 L -5.04,2.593 -6.12,2.521 -7.056,2.376 -8.208,2.521 -9.36,2.88 -8.496,1.8 -7.128,1.224 -5.616,1.08 -4.248,1.009 -3.312,1.224 -2.521,1.08 -1.656,0.864 -0.72,0.648 -0.144,0 Z"
         style="fill:#000000;fill-opacity:1;fill-rule:nonzero;stroke:none"
         id="path3792"
         inkscape:connector-curvature="0" />
    </g>
    <g
       id="g3794"
       transform="matrix(0.08108478,0,0,-0.08108478,49.431529,221.86522)">
      <path
         d="M 0,0 H 41.185 L 43.057,2.664 41.328,1.801 39.313,1.44 37.297,1.297 35.353,1.801 34.561,2.088 33.912,2.448 33.265,2.809 32.545,3.168 30.672,2.448 28.656,1.584 26.713,1.297 24.553,1.801 23.616,2.088 22.681,2.592 21.816,2.952 20.881,3.096 19.944,2.448 18.721,1.944 17.641,1.584 16.416,1.44 H 15.12 L 14.041,1.584 12.744,2.016 11.664,2.592 10.801,3.096 10.225,3.385 9.36,3.096 8.641,2.664 7.776,2.16 6.84,1.801 5.185,1.44 h -1.8 L 1.801,1.801 0.288,2.448 -0.144,2.809 -0.504,3.096 H -0.791 -1.08 L -1.512,2.952 -1.871,2.592 -2.304,2.305 -2.808,2.088 -2.735,1.297 -2.375,0.504 Z"
         style="fill:#ffff80;fill-opacity:1;fill-rule:nonzero;stroke:none"
         id="path3796"
         inkscape:connector-curvature="0" />
    </g>
    <g
       id="g3798"
       transform="matrix(0.08108478,0,0,-0.08108478,51.112941,231.99433)">
      <path
         d="m 0,0 h -2.016 l -0.36,-0.288 3.24,-0.288 -0.288,0.431 z"
         style="fill:#000000;fill-opacity:1;fill-rule:nonzero;stroke:none"
         id="path3800"
         inkscape:connector-curvature="0" />
    </g>
    <g
       id="g3802"
       transform="matrix(0.08108478,0,0,-0.08108478,50.750999,232.18112)">
      <path
         d="M 0,0 0.288,0.144 H 0.432 L 1.368,-0.145 2.016,-0.288 2.736,-0.504 3.601,-0.576 6.624,-0.504 7.488,0 7.92,-0.288 V 0.216 L 7.488,0.647 5.76,0.144 3.815,0.071 1.944,0.36 0.216,0.792 0.144,0.432 Z"
         style="fill:#000000;fill-opacity:1;fill-rule:nonzero;stroke:none"
         id="path3804"
         inkscape:connector-curvature="0" />
    </g>
    <g
       id="g3806"
       transform="matrix(0.08108478,0,0,-0.08108478,50.850199,232.51394)">
      <path
         d="m 0,0 -0.647,-0.144 -0.361,-0.36 -0.216,-1.008 0.361,-0.359 0.431,-0.217 -0.144,0.217 -0.216,0.215 v 0.576 l 0.145,0.505 0.36,0.071 0.287,0.145 2.952,-1.297 0.216,0.144 0.145,0.145 -0.504,0.647 -0.865,0.288 -1.08,0.073 z"
         style="fill:#000000;fill-opacity:1;fill-rule:nonzero;stroke:none"
         id="path3808"
         inkscape:connector-curvature="0" />
    </g>
    <g
       id="g3810"
       transform="matrix(0.08108478,0,0,-0.08108478,50.669258,233.1094)">
      <path
         d="M 0,0 1.8,-1.943 0.288,-1.872 -1.656,-1.656 -3.744,-1.872 -5.185,-2.52 -5.4,-2.736 v -0.432 l 0.576,-0.504 0.504,-0.432 0.576,-0.36 0.792,-0.288 0.504,-0.216 v -0.288 l -1.153,0.145 1.297,-0.649 1.367,-0.072 1.225,0.36 1.296,0.432 -0.792,-0.216 -0.864,-0.072 -0.576,0.072 0.36,0.432 0.72,0.217 0.792,0.431 0.72,0.649 0.72,1.007 z"
         style="fill:#000000;fill-opacity:1;fill-rule:nonzero;stroke:none"
         id="path3812"
         inkscape:connector-curvature="0" />
    </g>
    <g
       id="g3814"
       transform="matrix(0.08108478,0,0,-0.08108478,51.422389,233.1444)">
      <path
         d="m 0,0 -1.44,-1.225 0.576,0.145 0.36,0.432 0.359,0.216 L 0.216,0 H 0.144 Z"
         style="fill:#000000;fill-opacity:1;fill-rule:nonzero;stroke:none"
         id="path3816"
         inkscape:connector-curvature="0" />
    </g>
    <g
       id="g3818"
       transform="matrix(0.08108478,0,0,-0.08108478,50.680911,233.30784)">
      <path
         d="M 0,0 0.36,-0.576 0.504,-1.297 1.512,-0.361 1.008,0 Z"
         style="fill:#ffffff;fill-opacity:1;fill-rule:nonzero;stroke:none"
         id="path3820"
         inkscape:connector-curvature="0" />
    </g>
    <g
       id="g3822"
       transform="matrix(0.08108478,0,0,-0.08108478,51.65005,233.32541)">
      <path
         d="M 0,0 0.288,-0.504 0.433,-1.152 1.584,-0.576 0.937,0 Z"
         style="fill:#ffffff;fill-opacity:1;fill-rule:nonzero;stroke:none"
         id="path3824"
         inkscape:connector-curvature="0" />
    </g>
    <g
       id="g3826"
       transform="matrix(0.08108478,0,0,-0.08108478,50.35982,233.32541)">
      <path
         d="M 0,0 -0.36,-0.072 -0.647,-0.504 -0.216,-0.72 0.433,0 H 0.216 Z"
         style="fill:#ffffff;fill-opacity:1;fill-rule:nonzero;stroke:none"
         id="path3828"
         inkscape:connector-curvature="0" />
    </g>
    <g
       id="g3830"
       transform="matrix(0.08108478,0,0,-0.08108478,51.790121,233.48299)">
      <path
         d="m 0,0 0.072,0.503 v 0.36 l -0.359,-0.504 -0.36,-0.288 -0.648,-0.143 -1.152,-0.288 -0.792,-0.073 -0.937,0.073 -0.935,0.143 -0.649,-0.072 0.721,-0.359 1.512,-0.145 1.799,0.145 z"
         style="fill:#ffffff;fill-opacity:1;fill-rule:nonzero;stroke:none"
         id="path3832"
         inkscape:connector-curvature="0" />
    </g>
    <g
       id="g3834"
       transform="matrix(0.08108478,0,0,-0.08108478,51.241369,233.47135)">
      <path
         d="m 0,0 1.44,-1.008 2.088,-0.36 2.016,0.36 1.296,0.864 0.144,-1.8 L 6.48,-3.456 H 5.04 L 3.528,-3.24 2.088,-3.456 1.08,-4.177 0.216,-2.088 Z"
         style="fill:#ffffff;fill-opacity:1;fill-rule:nonzero;stroke:none"
         id="path3836"
         inkscape:connector-curvature="0" />
    </g>
    <g
       id="g3838"
       transform="matrix(0.08108478,0,0,-0.08108478,50.424029,233.52384)">
      <path
         d="M 0,0 0.792,-0.145 1.801,-0.217 2.736,0 3.672,0.575 2.952,0.144 H 1.801 L 0.504,0.215 Z"
         style="fill:#ffffff;fill-opacity:1;fill-rule:nonzero;stroke:none"
         id="path3840"
         inkscape:connector-curvature="0" />
    </g>
    <g
       id="g3842"
       transform="matrix(0.08108478,0,0,-0.08108478,50.254738,233.62315)">
      <path
         d="m 0,0 v 0 l -0.072,-0.072 0.36,-0.936 0.504,-0.576 0.72,-0.576 0.864,-0.36 0.648,-0.072 0.792,-0.072 0.648,0.072 0.576,0.072 1.008,0.144 1.009,0.071 L 8.064,-2.376 9.36,-2.736 8.424,-1.8 7.2,-1.152 5.616,-1.008 4.176,-0.864 3.168,-1.008 H 2.376 L 1.584,-0.792 0.648,-0.576 0.072,0.072 Z"
         style="fill:#000000;fill-opacity:1;fill-rule:nonzero;stroke:none"
         id="path3844"
         inkscape:connector-curvature="0" />
    </g>
    <g
       id="g3846"
       transform="matrix(0.08108478,0,0,-0.08108478,45.44414,222.63585)">
      <path
         d="M 0,0 V 0.721 L -0.288,2.088 -1.08,3.096 -2.088,3.816 -3.384,4.032 -4.607,3.744 -5.615,3.023 -6.336,1.872 -6.552,0.504 l 1.008,-3.456 2.376,-3.6 2.376,-3.528 1.152,-3.313 1.008,3.313 2.448,3.528 2.304,3.6 L 7.2,0.504 6.912,1.872 6.264,3.023 5.328,3.744 4.032,4.032 2.736,3.816 1.729,3.096 0.864,2.088 0.576,0.721 V 0 L 0.36,-0.216 Z"
         style="fill:#ff0000;fill-opacity:1;fill-rule:nonzero;stroke:none"
         id="path3848"
         inkscape:connector-curvature="0" />
    </g>
    <g
       id="g3850"
       transform="matrix(0.08108478,0,0,-0.08108478,44.971239,221.98194)">
      <path
         d="M 0,0 V 22.248 H 2.16 V 11.304 L 9.648,22.248 H 12.24 L 5.977,12.888 12.24,0 H 10.08 L 4.608,11.016 2.16,7.632 V 0 Z"
         style="fill:#ff0000;fill-opacity:1;fill-rule:nonzero;stroke:none"
         id="path3852"
         inkscape:connector-curvature="0" />
    </g>
    <g
       id="g3854"
       transform="matrix(0.08108478,0,0,-0.08108478,55.818471,233.88002)">
      <path
         d="m 0,0 v -0.792 l -0.288,-1.296 -0.792,-1.08 -1.08,-0.721 -1.296,-0.215 -1.152,0.215 -1.08,0.792 -0.648,1.081 -0.288,1.44 1.008,3.384 2.376,3.528 2.376,3.527 1.08,3.241 L 1.368,9.863 3.744,6.336 6.12,2.808 7.128,-0.576 6.912,-2.016 6.192,-3.097 5.256,-3.889 4.032,-4.104 2.735,-3.889 1.656,-3.168 0.72,-2.088 0.504,-0.792 V 0 L 0.216,0.072 Z"
         style="fill:#ff0000;fill-opacity:1;fill-rule:nonzero;stroke:none"
         id="path3856"
         inkscape:connector-curvature="0" />
    </g>
    <g
       id="g3858"
       transform="matrix(0.08108478,0,0,-0.08108478,56.338081,234.52806)">
      <path
         d="m 0,0 v -22.031 h -2.16 v 10.871 l -7.488,-10.871 h -2.665 l 6.336,9.215 L -12.313,0 h 2.233 l 5.544,-11.016 2.376,3.456 V 0 Z"
         style="fill:#ff0000;fill-opacity:1;fill-rule:nonzero;stroke:none"
         id="path3860"
         inkscape:connector-curvature="0" />
    </g>
    <g
       id="g3862"
       transform="matrix(0.08108478,0,0,-0.08108478,46.454128,229.75254)">
      <path
         d="M 0,0 21.168,-20.663 5.832,-18.216 Z"
         style="fill:#c0c0ff;fill-opacity:1;fill-rule:nonzero;stroke:none"
         id="path3864"
         inkscape:connector-curvature="0" />
    </g>
    <g
       id="g3866"
       transform="matrix(0.08108478,0,0,-0.08108478,46.454128,229.75254)">
      <path
         d="M 0,0 21.168,-20.663 5.832,-18.216 Z"
         style="fill:none;stroke:#000000;stroke-width:0.221;stroke-linecap:butt;stroke-linejoin:miter;stroke-miterlimit:4;stroke-dasharray:none;stroke-opacity:1"
         id="path3868"
         inkscape:connector-curvature="0" />
    </g>
    <g
       id="g3870"
       transform="matrix(0.08108478,0,0,-0.08108478,54.755891,226.81591)">
      <path
         d="M 0,0 -19.728,19.368 -4.464,16.991 Z"
         style="fill:#c0c0ff;fill-opacity:1;fill-rule:nonzero;stroke:none"
         id="path3872"
         inkscape:connector-curvature="0" />
    </g>
    <g
       id="g3874"
       transform="matrix(0.08108478,0,0,-0.08108478,54.755891,226.81591)">
      <path
         d="M 0,0 -19.728,19.368 -4.464,16.991 Z"
         style="fill:none;stroke:#000000;stroke-width:0.221;stroke-linecap:butt;stroke-linejoin:miter;stroke-miterlimit:4;stroke-dasharray:none;stroke-opacity:1"
         id="path3876"
         inkscape:connector-curvature="0" />
    </g>
  </g>
</svg>
