<?xml version="1.0" encoding="UTF-8" standalone="no"?>
<!-- Created with Inkscape (http://www.inkscape.org/) -->

<svg
   xmlns:dc="http://purl.org/dc/elements/1.1/"
   xmlns:cc="http://creativecommons.org/ns#"
   xmlns:rdf="http://www.w3.org/1999/02/22-rdf-syntax-ns#"
   xmlns:svg="http://www.w3.org/2000/svg"
   xmlns="http://www.w3.org/2000/svg"
   xmlns:sodipodi="http://sodipodi.sourceforge.net/DTD/sodipodi-0.dtd"
   xmlns:inkscape="http://www.inkscape.org/namespaces/inkscape"
   width="12.727067mm"
   height="18.045662mm"
   viewBox="0 0 12.727067 18.045662"
   version="1.1"
   id="svg7293"
   inkscape:version="0.92.3 (2405546, 2018-03-11)"
   sodipodi:docname="7.svg">
  <defs
     id="defs7287" />
  <sodipodi:namedview
     id="base"
     pagecolor="#ffffff"
     bordercolor="#666666"
     borderopacity="1.0"
     inkscape:pageopacity="0.0"
     inkscape:pageshadow="2"
     inkscape:zoom="0.7"
     inkscape:cx="-136.11214"
     inkscape:cy="-17.581322"
     inkscape:document-units="mm"
     inkscape:current-layer="layer1"
     showgrid="false"
     inkscape:window-width="1920"
     inkscape:window-height="1052"
     inkscape:window-x="0"
     inkscape:window-y="0"
     inkscape:window-maximized="1" />
  <metadata
     id="metadata7290">
    <rdf:RDF>
      <cc:Work
         rdf:about="">
        <dc:format>image/svg+xml</dc:format>
        <dc:type
           rdf:resource="http://purl.org/dc/dcmitype/StillImage" />
        <dc:title></dc:title>
      </cc:Work>
    </rdf:RDF>
  </metadata>
  <g
     inkscape:label="Layer 1"
     inkscape:groupmode="layer"
     id="layer1"
     transform="translate(-224.20195,-122.4236)">
    <g
       id="g3104"
       transform="matrix(0.08108478,0,0,-0.08108478,224.68651,122.4236)">
      <path
         d="m 0,0 h 145.008 l 2.304,-0.647 1.944,-1.874 1.224,-2.664 0.504,-3.383 v -205.489 l -0.504,-3.239 -1.224,-2.736 -1.944,-1.872 -2.304,-0.649 H 0 l -2.376,0.649 -1.872,1.872 -1.296,2.736 -0.432,3.239 V -8.568 l 0.432,3.383 1.296,2.664 1.872,1.874 z"
         style="fill:#000000;fill-opacity:1;fill-rule:nonzero;stroke:none"
         id="path3106"
         inkscape:connector-curvature="0" />
    </g>
    <g
       id="g3108"
       transform="matrix(0.08108478,0,0,-0.08108478,224.86749,122.70969)">
      <path
         d="m 0,0 h 140.472 l 2.304,-0.576 1.872,-1.8 1.296,-2.592 0.432,-3.24 v -199.151 l -0.432,-3.169 -1.296,-2.592 -1.872,-1.8 -2.304,-0.648 H 0 l -2.232,0.648 -1.872,1.8 -1.224,2.592 -0.432,3.169 V -8.208 l 0.432,3.24 1.224,2.592 1.872,1.8 z"
         style="fill:#ffffff;fill-opacity:1;fill-rule:nonzero;stroke:none"
         id="path3110"
         inkscape:connector-curvature="0" />
    </g>
    <g
       id="g3112"
       transform="matrix(0.08108478,0,0,-0.08108478,235.96573,137.97628)">
      <path
         d="m 0,0 -0.504,-2.521 -0.648,-2.52 -0.432,-1.224 -0.288,-1.223 -0.504,-1.153 -0.504,-1.151 -0.936,-2.089 -0.72,-1.656 -0.432,-0.863 -0.504,-1.008 -0.648,-1.225 -0.792,-1.512 h 9.288 v -2.303 H -9.216 v 2.015 l 0.144,0.361 0.432,0.648 0.432,0.863 0.648,1.153 0.648,1.223 0.648,1.153 0.576,1.008 0.504,1.08 0.432,1.007 0.36,1.152 0.504,1.297 0.36,1.296 0.72,2.952 0.432,3.24 z m -105.336,162.791 v 1.656 l -0.504,2.809 -1.728,2.231 -2.376,1.441 -2.664,0.504 -2.592,-0.649 -2.16,-1.439 -1.44,-2.448 -0.576,-2.88 0.648,-3.529 1.656,-3.743 2.304,-3.816 2.664,-3.889 2.664,-3.815 2.304,-3.816 1.8,-3.6 0.648,-3.312 0.72,3.312 1.656,3.6 2.376,3.816 2.664,3.815 2.592,3.889 2.376,3.816 1.656,3.743 0.648,3.529 -0.576,2.88 -1.44,2.448 -2.16,1.439 -2.592,0.649 -2.736,-0.504 -2.304,-1.441 -1.656,-2.231 -0.72,-2.809 v -1.656 l -0.504,-0.359 z m 0,-165.815 v -1.657 l -0.504,-2.807 -1.728,-2.233 -2.376,-1.44 -2.664,-0.575 -2.592,0.648 -2.16,1.512 -1.44,2.375 -0.576,2.952 0.648,3.457 1.656,3.671 2.304,3.889 2.664,3.816 2.664,3.815 2.304,3.816 1.8,3.6 0.648,3.312 0.72,-3.312 1.656,-3.6 2.376,-3.816 2.664,-3.815 2.592,-3.816 2.376,-3.889 1.656,-3.671 0.648,-3.457 -0.576,-2.952 -1.44,-2.375 -2.16,-1.512 -2.592,-0.648 -2.736,0.504 -2.304,1.511 -1.656,2.233 -0.72,2.807 v 1.657 l -0.504,0.359 z m 38.088,38.087 v -1.655 l -0.576,-2.881 -1.656,-2.16 -2.448,-1.512 -2.592,-0.503 -2.664,0.648 -2.16,1.512 -1.44,2.376 -0.576,2.88 0.648,3.527 1.656,3.673 2.232,3.887 2.808,3.817 2.592,3.888 2.376,3.744 1.728,3.599 0.648,3.312 0.648,-3.312 1.656,-3.599 2.448,-3.744 2.592,-3.888 2.664,-3.817 2.304,-3.887 1.728,-3.673 0.648,-3.527 -0.648,-2.88 L -54,28.512 -56.232,27 l -2.592,-0.648 -2.664,0.503 -2.376,1.512 -1.656,2.16 -0.648,2.881 v 1.655 l -0.504,0.289 z m -38.088,37.296 v -1.656 l -0.504,-2.88 -1.728,-2.159 -2.376,-1.513 -2.664,-0.431 -2.592,0.575 -2.16,1.513 -1.44,2.376 -0.576,2.879 0.648,3.529 1.656,3.672 2.304,3.816 2.664,3.888 2.664,3.815 2.304,3.744 1.8,3.6 0.648,3.385 0.72,-3.385 1.656,-3.6 2.376,-3.744 2.664,-3.815 2.592,-3.888 2.376,-3.816 1.656,-3.672 0.648,-3.529 -0.576,-2.879 -1.44,-2.376 -2.16,-1.513 -2.592,-0.575 -2.736,0.431 -2.304,1.513 -1.656,2.159 -0.72,2.88 v 1.656 l -0.504,0.361 z m -23.472,77.256 v 0.793 l -0.216,1.295 -0.792,1.08 -1.152,0.721 -1.224,0.216 -1.224,-0.288 -1.008,-0.792 -0.648,-1.08 -0.36,-1.369 1.08,-3.456 2.376,-3.672 2.376,-3.528 1.08,-3.311 1.152,3.311 2.376,3.528 2.376,3.672 1.08,3.456 -0.288,1.369 -0.648,1.08 -1.008,0.792 -1.296,0.288 -1.224,-0.216 -1.08,-0.721 -0.864,-1.08 -0.288,-1.295 v -0.793 l -0.288,-0.143 z M -3.384,10.151 V 9.359 L -3.672,8.063 -4.392,6.912 -5.544,6.264 -6.768,6.047 -8.064,6.264 -9.072,7.056 -9.72,8.208 l -0.36,1.368 1.152,3.383 2.376,3.601 2.304,3.599 1.152,3.24 1.08,-3.24 L 0.432,16.56 2.736,12.959 3.816,9.576 3.528,8.208 2.88,7.056 1.872,6.264 0.648,6.047 -0.576,6.264 -1.728,6.912 -2.52,8.063 -2.808,9.359 v 0.792 l -0.288,0.144 z m -25.632,152.64 v 1.656 l -0.648,2.809 -1.656,2.231 -2.376,1.441 -2.664,0.504 -2.592,-0.649 -2.16,-1.439 -1.44,-2.448 -0.576,-2.88 0.576,-3.529 1.728,-3.743 2.304,-3.816 2.664,-3.889 2.664,-3.815 2.304,-3.816 1.728,-3.6 0.648,-3.312 0.792,3.312 1.584,3.6 2.448,3.816 2.664,3.815 2.592,3.889 2.376,3.816 1.656,3.743 0.576,3.529 -0.504,2.88 -1.44,2.448 -2.16,1.439 -2.592,0.649 -2.736,-0.504 -2.376,-1.441 -1.584,-2.231 -0.72,-2.809 v -1.656 l -0.576,-0.359 z m 0,-165.815 v -1.657 l -0.648,-2.807 -1.656,-2.233 -2.376,-1.44 -2.664,-0.575 -2.592,0.648 -2.16,1.512 -1.44,2.375 -0.576,2.952 0.576,3.457 1.728,3.671 2.304,3.889 2.664,3.816 2.664,3.815 2.304,3.816 1.728,3.6 0.648,3.312 0.792,-3.312 1.584,-3.6 2.448,-3.816 2.664,-3.815 2.592,-3.816 2.376,-3.889 1.656,-3.671 0.576,-3.457 -0.504,-2.952 -1.44,-2.375 -2.16,-1.512 -2.592,-0.648 -2.736,0.504 -2.376,1.511 -1.584,2.233 -0.72,2.807 v 1.657 l -0.576,0.359 z m 0,75.383 v -1.656 l -0.648,-2.88 -1.656,-2.159 -2.376,-1.513 -2.664,-0.431 -2.592,0.575 -2.16,1.513 -1.44,2.376 -0.576,2.879 0.576,3.529 1.728,3.672 2.304,3.816 2.664,3.888 2.664,3.815 2.304,3.744 1.728,3.6 0.648,3.385 0.792,-3.385 1.584,-3.6 2.448,-3.744 2.664,-3.815 2.592,-3.888 2.376,-3.816 1.656,-3.672 0.576,-3.529 -0.504,-2.879 -1.44,-2.376 -2.16,-1.513 -2.592,-0.575 -2.736,0.431 -2.376,1.513 -1.584,2.159 -0.72,2.88 v 1.656 l -0.576,0.361 z m -102.96,86.256 0.504,2.521 0.648,2.519 0.36,1.224 0.504,1.152 0.432,1.225 0.504,1.152 0.864,2.088 0.72,1.655 0.432,0.792 0.504,1.08 0.72,1.225 0.648,1.44 h -9.144 v 2.375 h 11.52 v -2.016 l -0.216,-0.432 -0.36,-0.576 -0.432,-0.935 -0.648,-1.081 -0.648,-1.224 -0.648,-1.152 -0.576,-1.08 -0.504,-1.08 -0.36,-1.008 -0.432,-1.151 -0.432,-1.297 -0.432,-1.296 -0.648,-2.952 -0.576,-3.168 z"
         style="fill:#ff0000;fill-opacity:1;fill-rule:nonzero;stroke:none"
         id="path3114"
         inkscape:connector-curvature="0" />
    </g>
  </g>
</svg>
